<mxfile host="65bd71144e">
    <diagram id="02SapOzhCbqgvy_b65oz" name="Page-1">
        <mxGraphModel dx="1269" dy="2213" grid="1" gridSize="10" guides="1" tooltips="1" connect="1" arrows="1" fold="1" page="1" pageScale="1" pageWidth="850" pageHeight="1100" math="0" shadow="0">
            <root>
                <mxCell id="0"/>
                <mxCell id="1" parent="0"/>
                <mxCell id="560" value="1" style="edgeStyle=orthogonalEdgeStyle;shape=connector;rounded=1;jumpStyle=arc;jumpSize=13;orthogonalLoop=1;jettySize=auto;html=1;strokeColor=default;align=center;verticalAlign=middle;fontFamily=Helvetica;fontSize=16;fontColor=default;labelBackgroundColor=default;endArrow=none;endFill=0;spacing=3;fontStyle=1" edge="1" parent="1" source="562" target="578">
                    <mxGeometry relative="1" as="geometry"/>
                </mxCell>
                <mxCell id="561" style="edgeStyle=orthogonalEdgeStyle;shape=connector;rounded=1;jumpStyle=arc;jumpSize=13;orthogonalLoop=1;jettySize=auto;html=1;strokeColor=default;align=center;verticalAlign=middle;fontFamily=Helvetica;fontSize=16;fontColor=default;labelBackgroundColor=default;endArrow=none;endFill=0;spacing=3;fontStyle=1" edge="1" parent="1" source="562" target="620">
                    <mxGeometry relative="1" as="geometry"/>
                </mxCell>
                <mxCell id="562" value="Media" style="whiteSpace=wrap;html=1;align=center;fillColor=#dae8fc;strokeColor=#6c8ebf;fontSize=16;spacing=3;fontStyle=1" vertex="1" parent="1">
                    <mxGeometry x="-700" y="260.2" width="80" height="40" as="geometry"/>
                </mxCell>
                <mxCell id="563" style="edgeStyle=orthogonalEdgeStyle;shape=connector;rounded=1;jumpStyle=arc;jumpSize=13;html=1;strokeColor=default;align=center;verticalAlign=middle;fontFamily=Helvetica;fontSize=16;fontColor=default;labelBackgroundColor=default;endArrow=none;endFill=0;spacing=3;fontStyle=1" edge="1" parent="1" source="564" target="677">
                    <mxGeometry relative="1" as="geometry">
                        <Array as="points">
                            <mxPoint x="205.02999999999997" y="1008"/>
                            <mxPoint x="245.02999999999997" y="1008"/>
                        </Array>
                    </mxGeometry>
                </mxCell>
                <mxCell id="564" value="Cinema" style="whiteSpace=wrap;html=1;align=center;fillColor=#dae8fc;strokeColor=#6c8ebf;fontSize=16;spacing=3;fontStyle=1" vertex="1" parent="1">
                    <mxGeometry x="155.02999999999997" y="1035" width="80" height="40" as="geometry"/>
                </mxCell>
                <mxCell id="565" value="n" style="edgeStyle=orthogonalEdgeStyle;shape=link;rounded=1;jumpStyle=arc;jumpSize=13;html=1;strokeColor=default;align=center;verticalAlign=middle;fontFamily=Helvetica;fontSize=16;fontColor=default;labelBackgroundColor=default;endArrow=none;endFill=0;spacing=3;fontStyle=1" edge="1" parent="1" source="567" target="571">
                    <mxGeometry relative="1" as="geometry">
                        <mxPoint x="229.99999999999955" y="-29.800000000000182" as="targetPoint"/>
                        <Array as="points"/>
                    </mxGeometry>
                </mxCell>
                <mxCell id="566" value="1" style="edgeStyle=orthogonalEdgeStyle;shape=connector;rounded=1;jumpStyle=arc;jumpSize=13;orthogonalLoop=1;jettySize=auto;html=1;strokeColor=default;align=center;verticalAlign=middle;fontFamily=Helvetica;fontSize=16;fontColor=default;labelBackgroundColor=default;endArrow=none;endFill=0;spacing=3;fontStyle=1" edge="1" parent="1" source="567" target="564">
                    <mxGeometry relative="1" as="geometry">
                        <Array as="points">
                            <mxPoint x="420" y="1055"/>
                        </Array>
                    </mxGeometry>
                </mxCell>
                <mxCell id="567" value="Has" style="shape=rhombus;perimeter=rhombusPerimeter;whiteSpace=wrap;html=1;align=center;strokeColor=#d6b656;verticalAlign=middle;fontFamily=Helvetica;fontSize=16;fillColor=#fff2cc;spacing=3;fontStyle=1" vertex="1" parent="1">
                    <mxGeometry x="370" y="40" width="80" height="40" as="geometry"/>
                </mxCell>
                <mxCell id="568" value="1" style="edgeStyle=orthogonalEdgeStyle;shape=connector;rounded=1;jumpStyle=arc;jumpSize=13;html=1;strokeColor=default;align=center;verticalAlign=middle;fontFamily=Helvetica;fontSize=16;fontColor=default;labelBackgroundColor=default;endArrow=none;endFill=0;spacing=3;fontStyle=1" edge="1" parent="1" source="571" target="575">
                    <mxGeometry relative="1" as="geometry">
                        <Array as="points">
                            <mxPoint x="-125" y="80"/>
                            <mxPoint x="-125" y="80"/>
                        </Array>
                    </mxGeometry>
                </mxCell>
                <mxCell id="569" style="edgeStyle=orthogonalEdgeStyle;shape=connector;rounded=1;jumpStyle=arc;jumpSize=13;orthogonalLoop=1;jettySize=auto;html=1;strokeColor=default;align=center;verticalAlign=middle;fontFamily=Helvetica;fontSize=16;fontColor=default;labelBackgroundColor=default;endArrow=none;endFill=0;spacing=3;fontStyle=1" edge="1" parent="1" source="571" target="686">
                    <mxGeometry relative="1" as="geometry"/>
                </mxCell>
                <mxCell id="570" style="edgeStyle=orthogonalEdgeStyle;shape=connector;rounded=1;jumpStyle=arc;jumpSize=13;orthogonalLoop=1;jettySize=auto;html=1;strokeColor=default;align=center;verticalAlign=middle;fontFamily=Helvetica;fontSize=16;fontColor=default;labelBackgroundColor=default;endArrow=none;endFill=0;spacing=3;fontStyle=1" edge="1" parent="1" source="571" target="687">
                    <mxGeometry relative="1" as="geometry">
                        <Array as="points">
                            <mxPoint x="-110" y="20"/>
                        </Array>
                    </mxGeometry>
                </mxCell>
                <mxCell id="571" value="Room" style="whiteSpace=wrap;html=1;align=center;fillColor=#dae8fc;strokeColor=#6c8ebf;fontSize=16;spacing=3;fontStyle=1" vertex="1" parent="1">
                    <mxGeometry x="-165.04" y="40" width="80" height="40" as="geometry"/>
                </mxCell>
                <mxCell id="572" value="n" style="edgeStyle=orthogonalEdgeStyle;shape=connector;rounded=1;jumpStyle=arc;jumpSize=13;html=1;strokeColor=default;align=center;verticalAlign=middle;fontFamily=Helvetica;fontSize=16;fontColor=default;labelBackgroundColor=default;endArrow=none;endFill=0;spacing=3;fontStyle=1" edge="1" parent="1" source="574" target="576">
                    <mxGeometry relative="1" as="geometry">
                        <Array as="points">
                            <mxPoint x="-340" y="270"/>
                        </Array>
                    </mxGeometry>
                </mxCell>
                <mxCell id="573" style="edgeStyle=orthogonalEdgeStyle;shape=connector;rounded=1;jumpStyle=arc;jumpSize=13;orthogonalLoop=1;jettySize=auto;html=1;strokeColor=default;align=center;verticalAlign=middle;fontFamily=Helvetica;fontSize=16;fontColor=default;labelBackgroundColor=default;endArrow=none;endFill=0;spacing=3;fontStyle=1" edge="1" parent="1" source="574" target="698">
                    <mxGeometry relative="1" as="geometry">
                        <Array as="points">
                            <mxPoint x="-240" y="150"/>
                        </Array>
                    </mxGeometry>
                </mxCell>
                <mxCell id="574" value="ShowTime" style="whiteSpace=wrap;html=1;align=center;fillColor=#dae8fc;strokeColor=#6c8ebf;fontSize=16;spacing=3;fontStyle=1" vertex="1" parent="1">
                    <mxGeometry x="-380" y="140.2" width="80" height="40" as="geometry"/>
                </mxCell>
                <mxCell id="575" value="Has" style="shape=rhombus;perimeter=rhombusPerimeter;whiteSpace=wrap;html=1;align=center;strokeColor=#d6b656;verticalAlign=middle;fontFamily=Helvetica;fontSize=16;fillColor=#fff2cc;spacing=3;fontStyle=1" vertex="1" parent="1">
                    <mxGeometry x="-165.04" y="140.2" width="80" height="40" as="geometry"/>
                </mxCell>
                <mxCell id="576" value="Has" style="shape=rhombus;perimeter=rhombusPerimeter;whiteSpace=wrap;html=1;align=center;strokeColor=#d6b656;verticalAlign=middle;fontFamily=Helvetica;fontSize=16;fillColor=#fff2cc;spacing=3;fontStyle=1" vertex="1" parent="1">
                    <mxGeometry x="-230.09" y="250" width="80" height="40" as="geometry"/>
                </mxCell>
                <mxCell id="577" value="n" style="edgeStyle=orthogonalEdgeStyle;shape=link;rounded=1;jumpStyle=arc;jumpSize=13;html=1;strokeColor=default;align=center;verticalAlign=middle;fontFamily=Helvetica;fontSize=16;fontColor=default;labelBackgroundColor=default;endArrow=none;endFill=0;spacing=3;fontStyle=1" edge="1" parent="1" source="578" target="574">
                    <mxGeometry relative="1" as="geometry">
                        <mxPoint x="-385.15478260869565" y="-4.782608695652016" as="sourcePoint"/>
                        <Array as="points">
                            <mxPoint x="-450" y="160"/>
                        </Array>
                    </mxGeometry>
                </mxCell>
                <mxCell id="578" value="Has" style="shape=rhombus;perimeter=rhombusPerimeter;whiteSpace=wrap;html=1;align=center;strokeColor=#d6b656;verticalAlign=middle;fontFamily=Helvetica;fontSize=16;fillColor=#fff2cc;spacing=3;fontStyle=1" vertex="1" parent="1">
                    <mxGeometry x="-490" y="260.2" width="80" height="40" as="geometry"/>
                </mxCell>
                <mxCell id="579" value="n" style="edgeStyle=orthogonalEdgeStyle;shape=link;rounded=1;jumpStyle=arc;jumpSize=13;html=1;strokeColor=default;align=center;verticalAlign=middle;fontFamily=Helvetica;fontSize=16;fontColor=default;labelBackgroundColor=default;endArrow=none;endFill=0;spacing=3;fontStyle=1" edge="1" parent="1" source="580" target="582">
                    <mxGeometry relative="1" as="geometry"/>
                </mxCell>
                <mxCell id="580" value="Seat" style="whiteSpace=wrap;html=1;align=center;fillColor=#dae8fc;strokeColor=#6c8ebf;fontSize=16;spacing=3;fontStyle=1" vertex="1" parent="1">
                    <mxGeometry x="165" y="365" width="80" height="40" as="geometry"/>
                </mxCell>
                <mxCell id="581" value="1" style="edgeStyle=orthogonalEdgeStyle;shape=connector;rounded=1;jumpStyle=arc;jumpSize=13;orthogonalLoop=1;jettySize=auto;html=1;entryX=0.75;entryY=1;entryDx=0;entryDy=0;strokeColor=default;align=center;verticalAlign=middle;fontFamily=Helvetica;fontSize=16;fontColor=default;labelBackgroundColor=default;endArrow=none;endFill=0;spacing=3;fontStyle=1" edge="1" parent="1" source="582" target="571">
                    <mxGeometry relative="1" as="geometry">
                        <Array as="points">
                            <mxPoint x="130" y="180"/>
                            <mxPoint x="10" y="180"/>
                            <mxPoint x="10" y="80"/>
                        </Array>
                    </mxGeometry>
                </mxCell>
                <mxCell id="582" value="Has" style="shape=rhombus;perimeter=rhombusPerimeter;whiteSpace=wrap;html=1;align=center;strokeColor=#d6b656;verticalAlign=middle;fontFamily=Helvetica;fontSize=16;fillColor=#fff2cc;spacing=3;fontStyle=1" vertex="1" parent="1">
                    <mxGeometry x="90" y="250" width="80" height="40" as="geometry"/>
                </mxCell>
                <mxCell id="583" style="edgeStyle=orthogonalEdgeStyle;shape=connector;rounded=1;jumpStyle=arc;jumpSize=13;html=1;strokeColor=default;align=center;verticalAlign=middle;fontFamily=Helvetica;fontSize=16;fontColor=default;labelBackgroundColor=default;endArrow=none;endFill=0;spacing=3;fontStyle=1" edge="1" parent="1" source="585" target="643">
                    <mxGeometry relative="1" as="geometry">
                        <Array as="points">
                            <mxPoint x="-382.5" y="1430"/>
                        </Array>
                    </mxGeometry>
                </mxCell>
                <mxCell id="584" value="1" style="edgeStyle=orthogonalEdgeStyle;shape=connector;rounded=1;jumpStyle=arc;jumpSize=13;html=1;strokeColor=default;align=center;verticalAlign=middle;fontFamily=Helvetica;fontSize=16;fontColor=default;labelBackgroundColor=default;endArrow=none;endFill=0;exitX=0;exitY=0.25;exitDx=0;exitDy=0;spacing=3;fontStyle=1" edge="1" parent="1" source="585" target="665">
                    <mxGeometry relative="1" as="geometry">
                        <Array as="points">
                            <mxPoint x="-655" y="1380"/>
                        </Array>
                        <mxPoint x="-449.9999999999998" y="1400" as="sourcePoint"/>
                        <mxPoint x="-802.5" y="1220" as="targetPoint"/>
                    </mxGeometry>
                </mxCell>
                <mxCell id="585" value="User" style="whiteSpace=wrap;html=1;align=center;fillColor=#dae8fc;strokeColor=#6c8ebf;fontSize=16;spacing=3;fontStyle=1" vertex="1" parent="1">
                    <mxGeometry x="-452.5" y="1370" width="80" height="40" as="geometry"/>
                </mxCell>
                <mxCell id="586" value="n" style="edgeStyle=orthogonalEdgeStyle;shape=connector;rounded=1;jumpStyle=arc;jumpSize=13;html=1;strokeColor=default;align=center;verticalAlign=middle;fontFamily=Helvetica;fontSize=16;fontColor=default;labelBackgroundColor=default;endArrow=none;endFill=0;spacing=3;fontStyle=1" edge="1" parent="1" source="587" target="593">
                    <mxGeometry relative="1" as="geometry">
                        <Array as="points">
                            <mxPoint x="-340" y="900"/>
                        </Array>
                    </mxGeometry>
                </mxCell>
                <mxCell id="587" value="Has" style="shape=rhombus;perimeter=rhombusPerimeter;whiteSpace=wrap;html=1;align=center;strokeColor=#d6b656;verticalAlign=middle;fontFamily=Helvetica;fontSize=16;fillColor=#fff2cc;spacing=3;fontStyle=1" vertex="1" parent="1">
                    <mxGeometry x="-370" y="740" width="80" height="40" as="geometry"/>
                </mxCell>
                <mxCell id="588" value="1" style="edgeStyle=orthogonalEdgeStyle;shape=connector;rounded=1;jumpStyle=arc;jumpSize=13;html=1;strokeColor=default;align=center;verticalAlign=middle;fontFamily=Helvetica;fontSize=16;fontColor=default;labelBackgroundColor=default;endArrow=none;endFill=0;spacing=3;fontStyle=1" edge="1" parent="1" source="589" target="587">
                    <mxGeometry relative="1" as="geometry"/>
                </mxCell>
                <mxCell id="589" value="Customer" style="whiteSpace=wrap;html=1;align=center;fillColor=#dae8fc;strokeColor=#6c8ebf;fontSize=16;spacing=3;fontStyle=1" vertex="1" parent="1">
                    <mxGeometry x="-435.12" y="630" width="80" height="40" as="geometry"/>
                </mxCell>
                <mxCell id="590" value="1" style="edgeStyle=orthogonalEdgeStyle;shape=connector;rounded=1;jumpStyle=arc;jumpSize=13;html=1;strokeColor=default;align=center;verticalAlign=middle;fontFamily=Helvetica;fontSize=16;fontColor=default;labelBackgroundColor=default;endArrow=none;endFill=0;spacing=3;fontStyle=1" edge="1" parent="1" source="591" target="619">
                    <mxGeometry relative="1" as="geometry"/>
                </mxCell>
                <mxCell id="591" value="Admin" style="whiteSpace=wrap;html=1;align=center;fillColor=#dae8fc;strokeColor=#6c8ebf;fontSize=16;spacing=3;fontStyle=1" vertex="1" parent="1">
                    <mxGeometry x="-512.5" y="930" width="80" height="40" as="geometry"/>
                </mxCell>
                <mxCell id="592" value="1" style="edgeStyle=orthogonalEdgeStyle;shape=link;rounded=1;jumpStyle=arc;jumpSize=13;html=1;strokeColor=default;align=center;verticalAlign=middle;fontFamily=Helvetica;fontSize=16;fontColor=default;labelBackgroundColor=default;endArrow=none;endFill=0;spacing=3;fontStyle=1" edge="1" parent="1" source="593" target="595">
                    <mxGeometry relative="1" as="geometry">
                        <mxPoint x="150" y="560" as="targetPoint"/>
                        <Array as="points">
                            <mxPoint x="-190" y="630"/>
                        </Array>
                    </mxGeometry>
                </mxCell>
                <mxCell id="593" value="Order" style="whiteSpace=wrap;html=1;align=center;fillColor=#dae8fc;strokeColor=#6c8ebf;fontSize=16;spacing=3;fontStyle=1" vertex="1" parent="1">
                    <mxGeometry x="-287.47" y="880" width="80" height="40" as="geometry"/>
                </mxCell>
                <mxCell id="594" value="n" style="edgeStyle=orthogonalEdgeStyle;shape=connector;rounded=1;jumpStyle=arc;jumpSize=13;html=1;strokeColor=default;align=center;verticalAlign=middle;fontFamily=Helvetica;fontSize=16;fontColor=default;labelBackgroundColor=default;endArrow=none;endFill=0;spacing=3;fontStyle=1" edge="1" parent="1" source="595" target="602">
                    <mxGeometry relative="1" as="geometry">
                        <mxPoint x="-20.000000000000227" y="600" as="targetPoint"/>
                        <Array as="points">
                            <mxPoint x="-190" y="530"/>
                            <mxPoint x="-190" y="530"/>
                        </Array>
                    </mxGeometry>
                </mxCell>
                <mxCell id="595" value="Has" style="shape=rhombus;perimeter=rhombusPerimeter;whiteSpace=wrap;html=1;align=center;strokeColor=#d6b656;verticalAlign=middle;fontFamily=Helvetica;fontSize=16;fillColor=#fff2cc;spacing=3;fontStyle=1" vertex="1" parent="1">
                    <mxGeometry x="-230.09" y="460" width="80" height="40" as="geometry"/>
                </mxCell>
                <mxCell id="596" value="n" style="edgeStyle=orthogonalEdgeStyle;shape=link;rounded=1;jumpStyle=arc;jumpSize=13;html=1;strokeColor=default;align=center;verticalAlign=middle;fontFamily=Helvetica;fontSize=16;fontColor=default;labelBackgroundColor=default;endArrow=none;endFill=0;spacing=3;fontStyle=1" edge="1" parent="1" source="754" target="616">
                    <mxGeometry relative="1" as="geometry">
                        <Array as="points">
                            <mxPoint x="-20" y="590"/>
                            <mxPoint x="20" y="590"/>
                        </Array>
                    </mxGeometry>
                </mxCell>
                <mxCell id="597" value="n" style="edgeStyle=orthogonalEdgeStyle;shape=link;rounded=1;jumpStyle=arc;jumpSize=13;html=1;strokeColor=default;align=center;verticalAlign=middle;fontFamily=Helvetica;fontSize=16;fontColor=default;labelBackgroundColor=default;endArrow=none;endFill=0;spacing=3;fontStyle=1" edge="1" parent="1" source="602" target="576">
                    <mxGeometry relative="1" as="geometry"/>
                </mxCell>
                <mxCell id="598" style="edgeStyle=orthogonalEdgeStyle;shape=connector;rounded=1;jumpStyle=arc;jumpSize=13;orthogonalLoop=1;jettySize=auto;html=1;strokeColor=default;align=center;verticalAlign=middle;fontFamily=Helvetica;fontSize=16;fontColor=default;labelBackgroundColor=default;endArrow=none;endFill=0;spacing=3;fontStyle=1" edge="1" parent="1" source="602" target="735">
                    <mxGeometry relative="1" as="geometry">
                        <Array as="points">
                            <mxPoint x="-280" y="360"/>
                        </Array>
                    </mxGeometry>
                </mxCell>
                <mxCell id="599" style="edgeStyle=orthogonalEdgeStyle;shape=connector;rounded=1;jumpStyle=arc;jumpSize=13;orthogonalLoop=1;jettySize=auto;html=1;strokeColor=default;align=center;verticalAlign=middle;fontFamily=Helvetica;fontSize=16;fontColor=default;labelBackgroundColor=default;endArrow=none;endFill=0;spacing=3;fontStyle=1" edge="1" parent="1" source="602" target="736">
                    <mxGeometry relative="1" as="geometry"/>
                </mxCell>
                <mxCell id="600" style="edgeStyle=orthogonalEdgeStyle;shape=connector;rounded=1;jumpStyle=arc;jumpSize=13;orthogonalLoop=1;jettySize=auto;html=1;strokeColor=default;align=center;verticalAlign=middle;fontFamily=Helvetica;fontSize=16;fontColor=default;labelBackgroundColor=default;endArrow=none;endFill=0;spacing=3;fontStyle=1" edge="1" parent="1" source="602" target="732">
                    <mxGeometry relative="1" as="geometry">
                        <Array as="points">
                            <mxPoint x="-250" y="380"/>
                            <mxPoint x="-250" y="400"/>
                        </Array>
                    </mxGeometry>
                </mxCell>
                <mxCell id="601" style="edgeStyle=orthogonalEdgeStyle;shape=connector;rounded=1;jumpStyle=arc;jumpSize=13;orthogonalLoop=1;jettySize=auto;html=1;strokeColor=default;align=center;verticalAlign=middle;fontFamily=Helvetica;fontSize=16;fontColor=default;labelBackgroundColor=default;endArrow=none;endFill=0;spacing=3;fontStyle=1" edge="1" parent="1" source="602" target="752">
                    <mxGeometry relative="1" as="geometry"/>
                </mxCell>
                <mxCell id="602" value="OrderDetail" style="whiteSpace=wrap;html=1;align=center;fillColor=#dae8fc;strokeColor=#6c8ebf;fontSize=16;spacing=3;fontStyle=1" vertex="1" parent="1">
                    <mxGeometry x="-240" y="350" width="100" height="40" as="geometry"/>
                </mxCell>
                <mxCell id="603" style="edgeStyle=orthogonalEdgeStyle;shape=connector;rounded=1;jumpStyle=arc;jumpSize=13;html=1;strokeColor=default;align=center;verticalAlign=middle;fontFamily=Helvetica;fontSize=16;fontColor=default;labelBackgroundColor=default;endArrow=none;endFill=0;spacing=3;fontStyle=1" edge="1" parent="1" source="605" target="589">
                    <mxGeometry relative="1" as="geometry">
                        <Array as="points">
                            <mxPoint x="-413" y="740"/>
                            <mxPoint x="-413" y="740"/>
                        </Array>
                    </mxGeometry>
                </mxCell>
                <mxCell id="604" style="edgeStyle=orthogonalEdgeStyle;shape=connector;rounded=1;jumpStyle=arc;jumpSize=13;html=1;strokeColor=default;align=center;verticalAlign=middle;fontFamily=Helvetica;fontSize=16;fontColor=default;labelBackgroundColor=default;endArrow=none;endFill=0;spacing=3;fontStyle=1" edge="1" parent="1" source="605" target="591">
                    <mxGeometry relative="1" as="geometry">
                        <Array as="points">
                            <mxPoint x="-472" y="1260"/>
                        </Array>
                    </mxGeometry>
                </mxCell>
                <mxCell id="605" value="d" style="ellipse;whiteSpace=wrap;html=1;fontSize=16;spacing=3;fontStyle=1" vertex="1" parent="1">
                    <mxGeometry x="-422.59000000000003" y="1250" width="20" height="20" as="geometry"/>
                </mxCell>
                <mxCell id="606" value="1" style="edgeStyle=orthogonalEdgeStyle;shape=link;rounded=1;jumpStyle=arc;jumpSize=13;html=1;strokeColor=default;align=center;verticalAlign=middle;fontFamily=Helvetica;fontSize=16;fontColor=default;labelBackgroundColor=default;endArrow=none;endFill=0;spacing=3;fontStyle=1" edge="1" parent="1" source="608" target="609">
                    <mxGeometry relative="1" as="geometry">
                        <Array as="points">
                            <mxPoint x="-247" y="1220"/>
                        </Array>
                    </mxGeometry>
                </mxCell>
                <mxCell id="607" value="1" style="edgeStyle=orthogonalEdgeStyle;shape=link;rounded=1;jumpStyle=arc;jumpSize=13;html=1;strokeColor=default;align=center;verticalAlign=middle;fontFamily=Helvetica;fontSize=16;fontColor=default;labelBackgroundColor=default;endArrow=none;endFill=0;spacing=3;fontStyle=1" edge="1" parent="1" source="608" target="593">
                    <mxGeometry relative="1" as="geometry">
                        <Array as="points">
                            <mxPoint x="-247" y="1000"/>
                            <mxPoint x="-247" y="1000"/>
                        </Array>
                    </mxGeometry>
                </mxCell>
                <mxCell id="608" value="Has" style="shape=rhombus;perimeter=rhombusPerimeter;whiteSpace=wrap;html=1;align=center;strokeColor=#d6b656;verticalAlign=middle;fontFamily=Helvetica;fontSize=16;fillColor=#fff2cc;spacing=3;fontStyle=1" vertex="1" parent="1">
                    <mxGeometry x="-287.47" y="1080" width="80" height="40" as="geometry"/>
                </mxCell>
                <mxCell id="609" value="Payment" style="whiteSpace=wrap;html=1;align=center;fillColor=#dae8fc;strokeColor=#6c8ebf;fontSize=16;spacing=3;fontStyle=1" vertex="1" parent="1">
                    <mxGeometry x="-222.58999999999997" y="1190" width="80" height="40" as="geometry"/>
                </mxCell>
                <mxCell id="610" value="n" style="edgeStyle=orthogonalEdgeStyle;shape=link;rounded=1;jumpStyle=arc;jumpSize=13;html=1;strokeColor=default;align=center;verticalAlign=middle;fontFamily=Helvetica;fontSize=16;fontColor=default;labelBackgroundColor=default;endArrow=none;endFill=0;spacing=3;fontStyle=1" edge="1" parent="1" source="612" target="753">
                    <mxGeometry relative="1" as="geometry">
                        <Array as="points">
                            <mxPoint x="70" y="280"/>
                            <mxPoint x="70" y="280"/>
                        </Array>
                    </mxGeometry>
                </mxCell>
                <mxCell id="611" value="1" style="edgeStyle=orthogonalEdgeStyle;shape=connector;rounded=1;jumpStyle=arc;jumpSize=13;orthogonalLoop=1;jettySize=auto;html=1;strokeColor=default;align=center;verticalAlign=middle;fontFamily=Helvetica;fontSize=16;fontColor=default;labelBackgroundColor=default;endArrow=none;endFill=0;spacing=3;fontStyle=1" edge="1" parent="1" source="612" target="580">
                    <mxGeometry relative="1" as="geometry"/>
                </mxCell>
                <mxCell id="612" value="Has" style="shape=rhombus;perimeter=rhombusPerimeter;whiteSpace=wrap;html=1;align=center;strokeColor=#d6b656;verticalAlign=middle;fontFamily=Helvetica;fontSize=16;fillColor=#fff2cc;spacing=3;fontStyle=1" vertex="1" parent="1">
                    <mxGeometry x="60" y="370" width="80" height="40" as="geometry"/>
                </mxCell>
                <mxCell id="613" style="edgeStyle=orthogonalEdgeStyle;shape=connector;rounded=1;jumpStyle=arc;jumpSize=13;orthogonalLoop=1;jettySize=auto;html=1;strokeColor=default;align=center;verticalAlign=middle;fontFamily=Helvetica;fontSize=16;fontColor=default;labelBackgroundColor=default;endArrow=none;endFill=0;spacing=3;fontStyle=1" edge="1" parent="1" source="614" target="724">
                    <mxGeometry relative="1" as="geometry"/>
                </mxCell>
                <mxCell id="614" value="Product" style="whiteSpace=wrap;html=1;align=center;fillColor=#dae8fc;strokeColor=#6c8ebf;fontSize=16;spacing=3;fontStyle=1" vertex="1" parent="1">
                    <mxGeometry x="89.99999999999997" y="600" width="80" height="40" as="geometry"/>
                </mxCell>
                <mxCell id="615" value="1" style="edgeStyle=orthogonalEdgeStyle;shape=connector;rounded=1;jumpStyle=arc;jumpSize=13;html=1;strokeColor=default;align=center;verticalAlign=middle;fontFamily=Helvetica;fontSize=16;fontColor=default;labelBackgroundColor=default;endArrow=none;endFill=0;spacing=3;fontStyle=1" edge="1" parent="1" source="616" target="614">
                    <mxGeometry relative="1" as="geometry"/>
                </mxCell>
                <mxCell id="616" value="Has" style="shape=rhombus;perimeter=rhombusPerimeter;whiteSpace=wrap;html=1;align=center;strokeColor=#d6b656;verticalAlign=middle;fontFamily=Helvetica;fontSize=16;fillColor=#fff2cc;spacing=3;fontStyle=1" vertex="1" parent="1">
                    <mxGeometry x="-20.090000000000032" y="600" width="80" height="40" as="geometry"/>
                </mxCell>
                <mxCell id="617" value="contact" style="whiteSpace=wrap;html=1;align=center;fillColor=#dae8fc;strokeColor=#6c8ebf;fontSize=16;spacing=3;fontStyle=1" vertex="1" parent="1">
                    <mxGeometry x="-652.5" y="820" width="80" height="40" as="geometry"/>
                </mxCell>
                <mxCell id="618" value="n" style="edgeStyle=orthogonalEdgeStyle;shape=connector;rounded=1;jumpStyle=arc;jumpSize=13;html=1;strokeColor=default;align=center;verticalAlign=middle;fontFamily=Helvetica;fontSize=16;fontColor=default;labelBackgroundColor=default;endArrow=none;endFill=0;spacing=3;fontStyle=1" edge="1" parent="1" source="619" target="617">
                    <mxGeometry relative="1" as="geometry">
                        <Array as="points">
                            <mxPoint x="-560" y="850"/>
                            <mxPoint x="-560" y="850"/>
                        </Array>
                    </mxGeometry>
                </mxCell>
                <mxCell id="619" value="Has" style="shape=rhombus;perimeter=rhombusPerimeter;whiteSpace=wrap;html=1;align=center;strokeColor=#d6b656;verticalAlign=middle;fontFamily=Helvetica;fontSize=16;fillColor=#fff2cc;spacing=3;fontStyle=1" vertex="1" parent="1">
                    <mxGeometry x="-514.97" y="830" width="80" height="40" as="geometry"/>
                </mxCell>
                <mxCell id="620" value="&lt;span&gt;id&lt;/span&gt;" style="ellipse;whiteSpace=wrap;html=1;align=center;fontStyle=5;fillColor=#d5e8d4;strokeColor=#82b366;fontSize=16;spacing=3;" vertex="1" parent="1">
                    <mxGeometry x="-840" y="240" width="100" height="40" as="geometry"/>
                </mxCell>
                <mxCell id="621" style="edgeStyle=orthogonalEdgeStyle;shape=connector;rounded=1;jumpStyle=arc;jumpSize=13;orthogonalLoop=1;jettySize=auto;html=1;strokeColor=default;align=center;verticalAlign=middle;fontFamily=Helvetica;fontSize=16;fontColor=default;labelBackgroundColor=default;endArrow=none;endFill=0;spacing=3;fontStyle=1" edge="1" parent="1" source="622" target="562">
                    <mxGeometry relative="1" as="geometry">
                        <Array as="points">
                            <mxPoint x="-730" y="370"/>
                            <mxPoint x="-730" y="310"/>
                            <mxPoint x="-690" y="310"/>
                        </Array>
                    </mxGeometry>
                </mxCell>
                <mxCell id="622" value="status" style="ellipse;whiteSpace=wrap;html=1;align=center;fontStyle=1;fontSize=16;spacing=3;" vertex="1" parent="1">
                    <mxGeometry x="-850" y="350" width="100" height="40" as="geometry"/>
                </mxCell>
                <mxCell id="623" value="end_date" style="ellipse;whiteSpace=wrap;html=1;align=center;fontStyle=1;fontSize=16;spacing=3;" vertex="1" parent="1">
                    <mxGeometry x="-800" y="140.2" width="100" height="40" as="geometry"/>
                </mxCell>
                <mxCell id="624" style="edgeStyle=orthogonalEdgeStyle;shape=connector;rounded=1;jumpStyle=arc;jumpSize=13;orthogonalLoop=1;jettySize=auto;html=1;strokeColor=default;align=center;verticalAlign=middle;fontFamily=Helvetica;fontSize=16;fontColor=default;labelBackgroundColor=default;endArrow=none;endFill=0;spacing=3;fontStyle=1" edge="1" parent="1" source="625">
                    <mxGeometry relative="1" as="geometry">
                        <mxPoint x="-630" y="260" as="targetPoint"/>
                    </mxGeometry>
                </mxCell>
                <mxCell id="625" value="description" style="ellipse;whiteSpace=wrap;html=1;align=center;fontStyle=1;fontSize=16;spacing=3;" vertex="1" parent="1">
                    <mxGeometry x="-650" y="170" width="100" height="40" as="geometry"/>
                </mxCell>
                <mxCell id="626" style="edgeStyle=orthogonalEdgeStyle;shape=connector;rounded=1;jumpStyle=arc;jumpSize=13;orthogonalLoop=1;jettySize=auto;html=1;strokeColor=default;align=center;verticalAlign=middle;fontFamily=Helvetica;fontSize=16;fontColor=default;labelBackgroundColor=default;endArrow=none;endFill=0;spacing=3;fontStyle=1" edge="1" parent="1" source="627" target="562">
                    <mxGeometry relative="1" as="geometry">
                        <Array as="points">
                            <mxPoint x="-610" y="240"/>
                            <mxPoint x="-610" y="270"/>
                        </Array>
                    </mxGeometry>
                </mxCell>
                <mxCell id="627" value="title" style="ellipse;whiteSpace=wrap;html=1;align=center;fontStyle=1;fontSize=16;spacing=3;" vertex="1" parent="1">
                    <mxGeometry x="-590" y="220.2" width="100" height="40" as="geometry"/>
                </mxCell>
                <mxCell id="628" value="update_at" style="ellipse;whiteSpace=wrap;html=1;align=center;fontStyle=1;fontSize=16;spacing=3;" vertex="1" parent="1">
                    <mxGeometry x="-672.5" y="325" width="100" height="40" as="geometry"/>
                </mxCell>
                <mxCell id="629" style="edgeStyle=orthogonalEdgeStyle;shape=connector;rounded=1;jumpStyle=arc;jumpSize=13;orthogonalLoop=1;jettySize=auto;html=1;entryX=0.5;entryY=1;entryDx=0;entryDy=0;strokeColor=default;align=center;verticalAlign=middle;fontFamily=Helvetica;fontSize=16;fontColor=default;labelBackgroundColor=default;endArrow=none;endFill=0;spacing=3;fontStyle=1" edge="1" parent="1" source="630" target="562">
                    <mxGeometry relative="1" as="geometry">
                        <Array as="points">
                            <mxPoint x="-560" y="310"/>
                            <mxPoint x="-660" y="310"/>
                        </Array>
                    </mxGeometry>
                </mxCell>
                <mxCell id="630" value="created_at" style="ellipse;whiteSpace=wrap;html=1;align=center;fontStyle=1;fontSize=16;spacing=3;" vertex="1" parent="1">
                    <mxGeometry x="-614.97" y="370" width="100" height="40" as="geometry"/>
                </mxCell>
                <mxCell id="631" style="edgeStyle=orthogonalEdgeStyle;shape=connector;rounded=1;jumpStyle=arc;jumpSize=13;orthogonalLoop=1;jettySize=auto;html=1;entryX=0.25;entryY=1;entryDx=0;entryDy=0;strokeColor=default;align=center;verticalAlign=middle;fontFamily=Helvetica;fontSize=16;fontColor=default;labelBackgroundColor=default;endArrow=none;endFill=0;spacing=3;fontStyle=1" edge="1" parent="1" source="632" target="562">
                    <mxGeometry relative="1" as="geometry"/>
                </mxCell>
                <mxCell id="632" value="country" style="ellipse;whiteSpace=wrap;html=1;align=center;fontStyle=1;fontSize=16;spacing=3;" vertex="1" parent="1">
                    <mxGeometry x="-740" y="365" width="100" height="40" as="geometry"/>
                </mxCell>
                <mxCell id="633" style="edgeStyle=orthogonalEdgeStyle;shape=connector;rounded=1;jumpStyle=arc;jumpSize=13;orthogonalLoop=1;jettySize=auto;html=1;strokeColor=default;align=center;verticalAlign=middle;fontFamily=Helvetica;fontSize=16;fontColor=default;labelBackgroundColor=default;endArrow=none;endFill=0;spacing=3;fontStyle=1" edge="1" parent="1" source="634" target="562">
                    <mxGeometry relative="1" as="geometry">
                        <Array as="points">
                            <mxPoint x="-500" y="290"/>
                        </Array>
                    </mxGeometry>
                </mxCell>
                <mxCell id="634" value="filename" style="ellipse;whiteSpace=wrap;html=1;align=center;fontStyle=1;fontSize=16;spacing=3;" vertex="1" parent="1">
                    <mxGeometry x="-550" y="320" width="100" height="40" as="geometry"/>
                </mxCell>
                <mxCell id="635" style="edgeStyle=orthogonalEdgeStyle;shape=connector;rounded=1;jumpStyle=arc;jumpSize=13;orthogonalLoop=1;jettySize=auto;html=1;strokeColor=default;align=center;verticalAlign=middle;fontFamily=Helvetica;fontSize=16;fontColor=default;labelBackgroundColor=default;endArrow=none;endFill=0;spacing=3;fontStyle=1" edge="1" parent="1" source="636" target="562">
                    <mxGeometry relative="1" as="geometry">
                        <Array as="points">
                            <mxPoint x="-720" y="290"/>
                            <mxPoint x="-720" y="290"/>
                        </Array>
                    </mxGeometry>
                </mxCell>
                <mxCell id="636" value="duration" style="ellipse;whiteSpace=wrap;html=1;align=center;fontStyle=1;fontSize=16;spacing=3;" vertex="1" parent="1">
                    <mxGeometry x="-844.97" y="290" width="100" height="40" as="geometry"/>
                </mxCell>
                <mxCell id="637" style="edgeStyle=orthogonalEdgeStyle;shape=connector;rounded=1;jumpStyle=arc;jumpSize=13;orthogonalLoop=1;jettySize=auto;html=1;entryX=0;entryY=0.25;entryDx=0;entryDy=0;strokeColor=default;align=center;verticalAlign=middle;fontFamily=Helvetica;fontSize=16;fontColor=default;labelBackgroundColor=default;endArrow=none;endFill=0;spacing=3;fontStyle=1" edge="1" parent="1" source="638" target="562">
                    <mxGeometry relative="1" as="geometry">
                        <Array as="points">
                            <mxPoint x="-710" y="210"/>
                            <mxPoint x="-710" y="270"/>
                        </Array>
                    </mxGeometry>
                </mxCell>
                <mxCell id="638" value="start_date" style="ellipse;whiteSpace=wrap;html=1;align=center;fontStyle=1;fontSize=16;spacing=3;" vertex="1" parent="1">
                    <mxGeometry x="-840" y="190.2" width="100" height="40" as="geometry"/>
                </mxCell>
                <mxCell id="639" style="edgeStyle=orthogonalEdgeStyle;shape=connector;rounded=1;jumpStyle=arc;jumpSize=13;orthogonalLoop=1;jettySize=auto;html=1;entryX=0.25;entryY=0;entryDx=0;entryDy=0;strokeColor=default;align=center;verticalAlign=middle;fontFamily=Helvetica;fontSize=16;fontColor=default;labelBackgroundColor=default;endArrow=none;endFill=0;spacing=3;fontStyle=1" edge="1" parent="1" source="640" target="562">
                    <mxGeometry relative="1" as="geometry">
                        <Array as="points">
                            <mxPoint x="-680" y="170"/>
                            <mxPoint x="-680" y="170"/>
                        </Array>
                    </mxGeometry>
                </mxCell>
                <mxCell id="640" value="type" style="ellipse;whiteSpace=wrap;html=1;align=center;fontStyle=1;fontSize=16;spacing=3;" vertex="1" parent="1">
                    <mxGeometry x="-730" y="100.2" width="100" height="40" as="geometry"/>
                </mxCell>
                <mxCell id="641" style="edgeStyle=orthogonalEdgeStyle;shape=connector;rounded=1;jumpStyle=arc;jumpSize=13;orthogonalLoop=1;jettySize=auto;html=1;strokeColor=default;align=center;verticalAlign=middle;fontFamily=Helvetica;fontSize=16;fontColor=default;labelBackgroundColor=default;endArrow=none;endFill=0;spacing=3;fontStyle=1" edge="1" parent="1" source="642" target="562">
                    <mxGeometry relative="1" as="geometry"/>
                </mxCell>
                <mxCell id="642" value="classification" style="ellipse;whiteSpace=wrap;html=1;align=center;fontStyle=1;fontSize=16;spacing=3;" vertex="1" parent="1">
                    <mxGeometry x="-614.97" y="130" width="100" height="40" as="geometry"/>
                </mxCell>
                <mxCell id="643" value="password" style="ellipse;whiteSpace=wrap;html=1;align=center;fontStyle=1;fontSize=16;spacing=3;" vertex="1" parent="1">
                    <mxGeometry x="-322.59" y="1410" width="100" height="40" as="geometry"/>
                </mxCell>
                <mxCell id="644" style="edgeStyle=orthogonalEdgeStyle;shape=connector;rounded=1;jumpStyle=arc;jumpSize=13;orthogonalLoop=1;jettySize=auto;html=1;strokeColor=default;align=center;verticalAlign=middle;fontFamily=Helvetica;fontSize=16;fontColor=default;labelBackgroundColor=default;endArrow=none;endFill=0;spacing=3;fontStyle=1" edge="1" parent="1" source="645" target="585">
                    <mxGeometry relative="1" as="geometry"/>
                </mxCell>
                <mxCell id="645" value="&lt;span&gt;id&lt;/span&gt;" style="ellipse;whiteSpace=wrap;html=1;align=center;fontStyle=5;fillColor=#d5e8d4;strokeColor=#82b366;fontSize=16;spacing=3;" vertex="1" parent="1">
                    <mxGeometry x="-297.47" y="1330" width="100" height="40" as="geometry"/>
                </mxCell>
                <mxCell id="646" style="edgeStyle=orthogonalEdgeStyle;shape=connector;rounded=1;jumpStyle=arc;jumpSize=13;orthogonalLoop=1;jettySize=auto;html=1;strokeColor=default;align=center;verticalAlign=middle;fontFamily=Helvetica;fontSize=16;fontColor=default;labelBackgroundColor=default;endArrow=none;endFill=0;spacing=3;fontStyle=1" edge="1" parent="1" source="647" target="589">
                    <mxGeometry relative="1" as="geometry"/>
                </mxCell>
                <mxCell id="647" value="phone" style="ellipse;whiteSpace=wrap;html=1;align=center;fontStyle=1;fontSize=16;spacing=3;" vertex="1" parent="1">
                    <mxGeometry x="-565.12" y="620" width="100" height="40" as="geometry"/>
                </mxCell>
                <mxCell id="648" style="edgeStyle=orthogonalEdgeStyle;shape=connector;rounded=1;jumpStyle=arc;jumpSize=13;orthogonalLoop=1;jettySize=auto;html=1;strokeColor=default;align=center;verticalAlign=middle;fontFamily=Helvetica;fontSize=16;fontColor=default;labelBackgroundColor=default;endArrow=none;endFill=0;spacing=3;fontStyle=1" edge="1" parent="1" source="649" target="589">
                    <mxGeometry relative="1" as="geometry">
                        <Array as="points">
                            <mxPoint x="-375.12" y="510"/>
                        </Array>
                    </mxGeometry>
                </mxCell>
                <mxCell id="649" value="name" style="ellipse;whiteSpace=wrap;html=1;align=center;fontStyle=1;fontSize=16;spacing=3;" vertex="1" parent="1">
                    <mxGeometry x="-365.21000000000004" y="490" width="100" height="40" as="geometry"/>
                </mxCell>
                <mxCell id="650" style="edgeStyle=orthogonalEdgeStyle;shape=connector;rounded=1;jumpStyle=arc;jumpSize=13;html=1;strokeColor=default;align=center;verticalAlign=middle;fontFamily=Helvetica;fontSize=16;fontColor=default;labelBackgroundColor=default;endArrow=none;endFill=0;spacing=3;fontStyle=1" edge="1" parent="1" source="651" target="585">
                    <mxGeometry relative="1" as="geometry">
                        <Array as="points">
                            <mxPoint x="-472" y="1400"/>
                        </Array>
                    </mxGeometry>
                </mxCell>
                <mxCell id="651" value="email" style="ellipse;whiteSpace=wrap;html=1;align=center;fontStyle=1;fontSize=16;spacing=3;" vertex="1" parent="1">
                    <mxGeometry x="-522.5" y="1450" width="100" height="40" as="geometry"/>
                </mxCell>
                <mxCell id="652" style="edgeStyle=orthogonalEdgeStyle;shape=connector;rounded=1;jumpStyle=arc;jumpSize=13;html=1;strokeColor=default;align=center;verticalAlign=middle;fontFamily=Helvetica;fontSize=16;fontColor=default;labelBackgroundColor=default;endArrow=none;endFill=0;spacing=3;fontStyle=1" edge="1" parent="1" source="653" target="585">
                    <mxGeometry relative="1" as="geometry">
                        <Array as="points">
                            <mxPoint x="-595" y="1390"/>
                        </Array>
                    </mxGeometry>
                </mxCell>
                <mxCell id="653" value="username" style="ellipse;whiteSpace=wrap;html=1;align=center;fontStyle=1;fontSize=16;spacing=3;" vertex="1" parent="1">
                    <mxGeometry x="-644.97" y="1460" width="100" height="40" as="geometry"/>
                </mxCell>
                <mxCell id="654" style="edgeStyle=orthogonalEdgeStyle;shape=connector;rounded=1;jumpStyle=arc;jumpSize=13;html=1;strokeColor=default;align=center;verticalAlign=middle;fontFamily=Helvetica;fontSize=16;fontColor=default;labelBackgroundColor=default;endArrow=none;endFill=0;spacing=3;fontStyle=1" edge="1" parent="1" source="655" target="585">
                    <mxGeometry relative="1" as="geometry">
                        <Array as="points">
                            <mxPoint x="-482.5" y="1350"/>
                            <mxPoint x="-422.5" y="1350"/>
                        </Array>
                    </mxGeometry>
                </mxCell>
                <mxCell id="655" value="role" style="ellipse;whiteSpace=wrap;html=1;align=center;fontStyle=1;fontSize=16;spacing=3;" vertex="1" parent="1">
                    <mxGeometry x="-552.5" y="1300" width="100" height="40" as="geometry"/>
                </mxCell>
                <mxCell id="656" style="edgeStyle=orthogonalEdgeStyle;shape=connector;rounded=1;jumpStyle=arc;jumpSize=13;html=1;strokeColor=default;align=center;verticalAlign=middle;fontFamily=Helvetica;fontSize=16;fontColor=default;labelBackgroundColor=default;endArrow=none;endFill=0;spacing=3;fontStyle=1" edge="1" parent="1" source="657" target="589">
                    <mxGeometry relative="1" as="geometry">
                        <Array as="points">
                            <mxPoint x="-365.12" y="570"/>
                        </Array>
                    </mxGeometry>
                </mxCell>
                <mxCell id="657" value="address" style="ellipse;whiteSpace=wrap;html=1;align=center;fontStyle=1;fontSize=16;spacing=3;" vertex="1" parent="1">
                    <mxGeometry x="-355.12" y="550" width="100" height="40" as="geometry"/>
                </mxCell>
                <mxCell id="658" style="edgeStyle=orthogonalEdgeStyle;shape=connector;rounded=1;jumpStyle=arc;jumpSize=13;html=1;strokeColor=default;align=center;verticalAlign=middle;fontFamily=Helvetica;fontSize=16;fontColor=default;labelBackgroundColor=default;endArrow=none;endFill=0;spacing=3;fontStyle=1" edge="1" parent="1" source="659" target="589">
                    <mxGeometry relative="1" as="geometry">
                        <Array as="points">
                            <mxPoint x="-415" y="600"/>
                            <mxPoint x="-400" y="600"/>
                        </Array>
                    </mxGeometry>
                </mxCell>
                <mxCell id="659" value="id_card" style="ellipse;whiteSpace=wrap;html=1;align=center;fontStyle=1;fontSize=16;spacing=3;" vertex="1" parent="1">
                    <mxGeometry x="-465.12" y="460" width="100" height="40" as="geometry"/>
                </mxCell>
                <mxCell id="660" style="edgeStyle=orthogonalEdgeStyle;shape=connector;rounded=1;jumpStyle=arc;jumpSize=13;orthogonalLoop=1;jettySize=auto;html=1;strokeColor=default;align=center;verticalAlign=middle;fontFamily=Helvetica;fontSize=16;fontColor=default;labelBackgroundColor=default;endArrow=none;endFill=0;spacing=3;fontStyle=1" edge="1" parent="1" source="661" target="589">
                    <mxGeometry relative="1" as="geometry">
                        <Array as="points">
                            <mxPoint x="-483.12" y="605"/>
                            <mxPoint x="-415.12" y="605"/>
                        </Array>
                    </mxGeometry>
                </mxCell>
                <mxCell id="661" value="point" style="ellipse;whiteSpace=wrap;html=1;align=center;fontStyle=1;fontSize=16;spacing=3;" vertex="1" parent="1">
                    <mxGeometry x="-532.59" y="540" width="100" height="40" as="geometry"/>
                </mxCell>
                <mxCell id="662" value="creeated_at" style="ellipse;whiteSpace=wrap;html=1;align=center;fontStyle=1;fontSize=16;spacing=3;" vertex="1" parent="1">
                    <mxGeometry x="-357.47" y="1290" width="100" height="40" as="geometry"/>
                </mxCell>
                <mxCell id="663" value="user_token" style="whiteSpace=wrap;html=1;align=center;fillColor=#dae8fc;strokeColor=#6c8ebf;fontSize=16;spacing=3;fontStyle=1" vertex="1" parent="1">
                    <mxGeometry x="-695" y="1160" width="80" height="40" as="geometry"/>
                </mxCell>
                <mxCell id="664" value="n" style="edgeStyle=orthogonalEdgeStyle;shape=connector;rounded=1;jumpStyle=arc;jumpSize=13;html=1;strokeColor=default;align=center;verticalAlign=middle;fontFamily=Helvetica;fontSize=16;fontColor=default;labelBackgroundColor=default;endArrow=none;endFill=0;spacing=3;fontStyle=1" edge="1" parent="1" source="665" target="663">
                    <mxGeometry relative="1" as="geometry"/>
                </mxCell>
                <mxCell id="665" value="Has" style="shape=rhombus;perimeter=rhombusPerimeter;whiteSpace=wrap;html=1;align=center;strokeColor=#d6b656;verticalAlign=middle;fontFamily=Helvetica;fontSize=16;fillColor=#fff2cc;spacing=3;fontStyle=1" vertex="1" parent="1">
                    <mxGeometry x="-694.97" y="1260" width="80" height="40" as="geometry"/>
                </mxCell>
                <mxCell id="666" style="edgeStyle=orthogonalEdgeStyle;shape=connector;rounded=1;jumpStyle=arc;jumpSize=13;orthogonalLoop=1;jettySize=auto;html=1;strokeColor=default;align=center;verticalAlign=middle;fontFamily=Helvetica;fontSize=16;fontColor=default;labelBackgroundColor=default;endArrow=none;endFill=0;spacing=3;fontStyle=1" edge="1" parent="1" source="667" target="663">
                    <mxGeometry relative="1" as="geometry"/>
                </mxCell>
                <mxCell id="667" value="&lt;span&gt;id&lt;/span&gt;" style="ellipse;whiteSpace=wrap;html=1;align=center;fontStyle=5;fillColor=#d5e8d4;strokeColor=#82b366;fontSize=16;spacing=3;" vertex="1" parent="1">
                    <mxGeometry x="-830" y="1160" width="100" height="40" as="geometry"/>
                </mxCell>
                <mxCell id="668" style="edgeStyle=orthogonalEdgeStyle;shape=connector;rounded=1;jumpStyle=arc;jumpSize=13;orthogonalLoop=1;jettySize=auto;html=1;strokeColor=default;align=center;verticalAlign=middle;fontFamily=Helvetica;fontSize=16;fontColor=default;labelBackgroundColor=default;endArrow=none;endFill=0;spacing=3;fontStyle=1" edge="1" parent="1" source="669" target="663">
                    <mxGeometry relative="1" as="geometry">
                        <Array as="points">
                            <mxPoint x="-635" y="1230"/>
                        </Array>
                    </mxGeometry>
                </mxCell>
                <mxCell id="669" value="selector" style="ellipse;whiteSpace=wrap;html=1;align=center;fontStyle=1;fontSize=16;spacing=3;" vertex="1" parent="1">
                    <mxGeometry x="-615" y="1210" width="100" height="40" as="geometry"/>
                </mxCell>
                <mxCell id="670" style="edgeStyle=orthogonalEdgeStyle;shape=connector;rounded=1;jumpStyle=arc;jumpSize=13;orthogonalLoop=1;jettySize=auto;html=1;strokeColor=default;align=center;verticalAlign=middle;fontFamily=Helvetica;fontSize=16;fontColor=default;labelBackgroundColor=default;endArrow=none;endFill=0;spacing=3;fontStyle=1" edge="1" parent="1" source="671" target="663">
                    <mxGeometry relative="1" as="geometry"/>
                </mxCell>
                <mxCell id="671" value="type" style="ellipse;whiteSpace=wrap;html=1;align=center;fontStyle=1;fontSize=16;spacing=3;" vertex="1" parent="1">
                    <mxGeometry x="-575" y="1160" width="100" height="40" as="geometry"/>
                </mxCell>
                <mxCell id="672" style="edgeStyle=orthogonalEdgeStyle;shape=connector;rounded=1;jumpStyle=arc;jumpSize=13;orthogonalLoop=1;jettySize=auto;html=1;strokeColor=default;align=center;verticalAlign=middle;fontFamily=Helvetica;fontSize=16;fontColor=default;labelBackgroundColor=default;endArrow=none;endFill=0;spacing=3;fontStyle=1" edge="1" parent="1" source="673" target="663">
                    <mxGeometry relative="1" as="geometry">
                        <Array as="points">
                            <mxPoint x="-575" y="1160"/>
                            <mxPoint x="-595" y="1160"/>
                            <mxPoint x="-595" y="1170"/>
                        </Array>
                    </mxGeometry>
                </mxCell>
                <mxCell id="673" value="hashed_valitdator" style="ellipse;whiteSpace=wrap;html=1;align=center;fontStyle=1;fontSize=16;spacing=3;" vertex="1" parent="1">
                    <mxGeometry x="-625" y="1090" width="145" height="50" as="geometry"/>
                </mxCell>
                <mxCell id="674" value="expires_at" style="ellipse;whiteSpace=wrap;html=1;align=center;fontStyle=1;fontSize=16;spacing=3;" vertex="1" parent="1">
                    <mxGeometry x="-744.97" y="1090" width="100" height="40" as="geometry"/>
                </mxCell>
                <mxCell id="675" style="edgeStyle=orthogonalEdgeStyle;shape=connector;rounded=1;jumpStyle=arc;jumpSize=13;orthogonalLoop=1;jettySize=auto;html=1;entryX=0.75;entryY=0;entryDx=0;entryDy=0;strokeColor=default;align=center;verticalAlign=middle;fontFamily=Helvetica;fontSize=16;fontColor=default;labelBackgroundColor=default;endArrow=none;endFill=0;spacing=3;fontStyle=1" edge="1" parent="1" source="676" target="663">
                    <mxGeometry relative="1" as="geometry"/>
                </mxCell>
                <mxCell id="676" value="created_at" style="ellipse;whiteSpace=wrap;html=1;align=center;fontStyle=1;fontSize=16;spacing=3;" vertex="1" parent="1">
                    <mxGeometry x="-685" y="1020" width="100" height="40" as="geometry"/>
                </mxCell>
                <mxCell id="677" value="&lt;span&gt;id&lt;/span&gt;" style="ellipse;whiteSpace=wrap;html=1;align=center;fontStyle=5;fillColor=#d5e8d4;strokeColor=#82b366;fontSize=16;spacing=3;" vertex="1" parent="1">
                    <mxGeometry x="205.02999999999997" y="940" width="100" height="40" as="geometry"/>
                </mxCell>
                <mxCell id="678" style="edgeStyle=orthogonalEdgeStyle;shape=connector;rounded=1;jumpStyle=arc;jumpSize=13;orthogonalLoop=1;jettySize=auto;html=1;strokeColor=default;align=center;verticalAlign=middle;fontFamily=Helvetica;fontSize=16;fontColor=default;labelBackgroundColor=default;endArrow=none;endFill=0;spacing=3;fontStyle=1" edge="1" parent="1" source="679" target="564">
                    <mxGeometry relative="1" as="geometry"/>
                </mxCell>
                <mxCell id="679" value="open_time" style="ellipse;whiteSpace=wrap;html=1;align=center;fontStyle=1;fontSize=16;spacing=3;" vertex="1" parent="1">
                    <mxGeometry x="35.02999999999997" y="1050" width="90" height="40" as="geometry"/>
                </mxCell>
                <mxCell id="680" style="edgeStyle=orthogonalEdgeStyle;shape=connector;rounded=1;jumpStyle=arc;jumpSize=13;orthogonalLoop=1;jettySize=auto;html=1;strokeColor=default;align=center;verticalAlign=middle;fontFamily=Helvetica;fontSize=16;fontColor=default;labelBackgroundColor=default;endArrow=none;endFill=0;spacing=3;fontStyle=1" edge="1" parent="1" source="681" target="564">
                    <mxGeometry relative="1" as="geometry">
                        <Array as="points">
                            <mxPoint x="105.02999999999997" y="1013"/>
                            <mxPoint x="175.02999999999997" y="1013"/>
                        </Array>
                    </mxGeometry>
                </mxCell>
                <mxCell id="681" value="close_time" style="ellipse;whiteSpace=wrap;html=1;align=center;fontStyle=1;fontSize=16;spacing=3;" vertex="1" parent="1">
                    <mxGeometry x="55.02999999999997" y="950" width="100" height="40" as="geometry"/>
                </mxCell>
                <mxCell id="682" style="edgeStyle=orthogonalEdgeStyle;shape=connector;rounded=1;jumpStyle=arc;jumpSize=13;orthogonalLoop=1;jettySize=auto;html=1;strokeColor=default;align=center;verticalAlign=middle;fontFamily=Helvetica;fontSize=16;fontColor=default;labelBackgroundColor=default;endArrow=none;endFill=0;spacing=3;fontStyle=1" edge="1" parent="1" source="683" target="564">
                    <mxGeometry relative="1" as="geometry"/>
                </mxCell>
                <mxCell id="683" value="location" style="ellipse;whiteSpace=wrap;html=1;align=center;fontStyle=1;fontSize=16;spacing=3;" vertex="1" parent="1">
                    <mxGeometry x="195" y="1100" width="100" height="40" as="geometry"/>
                </mxCell>
                <mxCell id="684" style="edgeStyle=orthogonalEdgeStyle;shape=connector;rounded=1;jumpStyle=arc;jumpSize=13;orthogonalLoop=1;jettySize=auto;html=1;strokeColor=default;align=center;verticalAlign=middle;fontFamily=Helvetica;fontSize=16;fontColor=default;labelBackgroundColor=default;endArrow=none;endFill=0;spacing=3;fontStyle=1" edge="1" parent="1" source="685" target="564">
                    <mxGeometry relative="1" as="geometry">
                        <Array as="points">
                            <mxPoint x="145.02999999999997" y="1098"/>
                            <mxPoint x="185.02999999999997" y="1098"/>
                        </Array>
                    </mxGeometry>
                </mxCell>
                <mxCell id="685" value="name" style="ellipse;whiteSpace=wrap;html=1;align=center;fontStyle=1;fontSize=16;spacing=3;" vertex="1" parent="1">
                    <mxGeometry x="95" y="1120" width="100" height="40" as="geometry"/>
                </mxCell>
                <mxCell id="686" value="&lt;span&gt;id&lt;/span&gt;" style="ellipse;whiteSpace=wrap;html=1;align=center;fontStyle=5;fillColor=#d5e8d4;strokeColor=#82b366;fontSize=16;spacing=3;" vertex="1" parent="1">
                    <mxGeometry x="-175.04" y="-40" width="100" height="40" as="geometry"/>
                </mxCell>
                <mxCell id="687" value="name" style="ellipse;whiteSpace=wrap;html=1;align=center;fontStyle=1;fontSize=16;spacing=3;" vertex="1" parent="1">
                    <mxGeometry x="-69.99999999999999" y="-30.00000000000001" width="100" height="40" as="geometry"/>
                </mxCell>
                <mxCell id="688" style="edgeStyle=orthogonalEdgeStyle;shape=connector;rounded=1;jumpStyle=arc;jumpSize=13;orthogonalLoop=1;jettySize=auto;html=1;strokeColor=default;align=center;verticalAlign=middle;fontFamily=Helvetica;fontSize=16;fontColor=default;labelBackgroundColor=default;endArrow=none;endFill=0;spacing=3;fontStyle=1" edge="1" parent="1" source="689" target="580">
                    <mxGeometry relative="1" as="geometry">
                        <Array as="points">
                            <mxPoint x="230" y="320"/>
                        </Array>
                    </mxGeometry>
                </mxCell>
                <mxCell id="689" value="&lt;span&gt;id&lt;/span&gt;" style="ellipse;whiteSpace=wrap;html=1;align=center;fontStyle=5;fillColor=#d5e8d4;strokeColor=#82b366;fontSize=16;spacing=3;" vertex="1" parent="1">
                    <mxGeometry x="300" y="300.2" width="100" height="40" as="geometry"/>
                </mxCell>
                <mxCell id="690" value="type" style="ellipse;whiteSpace=wrap;html=1;align=center;fontStyle=1;fontSize=16;spacing=3;" vertex="1" parent="1">
                    <mxGeometry x="200" y="220.2" width="100" height="40" as="geometry"/>
                </mxCell>
                <mxCell id="691" style="edgeStyle=orthogonalEdgeStyle;shape=connector;rounded=1;jumpStyle=arc;jumpSize=13;orthogonalLoop=1;jettySize=auto;html=1;strokeColor=default;align=center;verticalAlign=middle;fontFamily=Helvetica;fontSize=16;fontColor=default;labelBackgroundColor=default;endArrow=none;endFill=0;spacing=3;fontStyle=1" edge="1" parent="1" source="692" target="580">
                    <mxGeometry relative="1" as="geometry"/>
                </mxCell>
                <mxCell id="692" value="col" style="ellipse;whiteSpace=wrap;html=1;align=center;fontStyle=1;fontSize=16;spacing=3;" vertex="1" parent="1">
                    <mxGeometry x="50" y="420" width="100" height="40" as="geometry"/>
                </mxCell>
                <mxCell id="693" value="code" style="ellipse;whiteSpace=wrap;html=1;align=center;fontStyle=1;fontSize=16;spacing=3;" vertex="1" parent="1">
                    <mxGeometry x="200" y="440" width="100" height="40" as="geometry"/>
                </mxCell>
                <mxCell id="694" style="edgeStyle=orthogonalEdgeStyle;shape=connector;rounded=1;jumpStyle=arc;jumpSize=13;orthogonalLoop=1;jettySize=auto;html=1;strokeColor=default;align=center;verticalAlign=middle;fontFamily=Helvetica;fontSize=16;fontColor=default;labelBackgroundColor=default;endArrow=none;endFill=0;spacing=3;fontStyle=1" edge="1" parent="1" source="695" target="580">
                    <mxGeometry relative="1" as="geometry"/>
                </mxCell>
                <mxCell id="695" value="price" style="ellipse;whiteSpace=wrap;html=1;align=center;fontStyle=1;fontSize=16;spacing=3;" vertex="1" parent="1">
                    <mxGeometry x="280" y="370" width="100" height="40" as="geometry"/>
                </mxCell>
                <mxCell id="696" style="edgeStyle=orthogonalEdgeStyle;shape=connector;rounded=1;jumpStyle=arc;jumpSize=13;html=1;entryX=0.25;entryY=0;entryDx=0;entryDy=0;strokeColor=default;align=center;verticalAlign=middle;fontFamily=Helvetica;fontSize=16;fontColor=default;labelBackgroundColor=default;endArrow=none;endFill=0;spacing=3;fontStyle=1" edge="1" parent="1" source="697" target="574">
                    <mxGeometry relative="1" as="geometry"/>
                </mxCell>
                <mxCell id="697" value="&lt;span&gt;id&lt;/span&gt;" style="ellipse;whiteSpace=wrap;html=1;align=center;fontStyle=5;fillColor=#d5e8d4;strokeColor=#82b366;fontSize=16;spacing=3;" vertex="1" parent="1">
                    <mxGeometry x="-480" y="79.99999999999999" width="100" height="40" as="geometry"/>
                </mxCell>
                <mxCell id="698" value="end_time" style="ellipse;whiteSpace=wrap;html=1;align=center;fontStyle=1;fontSize=16;spacing=3;" vertex="1" parent="1">
                    <mxGeometry x="-290" width="100" height="40" as="geometry"/>
                </mxCell>
                <mxCell id="699" style="edgeStyle=orthogonalEdgeStyle;shape=connector;rounded=1;jumpStyle=arc;jumpSize=13;orthogonalLoop=1;jettySize=auto;html=1;strokeColor=default;align=center;verticalAlign=middle;fontFamily=Helvetica;fontSize=16;fontColor=default;labelBackgroundColor=default;endArrow=none;endFill=0;spacing=3;fontStyle=1" edge="1" parent="1" source="700" target="574">
                    <mxGeometry relative="1" as="geometry">
                        <Array as="points">
                            <mxPoint x="-330" y="120"/>
                        </Array>
                    </mxGeometry>
                </mxCell>
                <mxCell id="700" value="start_time" style="ellipse;whiteSpace=wrap;html=1;align=center;fontStyle=1;fontSize=16;spacing=3;" vertex="1" parent="1">
                    <mxGeometry x="-350" y="60.2" width="100" height="40" as="geometry"/>
                </mxCell>
                <mxCell id="701" style="edgeStyle=orthogonalEdgeStyle;shape=connector;rounded=1;jumpStyle=arc;jumpSize=13;orthogonalLoop=1;jettySize=auto;html=1;strokeColor=default;align=center;verticalAlign=middle;fontFamily=Helvetica;fontSize=16;fontColor=default;labelBackgroundColor=default;endArrow=none;endFill=0;spacing=3;fontStyle=1" edge="1" parent="1" source="702" target="574">
                    <mxGeometry relative="1" as="geometry">
                        <Array as="points">
                            <mxPoint x="-350" y="50"/>
                        </Array>
                    </mxGeometry>
                </mxCell>
                <mxCell id="702" value="date" style="ellipse;whiteSpace=wrap;html=1;align=center;fontStyle=1;fontSize=16;spacing=3;" vertex="1" parent="1">
                    <mxGeometry x="-500" y="30" width="100" height="40" as="geometry"/>
                </mxCell>
                <mxCell id="703" style="edgeStyle=orthogonalEdgeStyle;shape=connector;rounded=1;jumpStyle=arc;jumpSize=13;orthogonalLoop=1;jettySize=auto;html=1;strokeColor=default;align=center;verticalAlign=middle;fontFamily=Helvetica;fontSize=16;fontColor=default;labelBackgroundColor=default;endArrow=none;endFill=0;spacing=3;fontStyle=1" edge="1" parent="1" source="704" target="617">
                    <mxGeometry relative="1" as="geometry">
                        <Array as="points">
                            <mxPoint x="-680" y="840"/>
                        </Array>
                    </mxGeometry>
                </mxCell>
                <mxCell id="704" value="&lt;span&gt;id&lt;/span&gt;" style="ellipse;whiteSpace=wrap;html=1;align=center;fontStyle=5;fillColor=#d5e8d4;strokeColor=#82b366;fontSize=16;spacing=3;" vertex="1" parent="1">
                    <mxGeometry x="-800" y="870" width="100" height="40" as="geometry"/>
                </mxCell>
                <mxCell id="705" style="edgeStyle=orthogonalEdgeStyle;shape=connector;rounded=1;jumpStyle=arc;jumpSize=13;orthogonalLoop=1;jettySize=auto;html=1;entryX=0.5;entryY=0;entryDx=0;entryDy=0;strokeColor=default;align=center;verticalAlign=middle;fontFamily=Helvetica;fontSize=16;fontColor=default;labelBackgroundColor=default;endArrow=none;endFill=0;spacing=3;fontStyle=1" edge="1" parent="1" source="706" target="617">
                    <mxGeometry relative="1" as="geometry">
                        <Array as="points">
                            <mxPoint x="-790" y="760"/>
                            <mxPoint x="-790" y="780"/>
                            <mxPoint x="-613" y="780"/>
                        </Array>
                    </mxGeometry>
                </mxCell>
                <mxCell id="706" value="subject" style="ellipse;whiteSpace=wrap;html=1;align=center;fontStyle=1;fontSize=16;spacing=3;" vertex="1" parent="1">
                    <mxGeometry x="-800" y="760" width="100" height="40" as="geometry"/>
                </mxCell>
                <mxCell id="707" value="phone" style="ellipse;whiteSpace=wrap;html=1;align=center;fontStyle=1;fontSize=16;spacing=3;" vertex="1" parent="1">
                    <mxGeometry x="-810" y="810" width="100" height="40" as="geometry"/>
                </mxCell>
                <mxCell id="708" style="edgeStyle=orthogonalEdgeStyle;shape=connector;rounded=1;jumpStyle=arc;jumpSize=13;orthogonalLoop=1;jettySize=auto;html=1;strokeColor=default;align=center;verticalAlign=middle;fontFamily=Helvetica;fontSize=16;fontColor=default;labelBackgroundColor=default;endArrow=none;endFill=0;spacing=3;fontStyle=1" edge="1" parent="1" source="709" target="617">
                    <mxGeometry relative="1" as="geometry"/>
                </mxCell>
                <mxCell id="709" value="email" style="ellipse;whiteSpace=wrap;html=1;align=center;fontStyle=1;fontSize=16;spacing=3;" vertex="1" parent="1">
                    <mxGeometry x="-690" y="930" width="100" height="40" as="geometry"/>
                </mxCell>
                <mxCell id="710" style="edgeStyle=orthogonalEdgeStyle;shape=connector;rounded=1;jumpStyle=arc;jumpSize=13;orthogonalLoop=1;jettySize=auto;html=1;entryX=0.75;entryY=0;entryDx=0;entryDy=0;strokeColor=default;align=center;verticalAlign=middle;fontFamily=Helvetica;fontSize=16;fontColor=default;labelBackgroundColor=default;endArrow=none;endFill=0;spacing=3;fontStyle=1" edge="1" parent="1" source="711" target="617">
                    <mxGeometry relative="1" as="geometry">
                        <Array as="points">
                            <mxPoint x="-592" y="760"/>
                        </Array>
                    </mxGeometry>
                </mxCell>
                <mxCell id="711" value="name" style="ellipse;whiteSpace=wrap;html=1;align=center;fontStyle=1;fontSize=16;spacing=3;" vertex="1" parent="1">
                    <mxGeometry x="-700" y="580" width="100" height="40" as="geometry"/>
                </mxCell>
                <mxCell id="712" value="message" style="ellipse;whiteSpace=wrap;html=1;align=center;fontStyle=1;fontSize=16;spacing=3;" vertex="1" parent="1">
                    <mxGeometry x="-820" y="690" width="100" height="40" as="geometry"/>
                </mxCell>
                <mxCell id="713" style="edgeStyle=orthogonalEdgeStyle;shape=connector;rounded=1;jumpStyle=arc;jumpSize=13;orthogonalLoop=1;jettySize=auto;html=1;strokeColor=default;align=center;verticalAlign=middle;fontFamily=Helvetica;fontSize=16;fontColor=default;labelBackgroundColor=default;endArrow=none;endFill=0;spacing=3;fontStyle=1" edge="1" parent="1" source="714" target="617">
                    <mxGeometry relative="1" as="geometry">
                        <Array as="points">
                            <mxPoint x="-550" y="775"/>
                            <mxPoint x="-550" y="840"/>
                        </Array>
                    </mxGeometry>
                </mxCell>
                <mxCell id="714" value="status" style="ellipse;whiteSpace=wrap;html=1;align=center;fontStyle=1;fontSize=16;spacing=3;" vertex="1" parent="1">
                    <mxGeometry x="-520" y="750" width="100" height="40" as="geometry"/>
                </mxCell>
                <mxCell id="715" style="edgeStyle=orthogonalEdgeStyle;shape=connector;rounded=1;jumpStyle=arc;jumpSize=13;orthogonalLoop=1;jettySize=auto;html=1;strokeColor=default;align=center;verticalAlign=middle;fontFamily=Helvetica;fontSize=16;fontColor=default;labelBackgroundColor=default;endArrow=none;endFill=0;spacing=3;fontStyle=1" edge="1" parent="1" source="716" target="617">
                    <mxGeometry relative="1" as="geometry">
                        <Array as="points">
                            <mxPoint x="-630" y="730"/>
                        </Array>
                    </mxGeometry>
                </mxCell>
                <mxCell id="716" value="send_at" style="ellipse;whiteSpace=wrap;html=1;align=center;fontStyle=1;fontSize=16;spacing=3;" vertex="1" parent="1">
                    <mxGeometry x="-630" y="710" width="100" height="40" as="geometry"/>
                </mxCell>
                <mxCell id="717" value="&lt;span&gt;id&lt;/span&gt;" style="ellipse;whiteSpace=wrap;html=1;align=center;fontStyle=5;fillColor=#d5e8d4;strokeColor=#82b366;fontSize=16;spacing=3;" vertex="1" parent="1">
                    <mxGeometry x="-170.00000000000003" y="1250" width="100" height="40" as="geometry"/>
                </mxCell>
                <mxCell id="718" style="edgeStyle=orthogonalEdgeStyle;shape=connector;rounded=1;jumpStyle=arc;jumpSize=13;orthogonalLoop=1;jettySize=auto;html=1;entryX=0.75;entryY=0;entryDx=0;entryDy=0;strokeColor=default;align=center;verticalAlign=middle;fontFamily=Helvetica;fontSize=16;fontColor=default;labelBackgroundColor=default;endArrow=none;endFill=0;spacing=3;fontStyle=1" edge="1" parent="1" source="719" target="609">
                    <mxGeometry relative="1" as="geometry"/>
                </mxCell>
                <mxCell id="719" value="created_at" style="ellipse;whiteSpace=wrap;html=1;align=center;fontStyle=1;fontSize=16;spacing=3;" vertex="1" parent="1">
                    <mxGeometry x="-122.59000000000003" y="1140" width="100" height="40" as="geometry"/>
                </mxCell>
                <mxCell id="720" style="edgeStyle=orthogonalEdgeStyle;shape=connector;rounded=1;jumpStyle=arc;jumpSize=13;orthogonalLoop=1;jettySize=auto;html=1;entryX=0.25;entryY=0;entryDx=0;entryDy=0;strokeColor=default;align=center;verticalAlign=middle;fontFamily=Helvetica;fontSize=16;fontColor=default;labelBackgroundColor=default;endArrow=none;endFill=0;spacing=3;fontStyle=1" edge="1" parent="1" source="721" target="609">
                    <mxGeometry relative="1" as="geometry">
                        <Array as="points">
                            <mxPoint x="-230" y="1130"/>
                            <mxPoint x="-230" y="1190"/>
                        </Array>
                    </mxGeometry>
                </mxCell>
                <mxCell id="721" value="status" style="ellipse;whiteSpace=wrap;html=1;align=center;fontStyle=1;fontSize=16;spacing=3;" vertex="1" parent="1">
                    <mxGeometry x="-222.59" y="1110" width="100" height="40" as="geometry"/>
                </mxCell>
                <mxCell id="722" style="edgeStyle=orthogonalEdgeStyle;shape=connector;rounded=1;jumpStyle=arc;jumpSize=13;orthogonalLoop=1;jettySize=auto;html=1;strokeColor=default;align=center;verticalAlign=middle;fontFamily=Helvetica;fontSize=16;fontColor=default;labelBackgroundColor=default;endArrow=none;endFill=0;spacing=3;fontStyle=1" edge="1" parent="1" source="723" target="609">
                    <mxGeometry relative="1" as="geometry"/>
                </mxCell>
                <mxCell id="723" value="total_price" style="ellipse;whiteSpace=wrap;html=1;align=center;fontStyle=1;fontSize=16;spacing=3;" vertex="1" parent="1">
                    <mxGeometry x="-100" y="1190" width="100" height="40" as="geometry"/>
                </mxCell>
                <mxCell id="724" value="&lt;span&gt;id&lt;/span&gt;" style="ellipse;whiteSpace=wrap;html=1;align=center;fontStyle=5;fillColor=#d5e8d4;strokeColor=#82b366;fontSize=16;spacing=3;" vertex="1" parent="1">
                    <mxGeometry x="79.99999999999997" y="530" width="100" height="40" as="geometry"/>
                </mxCell>
                <mxCell id="725" style="edgeStyle=orthogonalEdgeStyle;shape=connector;rounded=1;jumpStyle=arc;jumpSize=13;orthogonalLoop=1;jettySize=auto;html=1;strokeColor=default;align=center;verticalAlign=middle;fontFamily=Helvetica;fontSize=16;fontColor=default;labelBackgroundColor=default;endArrow=none;endFill=0;spacing=3;fontStyle=1" edge="1" parent="1" source="726" target="614">
                    <mxGeometry relative="1" as="geometry">
                        <Array as="points">
                            <mxPoint x="200" y="700"/>
                            <mxPoint x="200" y="650"/>
                            <mxPoint x="150" y="650"/>
                        </Array>
                    </mxGeometry>
                </mxCell>
                <mxCell id="726" value="status" style="ellipse;whiteSpace=wrap;html=1;align=center;fontStyle=1;fontSize=16;spacing=3;" vertex="1" parent="1">
                    <mxGeometry x="245" y="680" width="100" height="40" as="geometry"/>
                </mxCell>
                <mxCell id="727" style="edgeStyle=orthogonalEdgeStyle;shape=connector;rounded=1;jumpStyle=arc;jumpSize=13;orthogonalLoop=1;jettySize=auto;html=1;strokeColor=default;align=center;verticalAlign=middle;fontFamily=Helvetica;fontSize=16;fontColor=default;labelBackgroundColor=default;endArrow=none;endFill=0;spacing=3;fontStyle=1" edge="1" parent="1" source="728" target="614">
                    <mxGeometry relative="1" as="geometry">
                        <Array as="points">
                            <mxPoint x="190" y="640"/>
                            <mxPoint x="190" y="630"/>
                        </Array>
                    </mxGeometry>
                </mxCell>
                <mxCell id="728" value="price" style="ellipse;whiteSpace=wrap;html=1;align=center;fontStyle=1;fontSize=16;spacing=3;" vertex="1" parent="1">
                    <mxGeometry x="210.02999999999997" y="620" width="100" height="40" as="geometry"/>
                </mxCell>
                <mxCell id="729" style="edgeStyle=orthogonalEdgeStyle;shape=connector;rounded=1;jumpStyle=arc;jumpSize=13;orthogonalLoop=1;jettySize=auto;html=1;strokeColor=default;align=center;verticalAlign=middle;fontFamily=Helvetica;fontSize=16;fontColor=default;labelBackgroundColor=default;endArrow=none;endFill=0;spacing=3;fontStyle=1" edge="1" parent="1" source="730" target="614">
                    <mxGeometry relative="1" as="geometry">
                        <Array as="points">
                            <mxPoint x="190" y="660"/>
                            <mxPoint x="140" y="660"/>
                        </Array>
                    </mxGeometry>
                </mxCell>
                <mxCell id="730" value="type" style="ellipse;whiteSpace=wrap;html=1;align=center;fontStyle=1;fontSize=16;spacing=3;" vertex="1" parent="1">
                    <mxGeometry x="140" y="730" width="100" height="40" as="geometry"/>
                </mxCell>
                <mxCell id="731" value="name" style="ellipse;whiteSpace=wrap;html=1;align=center;fontStyle=1;fontSize=16;spacing=3;" vertex="1" parent="1">
                    <mxGeometry x="190" y="560" width="100" height="40" as="geometry"/>
                </mxCell>
                <mxCell id="732" value="time" style="ellipse;whiteSpace=wrap;html=1;align=center;fontStyle=1;fontSize=16;spacing=3;" vertex="1" parent="1">
                    <mxGeometry x="-360.09" y="380" width="100" height="40" as="geometry"/>
                </mxCell>
                <mxCell id="733" style="edgeStyle=orthogonalEdgeStyle;shape=connector;rounded=1;jumpStyle=arc;jumpSize=13;orthogonalLoop=1;jettySize=auto;html=1;strokeColor=default;align=center;verticalAlign=middle;fontFamily=Helvetica;fontSize=16;fontColor=default;labelBackgroundColor=default;endArrow=none;endFill=0;spacing=3;fontStyle=1" edge="1" parent="1" source="734" target="754">
                    <mxGeometry relative="1" as="geometry">
                        <Array as="points">
                            <mxPoint x="-100" y="510"/>
                            <mxPoint x="-50" y="510"/>
                        </Array>
                    </mxGeometry>
                </mxCell>
                <mxCell id="734" value="quantity" style="ellipse;whiteSpace=wrap;html=1;align=center;fontStyle=1;fontSize=16;spacing=3;" vertex="1" parent="1">
                    <mxGeometry x="-140.09" y="430" width="100" height="40" as="geometry"/>
                </mxCell>
                <mxCell id="735" value="status" style="ellipse;whiteSpace=wrap;html=1;align=center;fontStyle=1;fontSize=16;spacing=3;" vertex="1" parent="1">
                    <mxGeometry x="-330.09" y="290" width="100" height="40" as="geometry"/>
                </mxCell>
                <mxCell id="736" value="&lt;span&gt;id&lt;/span&gt;" style="ellipse;whiteSpace=wrap;html=1;align=center;fontStyle=5;fillColor=#d5e8d4;strokeColor=#82b366;fontSize=16;spacing=3;" vertex="1" parent="1">
                    <mxGeometry x="-450" y="320" width="100" height="40" as="geometry"/>
                </mxCell>
                <mxCell id="737" value="&lt;span&gt;order_code&lt;/span&gt;" style="ellipse;whiteSpace=wrap;html=1;align=center;fontStyle=5;fillColor=#d5e8d4;strokeColor=#82b366;fontSize=16;spacing=3;" vertex="1" parent="1">
                    <mxGeometry x="-180.00000000000003" y="920" width="100" height="40" as="geometry"/>
                </mxCell>
                <mxCell id="738" value="name" style="ellipse;whiteSpace=wrap;html=1;align=center;fontStyle=1;fontSize=16;spacing=3;" vertex="1" parent="1">
                    <mxGeometry x="-330.09000000000003" y="810" width="100" height="40" as="geometry"/>
                </mxCell>
                <mxCell id="739" value="email" style="ellipse;whiteSpace=wrap;html=1;align=center;fontStyle=1;fontSize=16;spacing=3;" vertex="1" parent="1">
                    <mxGeometry x="-390" y="920" width="100" height="40" as="geometry"/>
                </mxCell>
                <mxCell id="740" value="total_price" style="ellipse;whiteSpace=wrap;html=1;align=center;fontStyle=1;fontSize=16;spacing=3;" vertex="1" parent="1">
                    <mxGeometry x="-380" y="970" width="100" height="40" as="geometry"/>
                </mxCell>
                <mxCell id="741" value="status" style="ellipse;whiteSpace=wrap;html=1;align=center;fontStyle=1;fontSize=16;spacing=3;" vertex="1" parent="1">
                    <mxGeometry x="-240.09" y="970" width="100" height="40" as="geometry"/>
                </mxCell>
                <mxCell id="742" value="created_at" style="ellipse;whiteSpace=wrap;html=1;align=center;fontStyle=1;fontSize=16;spacing=3;" vertex="1" parent="1">
                    <mxGeometry x="-180" y="810" width="100" height="40" as="geometry"/>
                </mxCell>
                <mxCell id="743" style="edgeStyle=orthogonalEdgeStyle;shape=connector;rounded=1;jumpStyle=arc;jumpSize=13;orthogonalLoop=1;jettySize=auto;html=1;strokeColor=default;align=center;verticalAlign=middle;fontFamily=Helvetica;fontSize=16;fontColor=default;labelBackgroundColor=default;endArrow=none;endFill=0;spacing=3;fontStyle=1" edge="1" parent="1" source="744" target="614">
                    <mxGeometry relative="1" as="geometry"/>
                </mxCell>
                <mxCell id="744" value="quantity" style="ellipse;whiteSpace=wrap;html=1;align=center;fontStyle=1;fontSize=16;spacing=3;" vertex="1" parent="1">
                    <mxGeometry x="80.00000000000003" y="670" width="100" height="40" as="geometry"/>
                </mxCell>
                <mxCell id="745" style="edgeStyle=orthogonalEdgeStyle;shape=connector;rounded=1;jumpStyle=arc;jumpSize=13;orthogonalLoop=1;jettySize=auto;html=1;strokeColor=default;align=center;verticalAlign=middle;fontFamily=Helvetica;fontSize=16;fontColor=default;labelBackgroundColor=default;endArrow=none;endFill=0;spacing=3;fontStyle=1" edge="1" parent="1" source="746" target="614">
                    <mxGeometry relative="1" as="geometry">
                        <Array as="points">
                            <mxPoint x="55" y="660"/>
                            <mxPoint x="110" y="660"/>
                        </Array>
                    </mxGeometry>
                </mxCell>
                <mxCell id="746" value="has_stock" style="ellipse;whiteSpace=wrap;html=1;align=center;fontStyle=1;fontSize=16;spacing=3;" vertex="1" parent="1">
                    <mxGeometry x="5.030000000000001" y="720" width="100" height="40" as="geometry"/>
                </mxCell>
                <mxCell id="747" style="edgeStyle=orthogonalEdgeStyle;shape=connector;rounded=1;jumpStyle=arc;jumpSize=13;orthogonalLoop=1;jettySize=auto;html=1;entryX=0.626;entryY=-0.023;entryDx=0;entryDy=0;entryPerimeter=0;strokeColor=default;align=center;verticalAlign=middle;fontFamily=Helvetica;fontSize=16;fontColor=default;labelBackgroundColor=default;endArrow=none;endFill=0;spacing=3;fontStyle=1" edge="1" parent="1" source="712" target="617">
                    <mxGeometry relative="1" as="geometry">
                        <Array as="points">
                            <mxPoint x="-660" y="710"/>
                            <mxPoint x="-660" y="770"/>
                            <mxPoint x="-602" y="770"/>
                        </Array>
                    </mxGeometry>
                </mxCell>
                <mxCell id="748" style="edgeStyle=orthogonalEdgeStyle;shape=connector;rounded=1;jumpStyle=arc;jumpSize=13;orthogonalLoop=1;jettySize=auto;html=1;entryX=0.378;entryY=-0.007;entryDx=0;entryDy=0;entryPerimeter=0;strokeColor=default;align=center;verticalAlign=middle;fontFamily=Helvetica;fontSize=16;fontColor=default;labelBackgroundColor=default;endArrow=none;endFill=0;spacing=3;fontStyle=1" edge="1" parent="1" source="707" target="617">
                    <mxGeometry relative="1" as="geometry"/>
                </mxCell>
                <mxCell id="749" style="edgeStyle=orthogonalEdgeStyle;shape=connector;rounded=1;jumpStyle=arc;jumpSize=13;orthogonalLoop=1;jettySize=auto;html=1;entryX=0.671;entryY=0.025;entryDx=0;entryDy=0;entryPerimeter=0;strokeColor=default;align=center;verticalAlign=middle;fontFamily=Helvetica;fontSize=16;fontColor=default;labelBackgroundColor=default;endArrow=none;endFill=0;spacing=3;fontStyle=1" edge="1" parent="1" source="662" target="585">
                    <mxGeometry relative="1" as="geometry"/>
                </mxCell>
                <mxCell id="750" style="edgeStyle=orthogonalEdgeStyle;shape=connector;rounded=1;jumpStyle=arc;jumpSize=13;orthogonalLoop=1;jettySize=auto;html=1;strokeColor=default;align=center;verticalAlign=middle;fontFamily=Helvetica;fontSize=16;fontColor=default;labelBackgroundColor=default;endArrow=none;endFill=0;spacing=3;fontStyle=1" edge="1" parent="1" source="752" target="753">
                    <mxGeometry relative="1" as="geometry">
                        <Array as="points">
                            <mxPoint x="-110" y="290"/>
                            <mxPoint x="-110" y="290"/>
                        </Array>
                    </mxGeometry>
                </mxCell>
                <mxCell id="751" style="edgeStyle=orthogonalEdgeStyle;shape=connector;rounded=1;jumpStyle=arc;jumpSize=13;orthogonalLoop=1;jettySize=auto;html=1;strokeColor=default;align=center;verticalAlign=middle;fontFamily=Helvetica;fontSize=16;fontColor=default;labelBackgroundColor=default;endArrow=none;endFill=0;spacing=3;fontStyle=1" edge="1" parent="1" source="752" target="754">
                    <mxGeometry relative="1" as="geometry">
                        <Array as="points">
                            <mxPoint x="-10" y="370"/>
                        </Array>
                    </mxGeometry>
                </mxCell>
                <mxCell id="752" value="d" style="ellipse;whiteSpace=wrap;html=1;fontSize=16;spacing=3;fontStyle=1" vertex="1" parent="1">
                    <mxGeometry x="-120" y="360" width="20" height="20" as="geometry"/>
                </mxCell>
                <mxCell id="753" value="OrderDetail_ticket" style="whiteSpace=wrap;html=1;align=center;fillColor=#dae8fc;strokeColor=#6c8ebf;fontSize=16;spacing=3;fontStyle=1" vertex="1" parent="1">
                    <mxGeometry x="-100" y="260.2" width="140" height="40" as="geometry"/>
                </mxCell>
                <mxCell id="754" value="OrderDetail_product" style="whiteSpace=wrap;html=1;align=center;fillColor=#dae8fc;strokeColor=#6c8ebf;fontSize=16;spacing=3;fontStyle=1" vertex="1" parent="1">
                    <mxGeometry x="-120" y="520" width="160" height="40" as="geometry"/>
                </mxCell>
                <mxCell id="755" style="edgeStyle=orthogonalEdgeStyle;shape=connector;rounded=1;jumpStyle=arc;jumpSize=13;orthogonalLoop=1;jettySize=auto;html=1;entryX=0.588;entryY=-0.017;entryDx=0;entryDy=0;entryPerimeter=0;strokeColor=default;align=center;verticalAlign=middle;fontFamily=Helvetica;fontSize=16;fontColor=default;labelBackgroundColor=default;endArrow=none;endFill=0;spacing=3;fontStyle=1" edge="1" parent="1" source="731" target="614">
                    <mxGeometry relative="1" as="geometry"/>
                </mxCell>
                <mxCell id="756" style="edgeStyle=orthogonalEdgeStyle;shape=connector;rounded=1;jumpStyle=arc;jumpSize=13;orthogonalLoop=1;jettySize=auto;html=1;entryX=0.657;entryY=0.059;entryDx=0;entryDy=0;entryPerimeter=0;strokeColor=default;align=center;verticalAlign=middle;fontFamily=Helvetica;fontSize=16;fontColor=default;labelBackgroundColor=default;endArrow=none;endFill=0;spacing=3;fontStyle=1" edge="1" parent="1" source="674" target="663">
                    <mxGeometry relative="1" as="geometry"/>
                </mxCell>
                <mxCell id="757" value="" style="verticalLabelPosition=bottom;verticalAlign=top;html=1;shape=mxgraph.basic.arc;startAngle=0.5241541746595132;endAngle=0.9821423673643616;fontFamily=Helvetica;fontSize=16;fontColor=default;labelBackgroundColor=default;spacing=3;fontStyle=1" vertex="1" parent="1">
                    <mxGeometry x="-140.09" y="365" width="30.09" height="10" as="geometry"/>
                </mxCell>
                <mxCell id="758" value="" style="group;rotation=-183;fontSize=16;spacing=3;fontStyle=1" vertex="1" connectable="0" parent="1">
                    <mxGeometry x="-417.585" y="1299.955" width="10" height="30.089999999999918" as="geometry"/>
                </mxCell>
                <mxCell id="759" style="edgeStyle=orthogonalEdgeStyle;shape=connector;rounded=1;jumpStyle=arc;jumpSize=13;orthogonalLoop=1;jettySize=auto;html=1;strokeColor=default;align=center;verticalAlign=middle;fontFamily=Helvetica;fontSize=16;fontColor=default;labelBackgroundColor=default;endArrow=none;endFill=0;spacing=3;fontStyle=1" edge="1" parent="758" source="585" target="605">
                    <mxGeometry relative="1" as="geometry"/>
                </mxCell>
                <mxCell id="760" value="" style="verticalLabelPosition=bottom;verticalAlign=top;html=1;shape=mxgraph.basic.arc;startAngle=0.5241541746595132;endAngle=0.9821423673643616;fontFamily=Helvetica;fontSize=16;fontColor=default;labelBackgroundColor=default;rotation=-93;spacing=3;fontStyle=1" vertex="1" parent="758">
                    <mxGeometry x="-10" y="10" width="30.09" height="10" as="geometry"/>
                </mxCell>
                <mxCell id="761" style="edgeStyle=orthogonalEdgeStyle;shape=connector;rounded=1;jumpStyle=arc;jumpSize=13;orthogonalLoop=1;jettySize=auto;html=1;entryX=0.378;entryY=1.053;entryDx=0;entryDy=0;entryPerimeter=0;strokeColor=default;align=center;verticalAlign=middle;fontFamily=Helvetica;fontSize=16;fontColor=default;labelBackgroundColor=default;endArrow=none;endFill=0;spacing=3;fontStyle=1" edge="1" parent="1" source="628" target="562">
                    <mxGeometry relative="1" as="geometry">
                        <Array as="points">
                            <mxPoint x="-622" y="320"/>
                            <mxPoint x="-670" y="320"/>
                        </Array>
                    </mxGeometry>
                </mxCell>
                <mxCell id="762" style="edgeStyle=orthogonalEdgeStyle;shape=connector;rounded=1;jumpStyle=arc;jumpSize=13;orthogonalLoop=1;jettySize=auto;html=1;entryX=0.133;entryY=-0.002;entryDx=0;entryDy=0;entryPerimeter=0;strokeColor=default;align=center;verticalAlign=middle;fontFamily=Helvetica;fontSize=16;fontColor=default;labelBackgroundColor=default;endArrow=none;endFill=0;spacing=3;fontStyle=1" edge="1" parent="1" source="623" target="562">
                    <mxGeometry relative="1" as="geometry">
                        <Array as="points">
                            <mxPoint x="-690" y="160"/>
                            <mxPoint x="-690" y="220"/>
                            <mxPoint x="-689" y="220"/>
                        </Array>
                    </mxGeometry>
                </mxCell>
                <mxCell id="763" value="n" style="edgeStyle=orthogonalEdgeStyle;shape=link;rounded=1;jumpStyle=arc;jumpSize=13;html=1;strokeColor=default;align=center;verticalAlign=middle;fontFamily=Helvetica;fontSize=16;fontColor=default;labelBackgroundColor=default;endArrow=none;endFill=0;spacing=3;fontStyle=1" edge="1" parent="1" source="575" target="574">
                    <mxGeometry relative="1" as="geometry">
                        <Array as="points">
                            <mxPoint x="-130" y="160"/>
                        </Array>
                        <mxPoint x="-50.09" y="120.40000000000005" as="sourcePoint"/>
                        <mxPoint x="-260.09000000000003" y="160.40000000000003" as="targetPoint"/>
                    </mxGeometry>
                </mxCell>
                <mxCell id="764" style="edgeStyle=orthogonalEdgeStyle;shape=connector;rounded=1;jumpStyle=arc;jumpSize=13;orthogonalLoop=1;jettySize=auto;html=1;entryX=0.174;entryY=1.05;entryDx=0;entryDy=0;entryPerimeter=0;strokeColor=default;align=center;verticalAlign=middle;fontFamily=Helvetica;fontSize=16;fontColor=default;labelBackgroundColor=default;endArrow=none;endFill=0;spacing=3;fontStyle=1" edge="1" parent="1" source="717" target="609">
                    <mxGeometry relative="1" as="geometry">
                        <Array as="points">
                            <mxPoint x="-190" y="1270"/>
                            <mxPoint x="-190" y="1250"/>
                            <mxPoint x="-209" y="1250"/>
                        </Array>
                    </mxGeometry>
                </mxCell>
                <mxCell id="765" style="edgeStyle=orthogonalEdgeStyle;shape=connector;rounded=1;jumpStyle=arc;jumpSize=13;orthogonalLoop=1;jettySize=auto;html=1;entryX=0.659;entryY=0.086;entryDx=0;entryDy=0;entryPerimeter=0;strokeColor=default;align=center;verticalAlign=middle;fontFamily=Helvetica;fontSize=16;fontColor=default;labelBackgroundColor=default;endArrow=none;endFill=0;spacing=3;fontStyle=1" edge="1" parent="1" source="690" target="580">
                    <mxGeometry relative="1" as="geometry"/>
                </mxCell>
            </root>
        </mxGraphModel>
    </diagram>
    <diagram id="LNc4okclckovZmSJuyNc" name="Page-2">
        <mxGraphModel dx="1708" dy="1558" grid="1" gridSize="10" guides="1" tooltips="1" connect="1" arrows="1" fold="1" page="1" pageScale="1" pageWidth="850" pageHeight="1100" math="0" shadow="0">
            <root>
                <mxCell id="0"/>
                <mxCell id="1" parent="0"/>
                <mxCell id="AunCylXgQYoGjt5CeC0j-1" value="" style="rounded=0;whiteSpace=wrap;html=1;fontFamily=Helvetica;fontSize=12;fontColor=default;labelBackgroundColor=default;" vertex="1" parent="1">
                    <mxGeometry x="520" y="520" width="120" height="60" as="geometry"/>
                </mxCell>
                <mxCell id="AunCylXgQYoGjt5CeC0j-2" value="" style="rounded=0;whiteSpace=wrap;html=1;fontFamily=Helvetica;fontSize=12;fontColor=default;labelBackgroundColor=default;" vertex="1" parent="1">
                    <mxGeometry x="640" y="520" width="120" height="60" as="geometry"/>
                </mxCell>
                <mxCell id="AunCylXgQYoGjt5CeC0j-3" value="" style="rounded=0;whiteSpace=wrap;html=1;fontFamily=Helvetica;fontSize=12;fontColor=default;labelBackgroundColor=default;" vertex="1" parent="1">
                    <mxGeometry x="760" y="520" width="120" height="60" as="geometry"/>
                </mxCell>
                <mxCell id="AunCylXgQYoGjt5CeC0j-4" value="" style="rounded=0;whiteSpace=wrap;html=1;fontFamily=Helvetica;fontSize=12;fontColor=default;labelBackgroundColor=default;" vertex="1" parent="1">
                    <mxGeometry x="880" y="520" width="120" height="60" as="geometry"/>
                </mxCell>
                <mxCell id="AunCylXgQYoGjt5CeC0j-5" value="" style="rounded=0;whiteSpace=wrap;html=1;fontFamily=Helvetica;fontSize=12;fontColor=default;labelBackgroundColor=default;" vertex="1" parent="1">
                    <mxGeometry x="1000" y="520" width="120" height="60" as="geometry"/>
                </mxCell>
                <mxCell id="AunCylXgQYoGjt5CeC0j-6" value="" style="rounded=0;whiteSpace=wrap;html=1;fontFamily=Helvetica;fontSize=12;fontColor=default;labelBackgroundColor=default;" vertex="1" parent="1">
                    <mxGeometry x="1120" y="520" width="120" height="60" as="geometry"/>
                </mxCell>
                <mxCell id="AunCylXgQYoGjt5CeC0j-7" value="" style="rounded=0;whiteSpace=wrap;html=1;fontFamily=Helvetica;fontSize=12;fontColor=default;labelBackgroundColor=default;" vertex="1" parent="1">
                    <mxGeometry x="1240" y="520" width="120" height="60" as="geometry"/>
                </mxCell>
                <mxCell id="AunCylXgQYoGjt5CeC0j-8" value="" style="rounded=0;whiteSpace=wrap;html=1;fontFamily=Helvetica;fontSize=12;fontColor=default;labelBackgroundColor=default;" vertex="1" parent="1">
                    <mxGeometry x="1360" y="520" width="120" height="60" as="geometry"/>
                </mxCell>
                <mxCell id="AunCylXgQYoGjt5CeC0j-11" value="" style="rounded=0;whiteSpace=wrap;html=1;fontFamily=Helvetica;fontSize=12;fontColor=default;labelBackgroundColor=default;" vertex="1" parent="1">
                    <mxGeometry x="520" y="670" width="120" height="60" as="geometry"/>
                </mxCell>
                <mxCell id="AunCylXgQYoGjt5CeC0j-12" value="" style="rounded=0;whiteSpace=wrap;html=1;fontFamily=Helvetica;fontSize=12;fontColor=default;labelBackgroundColor=default;" vertex="1" parent="1">
                    <mxGeometry x="640" y="670" width="120" height="60" as="geometry"/>
                </mxCell>
                <mxCell id="AunCylXgQYoGjt5CeC0j-13" value="" style="rounded=0;whiteSpace=wrap;html=1;fontFamily=Helvetica;fontSize=12;fontColor=default;labelBackgroundColor=default;" vertex="1" parent="1">
                    <mxGeometry x="760" y="670" width="120" height="60" as="geometry"/>
                </mxCell>
                <mxCell id="AunCylXgQYoGjt5CeC0j-14" value="" style="rounded=0;whiteSpace=wrap;html=1;fontFamily=Helvetica;fontSize=12;fontColor=default;labelBackgroundColor=default;" vertex="1" parent="1">
                    <mxGeometry x="880" y="670" width="120" height="60" as="geometry"/>
                </mxCell>
                <mxCell id="AunCylXgQYoGjt5CeC0j-15" value="" style="rounded=0;whiteSpace=wrap;html=1;fontFamily=Helvetica;fontSize=12;fontColor=default;labelBackgroundColor=default;" vertex="1" parent="1">
                    <mxGeometry x="1000" y="670" width="120" height="60" as="geometry"/>
                </mxCell>
                <mxCell id="AunCylXgQYoGjt5CeC0j-16" value="" style="rounded=0;whiteSpace=wrap;html=1;fontFamily=Helvetica;fontSize=12;fontColor=default;labelBackgroundColor=default;" vertex="1" parent="1">
                    <mxGeometry x="1120" y="670" width="120" height="60" as="geometry"/>
                </mxCell>
                <mxCell id="AunCylXgQYoGjt5CeC0j-17" value="" style="rounded=0;whiteSpace=wrap;html=1;fontFamily=Helvetica;fontSize=12;fontColor=default;labelBackgroundColor=default;" vertex="1" parent="1">
                    <mxGeometry x="1240" y="670" width="120" height="60" as="geometry"/>
                </mxCell>
                <mxCell id="AunCylXgQYoGjt5CeC0j-18" value="" style="rounded=0;whiteSpace=wrap;html=1;fontFamily=Helvetica;fontSize=12;fontColor=default;labelBackgroundColor=default;" vertex="1" parent="1">
                    <mxGeometry x="1360" y="670" width="120" height="60" as="geometry"/>
                </mxCell>
                <mxCell id="AunCylXgQYoGjt5CeC0j-19" value="" style="rounded=0;whiteSpace=wrap;html=1;fontFamily=Helvetica;fontSize=12;fontColor=default;labelBackgroundColor=default;" vertex="1" parent="1">
                    <mxGeometry x="520" y="810" width="120" height="60" as="geometry"/>
                </mxCell>
                <mxCell id="AunCylXgQYoGjt5CeC0j-20" value="" style="rounded=0;whiteSpace=wrap;html=1;fontFamily=Helvetica;fontSize=12;fontColor=default;labelBackgroundColor=default;" vertex="1" parent="1">
                    <mxGeometry x="640" y="810" width="120" height="60" as="geometry"/>
                </mxCell>
                <mxCell id="AunCylXgQYoGjt5CeC0j-21" value="" style="rounded=0;whiteSpace=wrap;html=1;fontFamily=Helvetica;fontSize=12;fontColor=default;labelBackgroundColor=default;" vertex="1" parent="1">
                    <mxGeometry x="760" y="810" width="120" height="60" as="geometry"/>
                </mxCell>
                <mxCell id="AunCylXgQYoGjt5CeC0j-22" value="" style="rounded=0;whiteSpace=wrap;html=1;fontFamily=Helvetica;fontSize=12;fontColor=default;labelBackgroundColor=default;" vertex="1" parent="1">
                    <mxGeometry x="880" y="810" width="120" height="60" as="geometry"/>
                </mxCell>
                <mxCell id="AunCylXgQYoGjt5CeC0j-23" value="" style="rounded=0;whiteSpace=wrap;html=1;fontFamily=Helvetica;fontSize=12;fontColor=default;labelBackgroundColor=default;" vertex="1" parent="1">
                    <mxGeometry x="1000" y="810" width="120" height="60" as="geometry"/>
                </mxCell>
                <mxCell id="AunCylXgQYoGjt5CeC0j-24" value="" style="rounded=0;whiteSpace=wrap;html=1;fontFamily=Helvetica;fontSize=12;fontColor=default;labelBackgroundColor=default;" vertex="1" parent="1">
                    <mxGeometry x="1120" y="810" width="120" height="60" as="geometry"/>
                </mxCell>
                <mxCell id="AunCylXgQYoGjt5CeC0j-25" value="" style="rounded=0;whiteSpace=wrap;html=1;fontFamily=Helvetica;fontSize=12;fontColor=default;labelBackgroundColor=default;" vertex="1" parent="1">
                    <mxGeometry x="1240" y="810" width="120" height="60" as="geometry"/>
                </mxCell>
                <mxCell id="AunCylXgQYoGjt5CeC0j-26" value="" style="rounded=0;whiteSpace=wrap;html=1;fontFamily=Helvetica;fontSize=12;fontColor=default;labelBackgroundColor=default;" vertex="1" parent="1">
                    <mxGeometry x="1360" y="810" width="120" height="60" as="geometry"/>
                </mxCell>
                <mxCell id="AunCylXgQYoGjt5CeC0j-27" value="" style="rounded=0;whiteSpace=wrap;html=1;fontFamily=Helvetica;fontSize=12;fontColor=default;labelBackgroundColor=default;" vertex="1" parent="1">
                    <mxGeometry x="520" y="960" width="120" height="60" as="geometry"/>
                </mxCell>
                <mxCell id="AunCylXgQYoGjt5CeC0j-28" value="" style="rounded=0;whiteSpace=wrap;html=1;fontFamily=Helvetica;fontSize=12;fontColor=default;labelBackgroundColor=default;" vertex="1" parent="1">
                    <mxGeometry x="640" y="960" width="120" height="60" as="geometry"/>
                </mxCell>
                <mxCell id="AunCylXgQYoGjt5CeC0j-29" value="" style="rounded=0;whiteSpace=wrap;html=1;fontFamily=Helvetica;fontSize=12;fontColor=default;labelBackgroundColor=default;" vertex="1" parent="1">
                    <mxGeometry x="760" y="960" width="120" height="60" as="geometry"/>
                </mxCell>
                <mxCell id="AunCylXgQYoGjt5CeC0j-30" value="" style="rounded=0;whiteSpace=wrap;html=1;fontFamily=Helvetica;fontSize=12;fontColor=default;labelBackgroundColor=default;" vertex="1" parent="1">
                    <mxGeometry x="880" y="960" width="120" height="60" as="geometry"/>
                </mxCell>
                <mxCell id="AunCylXgQYoGjt5CeC0j-31" value="" style="rounded=0;whiteSpace=wrap;html=1;fontFamily=Helvetica;fontSize=12;fontColor=default;labelBackgroundColor=default;" vertex="1" parent="1">
                    <mxGeometry x="1000" y="960" width="120" height="60" as="geometry"/>
                </mxCell>
                <mxCell id="AunCylXgQYoGjt5CeC0j-32" value="" style="rounded=0;whiteSpace=wrap;html=1;fontFamily=Helvetica;fontSize=12;fontColor=default;labelBackgroundColor=default;" vertex="1" parent="1">
                    <mxGeometry x="1120" y="960" width="120" height="60" as="geometry"/>
                </mxCell>
                <mxCell id="AunCylXgQYoGjt5CeC0j-33" value="" style="rounded=0;whiteSpace=wrap;html=1;fontFamily=Helvetica;fontSize=12;fontColor=default;labelBackgroundColor=default;" vertex="1" parent="1">
                    <mxGeometry x="1240" y="960" width="120" height="60" as="geometry"/>
                </mxCell>
                <mxCell id="AunCylXgQYoGjt5CeC0j-34" value="" style="rounded=0;whiteSpace=wrap;html=1;fontFamily=Helvetica;fontSize=12;fontColor=default;labelBackgroundColor=default;" vertex="1" parent="1">
                    <mxGeometry x="1360" y="960" width="120" height="60" as="geometry"/>
                </mxCell>
                <mxCell id="AunCylXgQYoGjt5CeC0j-35" value="" style="rounded=0;whiteSpace=wrap;html=1;fontFamily=Helvetica;fontSize=12;fontColor=default;labelBackgroundColor=default;" vertex="1" parent="1">
                    <mxGeometry x="520" y="1110" width="120" height="60" as="geometry"/>
                </mxCell>
                <mxCell id="AunCylXgQYoGjt5CeC0j-36" value="" style="rounded=0;whiteSpace=wrap;html=1;fontFamily=Helvetica;fontSize=12;fontColor=default;labelBackgroundColor=default;" vertex="1" parent="1">
                    <mxGeometry x="640" y="1110" width="120" height="60" as="geometry"/>
                </mxCell>
                <mxCell id="AunCylXgQYoGjt5CeC0j-37" value="" style="rounded=0;whiteSpace=wrap;html=1;fontFamily=Helvetica;fontSize=12;fontColor=default;labelBackgroundColor=default;" vertex="1" parent="1">
                    <mxGeometry x="760" y="1110" width="120" height="60" as="geometry"/>
                </mxCell>
                <mxCell id="AunCylXgQYoGjt5CeC0j-38" value="" style="rounded=0;whiteSpace=wrap;html=1;fontFamily=Helvetica;fontSize=12;fontColor=default;labelBackgroundColor=default;" vertex="1" parent="1">
                    <mxGeometry x="880" y="1110" width="120" height="60" as="geometry"/>
                </mxCell>
                <mxCell id="AunCylXgQYoGjt5CeC0j-39" value="" style="rounded=0;whiteSpace=wrap;html=1;fontFamily=Helvetica;fontSize=12;fontColor=default;labelBackgroundColor=default;" vertex="1" parent="1">
                    <mxGeometry x="1000" y="1110" width="120" height="60" as="geometry"/>
                </mxCell>
                <mxCell id="AunCylXgQYoGjt5CeC0j-40" value="" style="rounded=0;whiteSpace=wrap;html=1;fontFamily=Helvetica;fontSize=12;fontColor=default;labelBackgroundColor=default;" vertex="1" parent="1">
                    <mxGeometry x="1120" y="1110" width="120" height="60" as="geometry"/>
                </mxCell>
                <mxCell id="AunCylXgQYoGjt5CeC0j-41" value="" style="rounded=0;whiteSpace=wrap;html=1;fontFamily=Helvetica;fontSize=12;fontColor=default;labelBackgroundColor=default;" vertex="1" parent="1">
                    <mxGeometry x="1240" y="1110" width="120" height="60" as="geometry"/>
                </mxCell>
                <mxCell id="AunCylXgQYoGjt5CeC0j-42" value="" style="rounded=0;whiteSpace=wrap;html=1;fontFamily=Helvetica;fontSize=12;fontColor=default;labelBackgroundColor=default;" vertex="1" parent="1">
                    <mxGeometry x="1360" y="1110" width="120" height="60" as="geometry"/>
                </mxCell>
                <mxCell id="AunCylXgQYoGjt5CeC0j-43" value="" style="rounded=0;whiteSpace=wrap;html=1;fontFamily=Helvetica;fontSize=12;fontColor=default;labelBackgroundColor=default;" vertex="1" parent="1">
                    <mxGeometry x="520" y="1250" width="120" height="60" as="geometry"/>
                </mxCell>
                <mxCell id="AunCylXgQYoGjt5CeC0j-44" value="" style="rounded=0;whiteSpace=wrap;html=1;fontFamily=Helvetica;fontSize=12;fontColor=default;labelBackgroundColor=default;" vertex="1" parent="1">
                    <mxGeometry x="640" y="1250" width="120" height="60" as="geometry"/>
                </mxCell>
                <mxCell id="AunCylXgQYoGjt5CeC0j-45" value="" style="rounded=0;whiteSpace=wrap;html=1;fontFamily=Helvetica;fontSize=12;fontColor=default;labelBackgroundColor=default;" vertex="1" parent="1">
                    <mxGeometry x="760" y="1250" width="120" height="60" as="geometry"/>
                </mxCell>
                <mxCell id="AunCylXgQYoGjt5CeC0j-46" value="" style="rounded=0;whiteSpace=wrap;html=1;fontFamily=Helvetica;fontSize=12;fontColor=default;labelBackgroundColor=default;" vertex="1" parent="1">
                    <mxGeometry x="880" y="1250" width="120" height="60" as="geometry"/>
                </mxCell>
                <mxCell id="AunCylXgQYoGjt5CeC0j-47" value="" style="rounded=0;whiteSpace=wrap;html=1;fontFamily=Helvetica;fontSize=12;fontColor=default;labelBackgroundColor=default;" vertex="1" parent="1">
                    <mxGeometry x="1000" y="1250" width="120" height="60" as="geometry"/>
                </mxCell>
                <mxCell id="AunCylXgQYoGjt5CeC0j-48" value="" style="rounded=0;whiteSpace=wrap;html=1;fontFamily=Helvetica;fontSize=12;fontColor=default;labelBackgroundColor=default;" vertex="1" parent="1">
                    <mxGeometry x="1120" y="1250" width="120" height="60" as="geometry"/>
                </mxCell>
                <mxCell id="AunCylXgQYoGjt5CeC0j-49" value="" style="rounded=0;whiteSpace=wrap;html=1;fontFamily=Helvetica;fontSize=12;fontColor=default;labelBackgroundColor=default;" vertex="1" parent="1">
                    <mxGeometry x="1240" y="1250" width="120" height="60" as="geometry"/>
                </mxCell>
                <mxCell id="AunCylXgQYoGjt5CeC0j-50" value="" style="rounded=0;whiteSpace=wrap;html=1;fontFamily=Helvetica;fontSize=12;fontColor=default;labelBackgroundColor=default;" vertex="1" parent="1">
                    <mxGeometry x="1360" y="1250" width="120" height="60" as="geometry"/>
                </mxCell>
            </root>
        </mxGraphModel>
    </diagram>
    <diagram id="sRRFXtWCT88_Kx1tP_7E" name="Page-3">
        <mxGraphModel dx="2041" dy="2516" grid="1" gridSize="10" guides="1" tooltips="1" connect="1" arrows="1" fold="1" page="1" pageScale="1" pageWidth="850" pageHeight="1100" math="0" shadow="0">
            <root>
                <mxCell id="0"/>
                <mxCell id="1" parent="0"/>
                <mxCell id="Uaf2S9VRrsXDN28cyn4M-1" value="Media" style="whiteSpace=wrap;html=1;align=center;fillColor=#dae8fc;strokeColor=#6c8ebf;" vertex="1" parent="1">
                    <mxGeometry x="-350" y="100" width="80" height="40" as="geometry"/>
                </mxCell>
                <mxCell id="Uaf2S9VRrsXDN28cyn4M-2" value="1" style="edgeStyle=orthogonalEdgeStyle;shape=connector;rounded=1;jumpStyle=arc;jumpSize=13;html=1;strokeColor=default;align=center;verticalAlign=middle;fontFamily=Helvetica;fontSize=12;fontColor=default;labelBackgroundColor=default;endArrow=none;endFill=0;" edge="1" parent="1" source="Uaf2S9VRrsXDN28cyn4M-8" target="Uaf2S9VRrsXDN28cyn4M-10">
                    <mxGeometry relative="1" as="geometry">
                        <mxPoint as="offset"/>
                    </mxGeometry>
                </mxCell>
                <mxCell id="Uaf2S9VRrsXDN28cyn4M-3" style="edgeStyle=orthogonalEdgeStyle;shape=connector;rounded=1;jumpStyle=arc;jumpSize=13;html=1;strokeColor=default;align=center;verticalAlign=middle;fontFamily=Helvetica;fontSize=12;fontColor=default;labelBackgroundColor=default;endArrow=none;endFill=0;" edge="1" parent="1" source="Uaf2S9VRrsXDN28cyn4M-8" target="Uaf2S9VRrsXDN28cyn4M-126">
                    <mxGeometry relative="1" as="geometry"/>
                </mxCell>
                <mxCell id="Uaf2S9VRrsXDN28cyn4M-4" style="edgeStyle=orthogonalEdgeStyle;shape=connector;rounded=1;jumpStyle=arc;jumpSize=13;html=1;strokeColor=default;align=center;verticalAlign=middle;fontFamily=Helvetica;fontSize=12;fontColor=default;labelBackgroundColor=default;endArrow=none;endFill=0;" edge="1" parent="1" source="Uaf2S9VRrsXDN28cyn4M-8" target="Uaf2S9VRrsXDN28cyn4M-130">
                    <mxGeometry relative="1" as="geometry">
                        <Array as="points">
                            <mxPoint x="590" y="-50"/>
                            <mxPoint x="590" y="-50"/>
                        </Array>
                    </mxGeometry>
                </mxCell>
                <mxCell id="Uaf2S9VRrsXDN28cyn4M-5" style="edgeStyle=orthogonalEdgeStyle;shape=connector;rounded=1;jumpStyle=arc;jumpSize=13;html=1;strokeColor=default;align=center;verticalAlign=middle;fontFamily=Helvetica;fontSize=12;fontColor=default;labelBackgroundColor=default;endArrow=none;endFill=0;" edge="1" parent="1" source="Uaf2S9VRrsXDN28cyn4M-8" target="Uaf2S9VRrsXDN28cyn4M-129">
                    <mxGeometry relative="1" as="geometry">
                        <Array as="points">
                            <mxPoint x="600" y="-50"/>
                            <mxPoint x="600" y="-5"/>
                        </Array>
                    </mxGeometry>
                </mxCell>
                <mxCell id="Uaf2S9VRrsXDN28cyn4M-6" style="edgeStyle=orthogonalEdgeStyle;shape=connector;rounded=1;jumpStyle=arc;jumpSize=13;html=1;strokeColor=default;align=center;verticalAlign=middle;fontFamily=Helvetica;fontSize=12;fontColor=default;labelBackgroundColor=default;endArrow=none;endFill=0;" edge="1" parent="1" source="Uaf2S9VRrsXDN28cyn4M-8" target="Uaf2S9VRrsXDN28cyn4M-127">
                    <mxGeometry relative="1" as="geometry">
                        <Array as="points">
                            <mxPoint x="600" y="-50"/>
                            <mxPoint x="600" y="55"/>
                        </Array>
                    </mxGeometry>
                </mxCell>
                <mxCell id="Uaf2S9VRrsXDN28cyn4M-7" style="edgeStyle=orthogonalEdgeStyle;shape=connector;rounded=1;jumpStyle=arc;jumpSize=13;html=1;strokeColor=default;align=center;verticalAlign=middle;fontFamily=Helvetica;fontSize=12;fontColor=default;labelBackgroundColor=default;endArrow=none;endFill=0;" edge="1" parent="1" source="Uaf2S9VRrsXDN28cyn4M-8" target="Uaf2S9VRrsXDN28cyn4M-128">
                    <mxGeometry relative="1" as="geometry">
                        <Array as="points">
                            <mxPoint x="570" y="-50"/>
                            <mxPoint x="570" y="115"/>
                        </Array>
                    </mxGeometry>
                </mxCell>
                <mxCell id="Uaf2S9VRrsXDN28cyn4M-8" value="Cinema" style="whiteSpace=wrap;html=1;align=center;fillColor=#dae8fc;strokeColor=#6c8ebf;" vertex="1" parent="1">
                    <mxGeometry x="415" y="-70" width="80" height="40" as="geometry"/>
                </mxCell>
                <mxCell id="Uaf2S9VRrsXDN28cyn4M-9" value="n" style="edgeStyle=orthogonalEdgeStyle;shape=link;rounded=1;jumpStyle=arc;jumpSize=13;html=1;strokeColor=default;align=center;verticalAlign=middle;fontFamily=Helvetica;fontSize=12;fontColor=default;labelBackgroundColor=default;endArrow=none;endFill=0;" edge="1" parent="1" source="Uaf2S9VRrsXDN28cyn4M-10" target="Uaf2S9VRrsXDN28cyn4M-16">
                    <mxGeometry relative="1" as="geometry"/>
                </mxCell>
                <mxCell id="Uaf2S9VRrsXDN28cyn4M-10" value="" style="shape=rhombus;perimeter=rhombusPerimeter;whiteSpace=wrap;html=1;align=center;strokeColor=#d6b656;verticalAlign=middle;fontFamily=Helvetica;fontSize=12;fillColor=#fff2cc;" vertex="1" parent="1">
                    <mxGeometry x="415" y="-10" width="80" height="40" as="geometry"/>
                </mxCell>
                <mxCell id="Uaf2S9VRrsXDN28cyn4M-11" value="1" style="edgeStyle=orthogonalEdgeStyle;shape=connector;rounded=1;jumpStyle=arc;jumpSize=13;html=1;strokeColor=default;align=center;verticalAlign=middle;fontFamily=Helvetica;fontSize=12;fontColor=default;labelBackgroundColor=default;endArrow=none;endFill=0;" edge="1" parent="1" source="Uaf2S9VRrsXDN28cyn4M-16" target="Uaf2S9VRrsXDN28cyn4M-28">
                    <mxGeometry x="0.0769" relative="1" as="geometry">
                        <Array as="points">
                            <mxPoint x="170" y="90"/>
                        </Array>
                        <mxPoint as="offset"/>
                    </mxGeometry>
                </mxCell>
                <mxCell id="Uaf2S9VRrsXDN28cyn4M-12" value="1" style="edgeStyle=orthogonalEdgeStyle;shape=connector;rounded=1;jumpStyle=arc;jumpSize=13;html=1;strokeColor=default;align=center;verticalAlign=middle;fontFamily=Helvetica;fontSize=12;fontColor=default;labelBackgroundColor=default;endArrow=none;endFill=0;" edge="1" parent="1" source="Uaf2S9VRrsXDN28cyn4M-16" target="Uaf2S9VRrsXDN28cyn4M-20">
                    <mxGeometry relative="1" as="geometry">
                        <Array as="points">
                            <mxPoint x="160" y="80"/>
                            <mxPoint x="160" y="80"/>
                        </Array>
                    </mxGeometry>
                </mxCell>
                <mxCell id="Uaf2S9VRrsXDN28cyn4M-13" style="edgeStyle=orthogonalEdgeStyle;shape=connector;rounded=1;jumpStyle=arc;jumpSize=13;html=1;entryX=0.5;entryY=1;entryDx=0;entryDy=0;strokeColor=default;align=center;verticalAlign=middle;fontFamily=Helvetica;fontSize=12;fontColor=default;labelBackgroundColor=default;endArrow=none;endFill=0;" edge="1" parent="1" source="Uaf2S9VRrsXDN28cyn4M-16" target="Uaf2S9VRrsXDN28cyn4M-133">
                    <mxGeometry relative="1" as="geometry"/>
                </mxCell>
                <mxCell id="Uaf2S9VRrsXDN28cyn4M-14" style="edgeStyle=orthogonalEdgeStyle;shape=connector;rounded=1;jumpStyle=arc;jumpSize=13;html=1;strokeColor=default;align=center;verticalAlign=middle;fontFamily=Helvetica;fontSize=12;fontColor=default;labelBackgroundColor=default;endArrow=none;endFill=0;" edge="1" parent="1" source="Uaf2S9VRrsXDN28cyn4M-16" target="Uaf2S9VRrsXDN28cyn4M-135">
                    <mxGeometry relative="1" as="geometry">
                        <Array as="points">
                            <mxPoint x="190" y="-10"/>
                            <mxPoint x="260" y="-10"/>
                        </Array>
                    </mxGeometry>
                </mxCell>
                <mxCell id="Uaf2S9VRrsXDN28cyn4M-15" style="edgeStyle=orthogonalEdgeStyle;shape=connector;rounded=1;jumpStyle=arc;jumpSize=13;html=1;strokeColor=default;align=center;verticalAlign=middle;fontFamily=Helvetica;fontSize=12;fontColor=default;labelBackgroundColor=default;endArrow=none;endFill=0;" edge="1" parent="1" source="Uaf2S9VRrsXDN28cyn4M-16" target="Uaf2S9VRrsXDN28cyn4M-134">
                    <mxGeometry relative="1" as="geometry">
                        <Array as="points">
                            <mxPoint x="150" y="-5"/>
                            <mxPoint x="130" y="-5"/>
                        </Array>
                    </mxGeometry>
                </mxCell>
                <mxCell id="Uaf2S9VRrsXDN28cyn4M-16" value="Room" style="whiteSpace=wrap;html=1;align=center;fillColor=#dae8fc;strokeColor=#6c8ebf;" vertex="1" parent="1">
                    <mxGeometry x="130" y="30" width="80" height="40" as="geometry"/>
                </mxCell>
                <mxCell id="Uaf2S9VRrsXDN28cyn4M-17" value="n" style="edgeStyle=orthogonalEdgeStyle;shape=connector;rounded=1;jumpStyle=arc;jumpSize=13;html=1;strokeColor=default;align=center;verticalAlign=middle;fontFamily=Helvetica;fontSize=12;fontColor=default;labelBackgroundColor=default;endArrow=none;endFill=0;" edge="1" parent="1" source="Uaf2S9VRrsXDN28cyn4M-19" target="Uaf2S9VRrsXDN28cyn4M-21">
                    <mxGeometry relative="1" as="geometry"/>
                </mxCell>
                <mxCell id="Uaf2S9VRrsXDN28cyn4M-18" value="n" style="edgeStyle=orthogonalEdgeStyle;shape=link;rounded=1;jumpStyle=arc;jumpSize=13;html=1;strokeColor=default;align=center;verticalAlign=middle;fontFamily=Helvetica;fontSize=12;fontColor=default;labelBackgroundColor=default;endArrow=none;endFill=0;" edge="1" parent="1" source="Uaf2S9VRrsXDN28cyn4M-19" target="Uaf2S9VRrsXDN28cyn4M-20">
                    <mxGeometry relative="1" as="geometry">
                        <Array as="points">
                            <mxPoint x="40" y="130"/>
                            <mxPoint x="40" y="130"/>
                        </Array>
                    </mxGeometry>
                </mxCell>
                <mxCell id="Uaf2S9VRrsXDN28cyn4M-19" value="ShowTime" style="whiteSpace=wrap;html=1;align=center;fillColor=#dae8fc;strokeColor=#6c8ebf;" vertex="1" parent="1">
                    <mxGeometry x="-120" y="100" width="80" height="40" as="geometry"/>
                </mxCell>
                <mxCell id="Uaf2S9VRrsXDN28cyn4M-20" value="" style="shape=rhombus;perimeter=rhombusPerimeter;whiteSpace=wrap;html=1;align=center;strokeColor=#d6b656;verticalAlign=middle;fontFamily=Helvetica;fontSize=12;fillColor=#fff2cc;" vertex="1" parent="1">
                    <mxGeometry x="120" y="110" width="80" height="40" as="geometry"/>
                </mxCell>
                <mxCell id="Uaf2S9VRrsXDN28cyn4M-21" value="" style="shape=rhombus;perimeter=rhombusPerimeter;whiteSpace=wrap;html=1;align=center;strokeColor=#d6b656;verticalAlign=middle;fontFamily=Helvetica;fontSize=12;fillColor=#fff2cc;" vertex="1" parent="1">
                    <mxGeometry x="-120" y="240" width="80" height="40" as="geometry"/>
                </mxCell>
                <mxCell id="Uaf2S9VRrsXDN28cyn4M-22" value="1" style="edgeStyle=orthogonalEdgeStyle;shape=connector;rounded=1;jumpStyle=arc;jumpSize=13;html=1;strokeColor=default;align=center;verticalAlign=middle;fontFamily=Helvetica;fontSize=12;fontColor=default;labelBackgroundColor=default;endArrow=none;endFill=0;" edge="1" parent="1" source="Uaf2S9VRrsXDN28cyn4M-24" target="Uaf2S9VRrsXDN28cyn4M-1">
                    <mxGeometry relative="1" as="geometry">
                        <mxPoint x="-120" y="200" as="targetPoint"/>
                    </mxGeometry>
                </mxCell>
                <mxCell id="Uaf2S9VRrsXDN28cyn4M-23" value="n" style="edgeStyle=orthogonalEdgeStyle;shape=link;rounded=1;jumpStyle=arc;jumpSize=13;html=1;strokeColor=default;align=center;verticalAlign=middle;fontFamily=Helvetica;fontSize=12;fontColor=default;labelBackgroundColor=default;endArrow=none;endFill=0;" edge="1" parent="1" source="Uaf2S9VRrsXDN28cyn4M-24" target="Uaf2S9VRrsXDN28cyn4M-19">
                    <mxGeometry relative="1" as="geometry"/>
                </mxCell>
                <mxCell id="Uaf2S9VRrsXDN28cyn4M-24" value="" style="shape=rhombus;perimeter=rhombusPerimeter;whiteSpace=wrap;html=1;align=center;strokeColor=#d6b656;verticalAlign=middle;fontFamily=Helvetica;fontSize=12;fillColor=#fff2cc;" vertex="1" parent="1">
                    <mxGeometry x="-240" y="100" width="80" height="40" as="geometry"/>
                </mxCell>
                <mxCell id="Uaf2S9VRrsXDN28cyn4M-25" value="n" style="edgeStyle=orthogonalEdgeStyle;shape=link;rounded=1;jumpStyle=arc;jumpSize=13;html=1;strokeColor=default;align=center;verticalAlign=middle;fontFamily=Helvetica;fontSize=12;fontColor=default;labelBackgroundColor=default;endArrow=none;endFill=0;" edge="1" parent="1" source="Uaf2S9VRrsXDN28cyn4M-27" target="Uaf2S9VRrsXDN28cyn4M-28">
                    <mxGeometry relative="1" as="geometry"/>
                </mxCell>
                <mxCell id="Uaf2S9VRrsXDN28cyn4M-26" value="1" style="edgeStyle=orthogonalEdgeStyle;shape=connector;rounded=1;jumpStyle=arc;jumpSize=13;html=1;strokeColor=default;align=center;verticalAlign=middle;fontFamily=Helvetica;fontSize=12;fontColor=default;labelBackgroundColor=default;endArrow=none;endFill=0;" edge="1" parent="1" source="Uaf2S9VRrsXDN28cyn4M-27" target="Uaf2S9VRrsXDN28cyn4M-60">
                    <mxGeometry relative="1" as="geometry">
                        <Array as="points">
                            <mxPoint x="180" y="190"/>
                        </Array>
                    </mxGeometry>
                </mxCell>
                <mxCell id="Uaf2S9VRrsXDN28cyn4M-27" value="Seat" style="whiteSpace=wrap;html=1;align=center;fillColor=#dae8fc;strokeColor=#6c8ebf;" vertex="1" parent="1">
                    <mxGeometry x="270" y="170" width="80" height="40" as="geometry"/>
                </mxCell>
                <mxCell id="Uaf2S9VRrsXDN28cyn4M-28" value="" style="shape=rhombus;perimeter=rhombusPerimeter;whiteSpace=wrap;html=1;align=center;strokeColor=#d6b656;verticalAlign=middle;fontFamily=Helvetica;fontSize=12;fillColor=#fff2cc;" vertex="1" parent="1">
                    <mxGeometry x="270" y="70" width="80" height="40" as="geometry"/>
                </mxCell>
                <mxCell id="Uaf2S9VRrsXDN28cyn4M-29" value="" style="edgeStyle=orthogonalEdgeStyle;shape=connector;rounded=1;jumpStyle=arc;jumpSize=13;html=1;strokeColor=default;align=center;verticalAlign=middle;fontFamily=Helvetica;fontSize=12;fontColor=default;labelBackgroundColor=default;endArrow=none;endFill=0;" edge="1" parent="1" source="Uaf2S9VRrsXDN28cyn4M-32" target="Uaf2S9VRrsXDN28cyn4M-54">
                    <mxGeometry relative="1" as="geometry"/>
                </mxCell>
                <mxCell id="Uaf2S9VRrsXDN28cyn4M-30" style="edgeStyle=orthogonalEdgeStyle;shape=connector;rounded=1;jumpStyle=arc;jumpSize=13;html=1;strokeColor=default;align=center;verticalAlign=middle;fontFamily=Helvetica;fontSize=12;fontColor=default;labelBackgroundColor=default;endArrow=none;endFill=0;" edge="1" parent="1" source="Uaf2S9VRrsXDN28cyn4M-32" target="Uaf2S9VRrsXDN28cyn4M-91">
                    <mxGeometry relative="1" as="geometry">
                        <Array as="points">
                            <mxPoint x="-215.03" y="1290"/>
                            <mxPoint x="-255.03" y="1290"/>
                        </Array>
                    </mxGeometry>
                </mxCell>
                <mxCell id="Uaf2S9VRrsXDN28cyn4M-31" value="1" style="edgeStyle=orthogonalEdgeStyle;shape=connector;rounded=1;jumpStyle=arc;jumpSize=13;html=1;strokeColor=default;align=center;verticalAlign=middle;fontFamily=Helvetica;fontSize=12;fontColor=default;labelBackgroundColor=default;endArrow=none;endFill=0;" edge="1" parent="1" source="Uaf2S9VRrsXDN28cyn4M-32" target="Uaf2S9VRrsXDN28cyn4M-114">
                    <mxGeometry relative="1" as="geometry">
                        <Array as="points">
                            <mxPoint x="-190" y="1520"/>
                        </Array>
                    </mxGeometry>
                </mxCell>
                <mxCell id="Uaf2S9VRrsXDN28cyn4M-32" value="User" style="whiteSpace=wrap;html=1;align=center;fillColor=#dae8fc;strokeColor=#6c8ebf;" vertex="1" parent="1">
                    <mxGeometry x="-235.03" y="1230" width="80" height="40" as="geometry"/>
                </mxCell>
                <mxCell id="Uaf2S9VRrsXDN28cyn4M-33" value="n" style="edgeStyle=orthogonalEdgeStyle;shape=connector;rounded=1;jumpStyle=arc;jumpSize=13;html=1;strokeColor=default;align=center;verticalAlign=middle;fontFamily=Helvetica;fontSize=12;fontColor=default;labelBackgroundColor=default;endArrow=none;endFill=0;" edge="1" parent="1" source="Uaf2S9VRrsXDN28cyn4M-34" target="Uaf2S9VRrsXDN28cyn4M-40">
                    <mxGeometry relative="1" as="geometry"/>
                </mxCell>
                <mxCell id="Uaf2S9VRrsXDN28cyn4M-34" value="" style="shape=rhombus;perimeter=rhombusPerimeter;whiteSpace=wrap;html=1;align=center;strokeColor=#d6b656;verticalAlign=middle;fontFamily=Helvetica;fontSize=12;fillColor=#fff2cc;" vertex="1" parent="1">
                    <mxGeometry x="-65.03" y="1080" width="80" height="40" as="geometry"/>
                </mxCell>
                <mxCell id="Uaf2S9VRrsXDN28cyn4M-35" value="1" style="edgeStyle=orthogonalEdgeStyle;shape=connector;rounded=1;jumpStyle=arc;jumpSize=13;html=1;strokeColor=default;align=center;verticalAlign=middle;fontFamily=Helvetica;fontSize=12;fontColor=default;labelBackgroundColor=default;endArrow=none;endFill=0;" edge="1" parent="1" source="Uaf2S9VRrsXDN28cyn4M-36" target="Uaf2S9VRrsXDN28cyn4M-34">
                    <mxGeometry relative="1" as="geometry"/>
                </mxCell>
                <mxCell id="Uaf2S9VRrsXDN28cyn4M-36" value="Customer" style="whiteSpace=wrap;html=1;align=center;fillColor=#dae8fc;strokeColor=#6c8ebf;" vertex="1" parent="1">
                    <mxGeometry x="-235.03" y="1080" width="80" height="40" as="geometry"/>
                </mxCell>
                <mxCell id="Uaf2S9VRrsXDN28cyn4M-37" value="1" style="edgeStyle=orthogonalEdgeStyle;shape=connector;rounded=1;jumpStyle=arc;jumpSize=13;html=1;strokeColor=default;align=center;verticalAlign=middle;fontFamily=Helvetica;fontSize=12;fontColor=default;labelBackgroundColor=default;endArrow=none;endFill=0;" edge="1" parent="1" source="Uaf2S9VRrsXDN28cyn4M-38" target="Uaf2S9VRrsXDN28cyn4M-66">
                    <mxGeometry relative="1" as="geometry"/>
                </mxCell>
                <mxCell id="Uaf2S9VRrsXDN28cyn4M-38" value="Admin" style="whiteSpace=wrap;html=1;align=center;fillColor=#dae8fc;strokeColor=#6c8ebf;" vertex="1" parent="1">
                    <mxGeometry x="-90" y="1230" width="80" height="40" as="geometry"/>
                </mxCell>
                <mxCell id="Uaf2S9VRrsXDN28cyn4M-39" value="1" style="edgeStyle=orthogonalEdgeStyle;shape=connector;rounded=1;jumpStyle=arc;jumpSize=13;html=1;strokeColor=default;align=center;verticalAlign=middle;fontFamily=Helvetica;fontSize=12;fontColor=default;labelBackgroundColor=default;endArrow=none;endFill=0;" edge="1" parent="1" source="Uaf2S9VRrsXDN28cyn4M-40" target="Uaf2S9VRrsXDN28cyn4M-42">
                    <mxGeometry relative="1" as="geometry">
                        <mxPoint x="150" y="640" as="targetPoint"/>
                        <Array as="points">
                            <mxPoint x="90" y="880"/>
                        </Array>
                    </mxGeometry>
                </mxCell>
                <mxCell id="Uaf2S9VRrsXDN28cyn4M-40" value="Order" style="whiteSpace=wrap;html=1;align=center;fillColor=#dae8fc;strokeColor=#6c8ebf;" vertex="1" parent="1">
                    <mxGeometry x="50" y="860" width="80" height="40" as="geometry"/>
                </mxCell>
                <mxCell id="Uaf2S9VRrsXDN28cyn4M-41" value="n" style="edgeStyle=orthogonalEdgeStyle;shape=connector;rounded=1;jumpStyle=arc;jumpSize=13;html=1;strokeColor=default;align=center;verticalAlign=middle;fontFamily=Helvetica;fontSize=12;fontColor=default;labelBackgroundColor=default;endArrow=none;endFill=0;" edge="1" parent="1" source="Uaf2S9VRrsXDN28cyn4M-42" target="Uaf2S9VRrsXDN28cyn4M-50">
                    <mxGeometry relative="1" as="geometry">
                        <mxPoint x="-20.000000000000227" y="600" as="targetPoint"/>
                        <Array as="points">
                            <mxPoint x="90" y="500"/>
                            <mxPoint x="90" y="390"/>
                        </Array>
                    </mxGeometry>
                </mxCell>
                <mxCell id="Uaf2S9VRrsXDN28cyn4M-42" value="" style="shape=rhombus;perimeter=rhombusPerimeter;whiteSpace=wrap;html=1;align=center;strokeColor=#d6b656;verticalAlign=middle;fontFamily=Helvetica;fontSize=12;fillColor=#fff2cc;" vertex="1" parent="1">
                    <mxGeometry x="50" y="480" width="80" height="40" as="geometry"/>
                </mxCell>
                <mxCell id="Uaf2S9VRrsXDN28cyn4M-43" value="n" style="edgeStyle=orthogonalEdgeStyle;shape=connector;rounded=1;jumpStyle=arc;jumpSize=13;html=1;strokeColor=default;align=center;verticalAlign=middle;fontFamily=Helvetica;fontSize=12;fontColor=default;labelBackgroundColor=default;endArrow=none;endFill=0;" edge="1" parent="1" source="Uaf2S9VRrsXDN28cyn4M-50" target="Uaf2S9VRrsXDN28cyn4M-63">
                    <mxGeometry relative="1" as="geometry">
                        <Array as="points">
                            <mxPoint x="200" y="380"/>
                        </Array>
                    </mxGeometry>
                </mxCell>
                <mxCell id="Uaf2S9VRrsXDN28cyn4M-44" value="n" style="edgeStyle=orthogonalEdgeStyle;shape=link;rounded=1;jumpStyle=arc;jumpSize=13;html=1;strokeColor=default;align=center;verticalAlign=middle;fontFamily=Helvetica;fontSize=12;fontColor=default;labelBackgroundColor=default;endArrow=none;endFill=0;" edge="1" parent="1" source="Uaf2S9VRrsXDN28cyn4M-50" target="Uaf2S9VRrsXDN28cyn4M-21">
                    <mxGeometry relative="1" as="geometry"/>
                </mxCell>
                <mxCell id="Uaf2S9VRrsXDN28cyn4M-45" style="edgeStyle=orthogonalEdgeStyle;shape=connector;rounded=1;jumpStyle=arc;jumpSize=13;html=1;strokeColor=default;align=center;verticalAlign=middle;fontFamily=Helvetica;fontSize=12;fontColor=default;labelBackgroundColor=default;endArrow=none;endFill=0;" edge="1" parent="1" source="Uaf2S9VRrsXDN28cyn4M-50" target="Uaf2S9VRrsXDN28cyn4M-189">
                    <mxGeometry relative="1" as="geometry">
                        <Array as="points">
                            <mxPoint x="-150" y="390"/>
                            <mxPoint x="-150" y="360"/>
                        </Array>
                    </mxGeometry>
                </mxCell>
                <mxCell id="Uaf2S9VRrsXDN28cyn4M-46" style="edgeStyle=orthogonalEdgeStyle;shape=connector;rounded=1;jumpStyle=arc;jumpSize=13;html=1;strokeColor=default;align=center;verticalAlign=middle;fontFamily=Helvetica;fontSize=12;fontColor=default;labelBackgroundColor=default;endArrow=none;endFill=0;" edge="1" parent="1" source="Uaf2S9VRrsXDN28cyn4M-50" target="Uaf2S9VRrsXDN28cyn4M-183">
                    <mxGeometry relative="1" as="geometry">
                        <Array as="points">
                            <mxPoint x="-150" y="390"/>
                            <mxPoint x="-150" y="420"/>
                        </Array>
                    </mxGeometry>
                </mxCell>
                <mxCell id="Uaf2S9VRrsXDN28cyn4M-47" style="edgeStyle=orthogonalEdgeStyle;shape=connector;rounded=1;jumpStyle=arc;jumpSize=13;html=1;strokeColor=default;align=center;verticalAlign=middle;fontFamily=Helvetica;fontSize=12;fontColor=default;labelBackgroundColor=default;endArrow=none;endFill=0;" edge="1" parent="1" source="Uaf2S9VRrsXDN28cyn4M-50" target="Uaf2S9VRrsXDN28cyn4M-182">
                    <mxGeometry relative="1" as="geometry">
                        <Array as="points">
                            <mxPoint x="-150" y="390"/>
                            <mxPoint x="-150" y="480"/>
                        </Array>
                    </mxGeometry>
                </mxCell>
                <mxCell id="Uaf2S9VRrsXDN28cyn4M-48" style="edgeStyle=orthogonalEdgeStyle;shape=connector;rounded=1;jumpStyle=arc;jumpSize=13;html=1;strokeColor=default;align=center;verticalAlign=middle;fontFamily=Helvetica;fontSize=12;fontColor=default;labelBackgroundColor=default;endArrow=none;endFill=0;" edge="1" parent="1">
                    <mxGeometry relative="1" as="geometry">
                        <mxPoint x="-120" y="390.0044827586207" as="sourcePoint"/>
                        <mxPoint x="-190.00007431634526" y="540.0044827586205" as="targetPoint"/>
                        <Array as="points">
                            <mxPoint x="-150" y="390"/>
                            <mxPoint x="-150" y="540"/>
                        </Array>
                    </mxGeometry>
                </mxCell>
                <mxCell id="Uaf2S9VRrsXDN28cyn4M-49" style="edgeStyle=orthogonalEdgeStyle;shape=connector;rounded=1;jumpStyle=arc;jumpSize=13;html=1;strokeColor=default;align=center;verticalAlign=middle;fontFamily=Helvetica;fontSize=12;fontColor=default;labelBackgroundColor=default;endArrow=none;endFill=0;" edge="1" parent="1" source="Uaf2S9VRrsXDN28cyn4M-50" target="Uaf2S9VRrsXDN28cyn4M-179">
                    <mxGeometry relative="1" as="geometry"/>
                </mxCell>
                <mxCell id="Uaf2S9VRrsXDN28cyn4M-50" value="OrderDetail" style="whiteSpace=wrap;html=1;align=center;fillColor=#dae8fc;strokeColor=#6c8ebf;" vertex="1" parent="1">
                    <mxGeometry x="-120" y="370" width="80" height="40" as="geometry"/>
                </mxCell>
                <mxCell id="Uaf2S9VRrsXDN28cyn4M-51" value="u" style="edgeStyle=orthogonalEdgeStyle;shape=connector;rounded=1;jumpStyle=arc;jumpSize=13;html=1;strokeColor=default;align=center;verticalAlign=middle;fontFamily=Helvetica;fontSize=12;fontColor=default;labelBackgroundColor=default;endArrow=none;endFill=0;" edge="1" parent="1" source="Uaf2S9VRrsXDN28cyn4M-54" target="Uaf2S9VRrsXDN28cyn4M-32">
                    <mxGeometry relative="1" as="geometry"/>
                </mxCell>
                <mxCell id="Uaf2S9VRrsXDN28cyn4M-52" style="edgeStyle=orthogonalEdgeStyle;shape=connector;rounded=1;jumpStyle=arc;jumpSize=13;html=1;strokeColor=default;align=center;verticalAlign=middle;fontFamily=Helvetica;fontSize=12;fontColor=default;labelBackgroundColor=default;endArrow=none;endFill=0;" edge="1" parent="1" source="Uaf2S9VRrsXDN28cyn4M-54" target="Uaf2S9VRrsXDN28cyn4M-36">
                    <mxGeometry relative="1" as="geometry"/>
                </mxCell>
                <mxCell id="Uaf2S9VRrsXDN28cyn4M-53" style="edgeStyle=orthogonalEdgeStyle;shape=connector;rounded=1;jumpStyle=arc;jumpSize=13;html=1;strokeColor=default;align=center;verticalAlign=middle;fontFamily=Helvetica;fontSize=12;fontColor=default;labelBackgroundColor=default;endArrow=none;endFill=0;" edge="1" parent="1" source="Uaf2S9VRrsXDN28cyn4M-54" target="Uaf2S9VRrsXDN28cyn4M-38">
                    <mxGeometry relative="1" as="geometry"/>
                </mxCell>
                <mxCell id="Uaf2S9VRrsXDN28cyn4M-54" value="" style="ellipse;whiteSpace=wrap;html=1;" vertex="1" parent="1">
                    <mxGeometry x="-205.03" y="1150" width="20" height="20" as="geometry"/>
                </mxCell>
                <mxCell id="Uaf2S9VRrsXDN28cyn4M-55" value="n" style="edgeStyle=orthogonalEdgeStyle;shape=connector;rounded=1;jumpStyle=arc;jumpSize=13;html=1;strokeColor=default;align=center;verticalAlign=middle;fontFamily=Helvetica;fontSize=12;fontColor=default;labelBackgroundColor=default;endArrow=none;endFill=0;" edge="1" parent="1" source="Uaf2S9VRrsXDN28cyn4M-57" target="Uaf2S9VRrsXDN28cyn4M-58">
                    <mxGeometry relative="1" as="geometry"/>
                </mxCell>
                <mxCell id="Uaf2S9VRrsXDN28cyn4M-56" value="1" style="edgeStyle=orthogonalEdgeStyle;shape=connector;rounded=1;jumpStyle=arc;jumpSize=13;html=1;strokeColor=default;align=center;verticalAlign=middle;fontFamily=Helvetica;fontSize=12;fontColor=default;labelBackgroundColor=default;endArrow=none;endFill=0;" edge="1" parent="1" source="Uaf2S9VRrsXDN28cyn4M-57" target="Uaf2S9VRrsXDN28cyn4M-40">
                    <mxGeometry relative="1" as="geometry">
                        <Array as="points">
                            <mxPoint x="100" y="1040"/>
                        </Array>
                    </mxGeometry>
                </mxCell>
                <mxCell id="Uaf2S9VRrsXDN28cyn4M-57" value="" style="shape=rhombus;perimeter=rhombusPerimeter;whiteSpace=wrap;html=1;align=center;strokeColor=#d6b656;verticalAlign=middle;fontFamily=Helvetica;fontSize=12;fillColor=#fff2cc;" vertex="1" parent="1">
                    <mxGeometry x="270" y="1020" width="80" height="40" as="geometry"/>
                </mxCell>
                <mxCell id="Uaf2S9VRrsXDN28cyn4M-58" value="Payment" style="whiteSpace=wrap;html=1;align=center;fillColor=#dae8fc;strokeColor=#6c8ebf;" vertex="1" parent="1">
                    <mxGeometry x="455" y="1030" width="80" height="40" as="geometry"/>
                </mxCell>
                <mxCell id="Uaf2S9VRrsXDN28cyn4M-59" value="n" style="edgeStyle=orthogonalEdgeStyle;shape=connector;rounded=1;jumpStyle=arc;jumpSize=13;html=1;strokeColor=default;align=center;verticalAlign=middle;fontFamily=Helvetica;fontSize=12;fontColor=default;labelBackgroundColor=default;endArrow=none;endFill=0;" edge="1" parent="1" source="Uaf2S9VRrsXDN28cyn4M-60" target="Uaf2S9VRrsXDN28cyn4M-50">
                    <mxGeometry relative="1" as="geometry">
                        <Array as="points">
                            <mxPoint x="80" y="330"/>
                            <mxPoint x="-60" y="330"/>
                        </Array>
                    </mxGeometry>
                </mxCell>
                <mxCell id="Uaf2S9VRrsXDN28cyn4M-60" value="" style="shape=rhombus;perimeter=rhombusPerimeter;whiteSpace=wrap;html=1;align=center;strokeColor=#d6b656;verticalAlign=middle;fontFamily=Helvetica;fontSize=12;fillColor=#fff2cc;" vertex="1" parent="1">
                    <mxGeometry x="140" y="280" width="80" height="40" as="geometry"/>
                </mxCell>
                <mxCell id="Uaf2S9VRrsXDN28cyn4M-61" value="Product" style="whiteSpace=wrap;html=1;align=center;fillColor=#dae8fc;strokeColor=#6c8ebf;" vertex="1" parent="1">
                    <mxGeometry x="340" y="540" width="80" height="40" as="geometry"/>
                </mxCell>
                <mxCell id="Uaf2S9VRrsXDN28cyn4M-62" value="1" style="edgeStyle=orthogonalEdgeStyle;shape=connector;rounded=1;jumpStyle=arc;jumpSize=13;html=1;strokeColor=default;align=center;verticalAlign=middle;fontFamily=Helvetica;fontSize=12;fontColor=default;labelBackgroundColor=default;endArrow=none;endFill=0;" edge="1" parent="1" source="Uaf2S9VRrsXDN28cyn4M-63" target="Uaf2S9VRrsXDN28cyn4M-61">
                    <mxGeometry relative="1" as="geometry"/>
                </mxCell>
                <mxCell id="Uaf2S9VRrsXDN28cyn4M-63" value="" style="shape=rhombus;perimeter=rhombusPerimeter;whiteSpace=wrap;html=1;align=center;strokeColor=#d6b656;verticalAlign=middle;fontFamily=Helvetica;fontSize=12;fillColor=#fff2cc;" vertex="1" parent="1">
                    <mxGeometry x="160" y="540" width="80" height="40" as="geometry"/>
                </mxCell>
                <mxCell id="Uaf2S9VRrsXDN28cyn4M-64" value="contact" style="whiteSpace=wrap;html=1;align=center;fillColor=#dae8fc;strokeColor=#6c8ebf;" vertex="1" parent="1">
                    <mxGeometry x="-90" y="1460" width="80" height="40" as="geometry"/>
                </mxCell>
                <mxCell id="Uaf2S9VRrsXDN28cyn4M-65" value="1" style="edgeStyle=orthogonalEdgeStyle;shape=connector;rounded=1;jumpStyle=arc;jumpSize=13;html=1;strokeColor=default;align=center;verticalAlign=middle;fontFamily=Helvetica;fontSize=12;fontColor=default;labelBackgroundColor=default;endArrow=none;endFill=0;" edge="1" parent="1" source="Uaf2S9VRrsXDN28cyn4M-66" target="Uaf2S9VRrsXDN28cyn4M-64">
                    <mxGeometry relative="1" as="geometry"/>
                </mxCell>
                <mxCell id="Uaf2S9VRrsXDN28cyn4M-66" value="" style="shape=rhombus;perimeter=rhombusPerimeter;whiteSpace=wrap;html=1;align=center;strokeColor=#d6b656;verticalAlign=middle;fontFamily=Helvetica;fontSize=12;fillColor=#fff2cc;" vertex="1" parent="1">
                    <mxGeometry x="-90" y="1340" width="80" height="40" as="geometry"/>
                </mxCell>
                <mxCell id="Uaf2S9VRrsXDN28cyn4M-67" style="edgeStyle=orthogonalEdgeStyle;shape=connector;rounded=1;jumpStyle=arc;jumpSize=13;html=1;strokeColor=default;align=center;verticalAlign=middle;fontFamily=Helvetica;fontSize=12;fontColor=default;labelBackgroundColor=default;endArrow=none;endFill=0;" edge="1" parent="1" source="Uaf2S9VRrsXDN28cyn4M-68" target="Uaf2S9VRrsXDN28cyn4M-1">
                    <mxGeometry relative="1" as="geometry">
                        <Array as="points">
                            <mxPoint x="-300" y="-50"/>
                            <mxPoint x="-300" y="-50"/>
                        </Array>
                    </mxGeometry>
                </mxCell>
                <mxCell id="Uaf2S9VRrsXDN28cyn4M-68" value="&lt;span&gt;id&lt;/span&gt;" style="ellipse;whiteSpace=wrap;html=1;align=center;fontStyle=4;fillColor=#d5e8d4;strokeColor=#82b366;" vertex="1" parent="1">
                    <mxGeometry x="-360" y="-140" width="100" height="40" as="geometry"/>
                </mxCell>
                <mxCell id="Uaf2S9VRrsXDN28cyn4M-69" style="edgeStyle=orthogonalEdgeStyle;shape=connector;rounded=1;jumpStyle=arc;jumpSize=13;html=1;strokeColor=default;align=center;verticalAlign=middle;fontFamily=Helvetica;fontSize=12;fontColor=default;labelBackgroundColor=default;endArrow=none;endFill=0;" edge="1" parent="1" source="Uaf2S9VRrsXDN28cyn4M-70" target="Uaf2S9VRrsXDN28cyn4M-1">
                    <mxGeometry relative="1" as="geometry">
                        <Array as="points">
                            <mxPoint x="-320" y="-30"/>
                        </Array>
                    </mxGeometry>
                </mxCell>
                <mxCell id="Uaf2S9VRrsXDN28cyn4M-70" value="status" style="ellipse;whiteSpace=wrap;html=1;align=center;fontStyle=0" vertex="1" parent="1">
                    <mxGeometry x="-590" y="-50" width="100" height="40" as="geometry"/>
                </mxCell>
                <mxCell id="Uaf2S9VRrsXDN28cyn4M-71" style="edgeStyle=orthogonalEdgeStyle;shape=connector;rounded=1;jumpStyle=arc;jumpSize=13;html=1;strokeColor=default;align=center;verticalAlign=middle;fontFamily=Helvetica;fontSize=12;fontColor=default;labelBackgroundColor=default;endArrow=none;endFill=0;" edge="1" parent="1" source="Uaf2S9VRrsXDN28cyn4M-72" target="Uaf2S9VRrsXDN28cyn4M-1">
                    <mxGeometry relative="1" as="geometry">
                        <Array as="points">
                            <mxPoint x="-330" y="30"/>
                        </Array>
                    </mxGeometry>
                </mxCell>
                <mxCell id="Uaf2S9VRrsXDN28cyn4M-72" value="end_date" style="ellipse;whiteSpace=wrap;html=1;align=center;fontStyle=0" vertex="1" parent="1">
                    <mxGeometry x="-582.5" y="10" width="100" height="40" as="geometry"/>
                </mxCell>
                <mxCell id="Uaf2S9VRrsXDN28cyn4M-73" value="description" style="ellipse;whiteSpace=wrap;html=1;align=center;fontStyle=0" vertex="1" parent="1">
                    <mxGeometry x="-470" y="40" width="100" height="40" as="geometry"/>
                </mxCell>
                <mxCell id="Uaf2S9VRrsXDN28cyn4M-74" value="title" style="ellipse;whiteSpace=wrap;html=1;align=center;fontStyle=0" vertex="1" parent="1">
                    <mxGeometry x="-470" y="-20" width="100" height="40" as="geometry"/>
                </mxCell>
                <mxCell id="Uaf2S9VRrsXDN28cyn4M-75" style="edgeStyle=orthogonalEdgeStyle;shape=connector;rounded=1;jumpStyle=arc;jumpSize=13;html=1;strokeColor=default;align=center;verticalAlign=middle;fontFamily=Helvetica;fontSize=12;fontColor=default;labelBackgroundColor=default;endArrow=none;endFill=0;" edge="1" parent="1" source="Uaf2S9VRrsXDN28cyn4M-76" target="Uaf2S9VRrsXDN28cyn4M-1">
                    <mxGeometry relative="1" as="geometry">
                        <Array as="points">
                            <mxPoint x="-330" y="180"/>
                        </Array>
                    </mxGeometry>
                </mxCell>
                <mxCell id="Uaf2S9VRrsXDN28cyn4M-76" value="update_at" style="ellipse;whiteSpace=wrap;html=1;align=center;fontStyle=0" vertex="1" parent="1">
                    <mxGeometry x="-470" y="160" width="100" height="40" as="geometry"/>
                </mxCell>
                <mxCell id="Uaf2S9VRrsXDN28cyn4M-77" style="edgeStyle=orthogonalEdgeStyle;shape=connector;rounded=1;jumpStyle=arc;jumpSize=13;html=1;strokeColor=default;align=center;verticalAlign=middle;fontFamily=Helvetica;fontSize=12;fontColor=default;labelBackgroundColor=default;endArrow=none;endFill=0;" edge="1" parent="1" source="Uaf2S9VRrsXDN28cyn4M-78" target="Uaf2S9VRrsXDN28cyn4M-1">
                    <mxGeometry relative="1" as="geometry"/>
                </mxCell>
                <mxCell id="Uaf2S9VRrsXDN28cyn4M-78" value="created_at" style="ellipse;whiteSpace=wrap;html=1;align=center;fontStyle=0" vertex="1" parent="1">
                    <mxGeometry x="-470" y="220" width="100" height="40" as="geometry"/>
                </mxCell>
                <mxCell id="Uaf2S9VRrsXDN28cyn4M-79" style="edgeStyle=orthogonalEdgeStyle;shape=connector;rounded=1;jumpStyle=arc;jumpSize=13;html=1;strokeColor=default;align=center;verticalAlign=middle;fontFamily=Helvetica;fontSize=12;fontColor=default;labelBackgroundColor=default;endArrow=none;endFill=0;" edge="1" parent="1" source="Uaf2S9VRrsXDN28cyn4M-80" target="Uaf2S9VRrsXDN28cyn4M-1">
                    <mxGeometry relative="1" as="geometry">
                        <Array as="points">
                            <mxPoint x="-320" y="210"/>
                        </Array>
                    </mxGeometry>
                </mxCell>
                <mxCell id="Uaf2S9VRrsXDN28cyn4M-80" value="country" style="ellipse;whiteSpace=wrap;html=1;align=center;fontStyle=0" vertex="1" parent="1">
                    <mxGeometry x="-580" y="190" width="100" height="40" as="geometry"/>
                </mxCell>
                <mxCell id="Uaf2S9VRrsXDN28cyn4M-81" style="edgeStyle=orthogonalEdgeStyle;shape=connector;rounded=1;jumpStyle=arc;jumpSize=13;html=1;strokeColor=default;align=center;verticalAlign=middle;fontFamily=Helvetica;fontSize=12;fontColor=default;labelBackgroundColor=default;endArrow=none;endFill=0;" edge="1" parent="1" source="Uaf2S9VRrsXDN28cyn4M-82" target="Uaf2S9VRrsXDN28cyn4M-1">
                    <mxGeometry relative="1" as="geometry"/>
                </mxCell>
                <mxCell id="Uaf2S9VRrsXDN28cyn4M-82" value="filename" style="ellipse;whiteSpace=wrap;html=1;align=center;fontStyle=0" vertex="1" parent="1">
                    <mxGeometry x="-470" y="-80" width="100" height="40" as="geometry"/>
                </mxCell>
                <mxCell id="Uaf2S9VRrsXDN28cyn4M-83" style="edgeStyle=orthogonalEdgeStyle;shape=connector;rounded=1;jumpStyle=arc;jumpSize=13;html=1;strokeColor=default;align=center;verticalAlign=middle;fontFamily=Helvetica;fontSize=12;fontColor=default;labelBackgroundColor=default;endArrow=none;endFill=0;" edge="1" parent="1" source="Uaf2S9VRrsXDN28cyn4M-84" target="Uaf2S9VRrsXDN28cyn4M-1">
                    <mxGeometry relative="1" as="geometry">
                        <Array as="points">
                            <mxPoint x="-340" y="150"/>
                        </Array>
                    </mxGeometry>
                </mxCell>
                <mxCell id="Uaf2S9VRrsXDN28cyn4M-84" value="duration" style="ellipse;whiteSpace=wrap;html=1;align=center;fontStyle=0" vertex="1" parent="1">
                    <mxGeometry x="-580" y="130" width="100" height="40" as="geometry"/>
                </mxCell>
                <mxCell id="Uaf2S9VRrsXDN28cyn4M-85" style="edgeStyle=orthogonalEdgeStyle;shape=connector;rounded=1;jumpStyle=arc;jumpSize=13;html=1;strokeColor=default;align=center;verticalAlign=middle;fontFamily=Helvetica;fontSize=12;fontColor=default;labelBackgroundColor=default;endArrow=none;endFill=0;" edge="1" parent="1" source="Uaf2S9VRrsXDN28cyn4M-86" target="Uaf2S9VRrsXDN28cyn4M-1">
                    <mxGeometry relative="1" as="geometry">
                        <Array as="points">
                            <mxPoint x="-340" y="90"/>
                        </Array>
                    </mxGeometry>
                </mxCell>
                <mxCell id="Uaf2S9VRrsXDN28cyn4M-86" value="start_date" style="ellipse;whiteSpace=wrap;html=1;align=center;fontStyle=0" vertex="1" parent="1">
                    <mxGeometry x="-580" y="70" width="100" height="40" as="geometry"/>
                </mxCell>
                <mxCell id="Uaf2S9VRrsXDN28cyn4M-87" style="edgeStyle=orthogonalEdgeStyle;shape=connector;rounded=1;jumpStyle=arc;jumpSize=13;html=1;strokeColor=default;align=center;verticalAlign=middle;fontFamily=Helvetica;fontSize=12;fontColor=default;labelBackgroundColor=default;endArrow=none;endFill=0;" edge="1" parent="1" source="Uaf2S9VRrsXDN28cyn4M-88" target="Uaf2S9VRrsXDN28cyn4M-1">
                    <mxGeometry relative="1" as="geometry">
                        <Array as="points">
                            <mxPoint x="-380" y="120"/>
                            <mxPoint x="-380" y="120"/>
                        </Array>
                    </mxGeometry>
                </mxCell>
                <mxCell id="Uaf2S9VRrsXDN28cyn4M-88" value="type" style="ellipse;whiteSpace=wrap;html=1;align=center;fontStyle=0" vertex="1" parent="1">
                    <mxGeometry x="-470" y="100" width="100" height="40" as="geometry"/>
                </mxCell>
                <mxCell id="Uaf2S9VRrsXDN28cyn4M-89" value="classification" style="ellipse;whiteSpace=wrap;html=1;align=center;fontStyle=0" vertex="1" parent="1">
                    <mxGeometry x="-580" y="260" width="100" height="40" as="geometry"/>
                </mxCell>
                <mxCell id="Uaf2S9VRrsXDN28cyn4M-90" style="edgeStyle=orthogonalEdgeStyle;shape=connector;rounded=1;jumpStyle=arc;jumpSize=13;html=1;entryX=0.65;entryY=0.9;entryDx=0;entryDy=0;entryPerimeter=0;strokeColor=default;align=center;verticalAlign=middle;fontFamily=Helvetica;fontSize=12;fontColor=default;labelBackgroundColor=default;endArrow=none;endFill=0;" edge="1" parent="1" source="Uaf2S9VRrsXDN28cyn4M-89" target="Uaf2S9VRrsXDN28cyn4M-1">
                    <mxGeometry relative="1" as="geometry"/>
                </mxCell>
                <mxCell id="Uaf2S9VRrsXDN28cyn4M-91" value="password" style="ellipse;whiteSpace=wrap;html=1;align=center;fontStyle=0" vertex="1" parent="1">
                    <mxGeometry x="-420" y="1400" width="100" height="40" as="geometry"/>
                </mxCell>
                <mxCell id="Uaf2S9VRrsXDN28cyn4M-92" style="edgeStyle=orthogonalEdgeStyle;shape=connector;rounded=1;jumpStyle=arc;jumpSize=13;html=1;strokeColor=default;align=center;verticalAlign=middle;fontFamily=Helvetica;fontSize=12;fontColor=default;labelBackgroundColor=default;endArrow=none;endFill=0;" edge="1" parent="1" source="Uaf2S9VRrsXDN28cyn4M-93" target="Uaf2S9VRrsXDN28cyn4M-32">
                    <mxGeometry relative="1" as="geometry">
                        <mxPoint x="-240" y="1230" as="targetPoint"/>
                        <Array as="points">
                            <mxPoint x="-300" y="1230"/>
                            <mxPoint x="-300" y="1230"/>
                        </Array>
                    </mxGeometry>
                </mxCell>
                <mxCell id="Uaf2S9VRrsXDN28cyn4M-93" value="&lt;span&gt;id&lt;/span&gt;" style="ellipse;whiteSpace=wrap;html=1;align=center;fontStyle=4;fillColor=#d5e8d4;strokeColor=#82b366;" vertex="1" parent="1">
                    <mxGeometry x="-570" y="1210" width="100" height="40" as="geometry"/>
                </mxCell>
                <mxCell id="Uaf2S9VRrsXDN28cyn4M-94" style="edgeStyle=orthogonalEdgeStyle;shape=connector;rounded=1;jumpStyle=arc;jumpSize=13;html=1;strokeColor=default;align=center;verticalAlign=middle;fontFamily=Helvetica;fontSize=12;fontColor=default;labelBackgroundColor=default;endArrow=none;endFill=0;" edge="1" parent="1" source="Uaf2S9VRrsXDN28cyn4M-95" target="Uaf2S9VRrsXDN28cyn4M-36">
                    <mxGeometry relative="1" as="geometry">
                        <Array as="points">
                            <mxPoint x="-225.03" y="1150"/>
                        </Array>
                    </mxGeometry>
                </mxCell>
                <mxCell id="Uaf2S9VRrsXDN28cyn4M-95" value="phone" style="ellipse;whiteSpace=wrap;html=1;align=center;fontStyle=0" vertex="1" parent="1">
                    <mxGeometry x="-595.03" y="1130" width="100" height="40" as="geometry"/>
                </mxCell>
                <mxCell id="Uaf2S9VRrsXDN28cyn4M-96" style="edgeStyle=orthogonalEdgeStyle;shape=connector;rounded=1;jumpStyle=arc;jumpSize=13;html=1;strokeColor=default;align=center;verticalAlign=middle;fontFamily=Helvetica;fontSize=12;fontColor=default;labelBackgroundColor=default;endArrow=none;endFill=0;" edge="1" parent="1" source="Uaf2S9VRrsXDN28cyn4M-97" target="Uaf2S9VRrsXDN28cyn4M-36">
                    <mxGeometry relative="1" as="geometry">
                        <Array as="points">
                            <mxPoint x="-315.03" y="1060"/>
                            <mxPoint x="-315.03" y="1090"/>
                        </Array>
                    </mxGeometry>
                </mxCell>
                <mxCell id="Uaf2S9VRrsXDN28cyn4M-97" value="name" style="ellipse;whiteSpace=wrap;html=1;align=center;fontStyle=0" vertex="1" parent="1">
                    <mxGeometry x="-495.03" y="1040" width="100" height="40" as="geometry"/>
                </mxCell>
                <mxCell id="Uaf2S9VRrsXDN28cyn4M-98" style="edgeStyle=orthogonalEdgeStyle;shape=connector;rounded=1;jumpStyle=arc;jumpSize=13;html=1;strokeColor=default;align=center;verticalAlign=middle;fontFamily=Helvetica;fontSize=12;fontColor=default;labelBackgroundColor=default;endArrow=none;endFill=0;" edge="1" parent="1" source="Uaf2S9VRrsXDN28cyn4M-99" target="Uaf2S9VRrsXDN28cyn4M-32">
                    <mxGeometry relative="1" as="geometry">
                        <Array as="points">
                            <mxPoint x="-375.03" y="1250"/>
                        </Array>
                    </mxGeometry>
                </mxCell>
                <mxCell id="Uaf2S9VRrsXDN28cyn4M-99" value="email" style="ellipse;whiteSpace=wrap;html=1;align=center;fontStyle=0" vertex="1" parent="1">
                    <mxGeometry x="-425.03" y="1350" width="100" height="40" as="geometry"/>
                </mxCell>
                <mxCell id="Uaf2S9VRrsXDN28cyn4M-100" style="edgeStyle=orthogonalEdgeStyle;shape=connector;rounded=1;jumpStyle=arc;jumpSize=13;html=1;strokeColor=default;align=center;verticalAlign=middle;fontFamily=Helvetica;fontSize=12;fontColor=default;labelBackgroundColor=default;endArrow=none;endFill=0;" edge="1" parent="1" source="Uaf2S9VRrsXDN28cyn4M-101" target="Uaf2S9VRrsXDN28cyn4M-32">
                    <mxGeometry relative="1" as="geometry">
                        <Array as="points">
                            <mxPoint x="-435.03" y="1240"/>
                        </Array>
                    </mxGeometry>
                </mxCell>
                <mxCell id="Uaf2S9VRrsXDN28cyn4M-101" value="username" style="ellipse;whiteSpace=wrap;html=1;align=center;fontStyle=0" vertex="1" parent="1">
                    <mxGeometry x="-485.03" y="1300" width="100" height="40" as="geometry"/>
                </mxCell>
                <mxCell id="Uaf2S9VRrsXDN28cyn4M-102" style="edgeStyle=orthogonalEdgeStyle;shape=connector;rounded=1;jumpStyle=arc;jumpSize=13;html=1;strokeColor=default;align=center;verticalAlign=middle;fontFamily=Helvetica;fontSize=12;fontColor=default;labelBackgroundColor=default;endArrow=none;endFill=0;" edge="1" parent="1" source="Uaf2S9VRrsXDN28cyn4M-103" target="Uaf2S9VRrsXDN28cyn4M-32">
                    <mxGeometry relative="1" as="geometry">
                        <Array as="points">
                            <mxPoint x="-315.03" y="1260"/>
                        </Array>
                    </mxGeometry>
                </mxCell>
                <mxCell id="Uaf2S9VRrsXDN28cyn4M-103" value="role" style="ellipse;whiteSpace=wrap;html=1;align=center;fontStyle=0" vertex="1" parent="1">
                    <mxGeometry x="-365.03" y="1300" width="100" height="40" as="geometry"/>
                </mxCell>
                <mxCell id="Uaf2S9VRrsXDN28cyn4M-104" style="edgeStyle=orthogonalEdgeStyle;shape=connector;rounded=1;jumpStyle=arc;jumpSize=13;html=1;strokeColor=default;align=center;verticalAlign=middle;fontFamily=Helvetica;fontSize=12;fontColor=default;labelBackgroundColor=default;endArrow=none;endFill=0;" edge="1" parent="1" source="Uaf2S9VRrsXDN28cyn4M-105" target="Uaf2S9VRrsXDN28cyn4M-36">
                    <mxGeometry relative="1" as="geometry">
                        <Array as="points">
                            <mxPoint x="-305.03" y="1120"/>
                            <mxPoint x="-305.03" y="1110"/>
                        </Array>
                    </mxGeometry>
                </mxCell>
                <mxCell id="Uaf2S9VRrsXDN28cyn4M-105" value="address" style="ellipse;whiteSpace=wrap;html=1;align=center;fontStyle=0" vertex="1" parent="1">
                    <mxGeometry x="-485.03" y="1100" width="100" height="40" as="geometry"/>
                </mxCell>
                <mxCell id="Uaf2S9VRrsXDN28cyn4M-106" style="edgeStyle=orthogonalEdgeStyle;shape=connector;rounded=1;jumpStyle=arc;jumpSize=13;html=1;strokeColor=default;align=center;verticalAlign=middle;fontFamily=Helvetica;fontSize=12;fontColor=default;labelBackgroundColor=default;endArrow=none;endFill=0;" edge="1" parent="1" source="Uaf2S9VRrsXDN28cyn4M-107" target="Uaf2S9VRrsXDN28cyn4M-36">
                    <mxGeometry relative="1" as="geometry">
                        <Array as="points">
                            <mxPoint x="-215.03" y="1180"/>
                        </Array>
                    </mxGeometry>
                </mxCell>
                <mxCell id="Uaf2S9VRrsXDN28cyn4M-107" value="id_card" style="ellipse;whiteSpace=wrap;html=1;align=center;fontStyle=0" vertex="1" parent="1">
                    <mxGeometry x="-475.03" y="1160" width="100" height="40" as="geometry"/>
                </mxCell>
                <mxCell id="Uaf2S9VRrsXDN28cyn4M-108" style="edgeStyle=orthogonalEdgeStyle;shape=connector;rounded=1;jumpStyle=arc;jumpSize=13;html=1;strokeColor=default;align=center;verticalAlign=middle;fontFamily=Helvetica;fontSize=12;fontColor=default;labelBackgroundColor=default;endArrow=none;endFill=0;" edge="1" parent="1" source="Uaf2S9VRrsXDN28cyn4M-109" target="Uaf2S9VRrsXDN28cyn4M-36">
                    <mxGeometry relative="1" as="geometry"/>
                </mxCell>
                <mxCell id="Uaf2S9VRrsXDN28cyn4M-109" value="point" style="ellipse;whiteSpace=wrap;html=1;align=center;fontStyle=0" vertex="1" parent="1">
                    <mxGeometry x="-605.03" y="1070" width="100" height="40" as="geometry"/>
                </mxCell>
                <mxCell id="Uaf2S9VRrsXDN28cyn4M-110" style="edgeStyle=orthogonalEdgeStyle;shape=connector;rounded=1;jumpStyle=arc;jumpSize=13;html=1;strokeColor=default;align=center;verticalAlign=middle;fontFamily=Helvetica;fontSize=12;fontColor=default;labelBackgroundColor=default;endArrow=none;endFill=0;" edge="1" parent="1" source="Uaf2S9VRrsXDN28cyn4M-111" target="Uaf2S9VRrsXDN28cyn4M-32">
                    <mxGeometry relative="1" as="geometry">
                        <Array as="points">
                            <mxPoint x="-495.03" y="1280"/>
                            <mxPoint x="-225.03" y="1280"/>
                        </Array>
                    </mxGeometry>
                </mxCell>
                <mxCell id="Uaf2S9VRrsXDN28cyn4M-111" value="creeated_at" style="ellipse;whiteSpace=wrap;html=1;align=center;fontStyle=0" vertex="1" parent="1">
                    <mxGeometry x="-545.03" y="1350" width="100" height="40" as="geometry"/>
                </mxCell>
                <mxCell id="Uaf2S9VRrsXDN28cyn4M-112" value="user_token" style="whiteSpace=wrap;html=1;align=center;fillColor=#dae8fc;strokeColor=#6c8ebf;" vertex="1" parent="1">
                    <mxGeometry x="-235.03" y="1630" width="80" height="40" as="geometry"/>
                </mxCell>
                <mxCell id="Uaf2S9VRrsXDN28cyn4M-113" value="n" style="edgeStyle=orthogonalEdgeStyle;shape=connector;rounded=1;jumpStyle=arc;jumpSize=13;html=1;strokeColor=default;align=center;verticalAlign=middle;fontFamily=Helvetica;fontSize=12;fontColor=default;labelBackgroundColor=default;endArrow=none;endFill=0;" edge="1" parent="1" source="Uaf2S9VRrsXDN28cyn4M-114" target="Uaf2S9VRrsXDN28cyn4M-112">
                    <mxGeometry relative="1" as="geometry"/>
                </mxCell>
                <mxCell id="Uaf2S9VRrsXDN28cyn4M-114" value="" style="shape=rhombus;perimeter=rhombusPerimeter;whiteSpace=wrap;html=1;align=center;strokeColor=#d6b656;verticalAlign=middle;fontFamily=Helvetica;fontSize=12;fillColor=#fff2cc;" vertex="1" parent="1">
                    <mxGeometry x="-235.03" y="1510" width="80" height="40" as="geometry"/>
                </mxCell>
                <mxCell id="Uaf2S9VRrsXDN28cyn4M-115" style="edgeStyle=orthogonalEdgeStyle;shape=connector;rounded=1;jumpStyle=arc;jumpSize=13;html=1;strokeColor=default;align=center;verticalAlign=middle;fontFamily=Helvetica;fontSize=12;fontColor=default;labelBackgroundColor=default;endArrow=none;endFill=0;" edge="1" parent="1" source="Uaf2S9VRrsXDN28cyn4M-116" target="Uaf2S9VRrsXDN28cyn4M-112">
                    <mxGeometry relative="1" as="geometry"/>
                </mxCell>
                <mxCell id="Uaf2S9VRrsXDN28cyn4M-116" value="&lt;span&gt;id&lt;/span&gt;" style="ellipse;whiteSpace=wrap;html=1;align=center;fontStyle=4;fillColor=#d5e8d4;strokeColor=#82b366;" vertex="1" parent="1">
                    <mxGeometry x="-402.5" y="1710" width="100" height="40" as="geometry"/>
                </mxCell>
                <mxCell id="Uaf2S9VRrsXDN28cyn4M-117" value="selector" style="ellipse;whiteSpace=wrap;html=1;align=center;fontStyle=0" vertex="1" parent="1">
                    <mxGeometry x="-420" y="1800" width="100" height="40" as="geometry"/>
                </mxCell>
                <mxCell id="Uaf2S9VRrsXDN28cyn4M-118" style="edgeStyle=orthogonalEdgeStyle;shape=connector;rounded=1;jumpStyle=arc;jumpSize=13;html=1;strokeColor=default;align=center;verticalAlign=middle;fontFamily=Helvetica;fontSize=12;fontColor=default;labelBackgroundColor=default;endArrow=none;endFill=0;" edge="1" parent="1" source="Uaf2S9VRrsXDN28cyn4M-119" target="Uaf2S9VRrsXDN28cyn4M-112">
                    <mxGeometry relative="1" as="geometry">
                        <Array as="points">
                            <mxPoint x="-40" y="1750"/>
                        </Array>
                    </mxGeometry>
                </mxCell>
                <mxCell id="Uaf2S9VRrsXDN28cyn4M-119" value="type" style="ellipse;whiteSpace=wrap;html=1;align=center;fontStyle=0" vertex="1" parent="1">
                    <mxGeometry x="-90" y="1870" width="100" height="40" as="geometry"/>
                </mxCell>
                <mxCell id="Uaf2S9VRrsXDN28cyn4M-120" style="edgeStyle=orthogonalEdgeStyle;shape=connector;rounded=1;jumpStyle=arc;jumpSize=13;html=1;strokeColor=default;align=center;verticalAlign=middle;fontFamily=Helvetica;fontSize=12;fontColor=default;labelBackgroundColor=default;endArrow=none;endFill=0;" edge="1" parent="1" source="Uaf2S9VRrsXDN28cyn4M-121" target="Uaf2S9VRrsXDN28cyn4M-112">
                    <mxGeometry relative="1" as="geometry">
                        <Array as="points">
                            <mxPoint x="-220" y="1890"/>
                        </Array>
                    </mxGeometry>
                </mxCell>
                <mxCell id="Uaf2S9VRrsXDN28cyn4M-121" value="hashed_valitdator" style="ellipse;whiteSpace=wrap;html=1;align=center;fontStyle=0" vertex="1" parent="1">
                    <mxGeometry x="-230" y="1880" width="100" height="40" as="geometry"/>
                </mxCell>
                <mxCell id="Uaf2S9VRrsXDN28cyn4M-122" style="edgeStyle=orthogonalEdgeStyle;shape=connector;rounded=1;jumpStyle=arc;jumpSize=13;html=1;strokeColor=default;align=center;verticalAlign=middle;fontFamily=Helvetica;fontSize=12;fontColor=default;labelBackgroundColor=default;endArrow=none;endFill=0;" edge="1" parent="1" source="Uaf2S9VRrsXDN28cyn4M-123" target="Uaf2S9VRrsXDN28cyn4M-112">
                    <mxGeometry relative="1" as="geometry">
                        <Array as="points">
                            <mxPoint x="-280" y="1780"/>
                            <mxPoint x="-170" y="1780"/>
                        </Array>
                    </mxGeometry>
                </mxCell>
                <mxCell id="Uaf2S9VRrsXDN28cyn4M-123" value="expires_at" style="ellipse;whiteSpace=wrap;html=1;align=center;fontStyle=0" vertex="1" parent="1">
                    <mxGeometry x="-320" y="1830" width="100" height="40" as="geometry"/>
                </mxCell>
                <mxCell id="Uaf2S9VRrsXDN28cyn4M-124" style="edgeStyle=orthogonalEdgeStyle;shape=connector;rounded=1;jumpStyle=arc;jumpSize=13;html=1;strokeColor=default;align=center;verticalAlign=middle;fontFamily=Helvetica;fontSize=12;fontColor=default;labelBackgroundColor=default;endArrow=none;endFill=0;" edge="1" parent="1" source="Uaf2S9VRrsXDN28cyn4M-125" target="Uaf2S9VRrsXDN28cyn4M-112">
                    <mxGeometry relative="1" as="geometry">
                        <Array as="points">
                            <mxPoint x="20" y="1800"/>
                            <mxPoint x="-170" y="1800"/>
                        </Array>
                    </mxGeometry>
                </mxCell>
                <mxCell id="Uaf2S9VRrsXDN28cyn4M-125" value="created_at" style="ellipse;whiteSpace=wrap;html=1;align=center;fontStyle=0" vertex="1" parent="1">
                    <mxGeometry x="30" y="1780" width="100" height="40" as="geometry"/>
                </mxCell>
                <mxCell id="Uaf2S9VRrsXDN28cyn4M-126" value="&lt;span&gt;id&lt;/span&gt;" style="ellipse;whiteSpace=wrap;html=1;align=center;fontStyle=4;fillColor=#d5e8d4;strokeColor=#82b366;" vertex="1" parent="1">
                    <mxGeometry x="560" y="-115" width="100" height="40" as="geometry"/>
                </mxCell>
                <mxCell id="Uaf2S9VRrsXDN28cyn4M-127" value="open_time" style="ellipse;whiteSpace=wrap;html=1;align=center;fontStyle=0" vertex="1" parent="1">
                    <mxGeometry x="630" y="35" width="100" height="40" as="geometry"/>
                </mxCell>
                <mxCell id="Uaf2S9VRrsXDN28cyn4M-128" value="close_time" style="ellipse;whiteSpace=wrap;html=1;align=center;fontStyle=0" vertex="1" parent="1">
                    <mxGeometry x="620" y="95" width="100" height="40" as="geometry"/>
                </mxCell>
                <mxCell id="Uaf2S9VRrsXDN28cyn4M-129" value="location" style="ellipse;whiteSpace=wrap;html=1;align=center;fontStyle=0" vertex="1" parent="1">
                    <mxGeometry x="620" y="-25" width="100" height="40" as="geometry"/>
                </mxCell>
                <mxCell id="Uaf2S9VRrsXDN28cyn4M-130" value="name" style="ellipse;whiteSpace=wrap;html=1;align=center;fontStyle=0" vertex="1" parent="1">
                    <mxGeometry x="620" y="-75" width="100" height="40" as="geometry"/>
                </mxCell>
                <mxCell id="Uaf2S9VRrsXDN28cyn4M-132" value="user_id" style="ellipse;whiteSpace=wrap;html=1;align=center;fontStyle=0" vertex="1" parent="1">
                    <mxGeometry x="70" y="1590" width="100" height="40" as="geometry"/>
                </mxCell>
                <mxCell id="Uaf2S9VRrsXDN28cyn4M-133" value="&lt;span&gt;id&lt;/span&gt;" style="ellipse;whiteSpace=wrap;html=1;align=center;fontStyle=4;fillColor=#d5e8d4;strokeColor=#82b366;" vertex="1" parent="1">
                    <mxGeometry x="130" y="-140" width="100" height="40" as="geometry"/>
                </mxCell>
                <mxCell id="Uaf2S9VRrsXDN28cyn4M-134" value="name" style="ellipse;whiteSpace=wrap;html=1;align=center;fontStyle=0" vertex="1" parent="1">
                    <mxGeometry x="80" y="-80" width="100" height="40" as="geometry"/>
                </mxCell>
                <mxCell id="Uaf2S9VRrsXDN28cyn4M-135" value="cinema_id" style="ellipse;whiteSpace=wrap;html=1;align=center;fontStyle=0" vertex="1" parent="1">
                    <mxGeometry x="210" y="-90" width="100" height="40" as="geometry"/>
                </mxCell>
                <mxCell id="HF7piyMDNax-OQEe1KZA-2" style="edgeStyle=orthogonalEdgeStyle;shape=connector;rounded=1;jumpStyle=arc;jumpSize=13;html=1;strokeColor=default;align=center;verticalAlign=middle;fontFamily=Helvetica;fontSize=12;fontColor=default;labelBackgroundColor=default;endArrow=none;endFill=0;" edge="1" parent="1" source="Uaf2S9VRrsXDN28cyn4M-140" target="Uaf2S9VRrsXDN28cyn4M-27">
                    <mxGeometry relative="1" as="geometry">
                        <Array as="points">
                            <mxPoint x="370" y="100"/>
                            <mxPoint x="370" y="190"/>
                        </Array>
                    </mxGeometry>
                </mxCell>
                <mxCell id="Uaf2S9VRrsXDN28cyn4M-140" value="&lt;span&gt;id&lt;/span&gt;" style="ellipse;whiteSpace=wrap;html=1;align=center;fontStyle=4;fillColor=#d5e8d4;strokeColor=#82b366;" vertex="1" parent="1">
                    <mxGeometry x="435" y="80" width="100" height="40" as="geometry"/>
                </mxCell>
                <mxCell id="HF7piyMDNax-OQEe1KZA-4" style="edgeStyle=orthogonalEdgeStyle;shape=connector;rounded=1;jumpStyle=arc;jumpSize=13;html=1;strokeColor=default;align=center;verticalAlign=middle;fontFamily=Helvetica;fontSize=12;fontColor=default;labelBackgroundColor=default;endArrow=none;endFill=0;" edge="1" parent="1" source="Uaf2S9VRrsXDN28cyn4M-142" target="Uaf2S9VRrsXDN28cyn4M-27">
                    <mxGeometry relative="1" as="geometry"/>
                </mxCell>
                <mxCell id="Uaf2S9VRrsXDN28cyn4M-142" value="type" style="ellipse;whiteSpace=wrap;html=1;align=center;fontStyle=0" vertex="1" parent="1">
                    <mxGeometry x="430" y="190" width="100" height="40" as="geometry"/>
                </mxCell>
                <mxCell id="HF7piyMDNax-OQEe1KZA-5" style="edgeStyle=orthogonalEdgeStyle;shape=connector;rounded=1;jumpStyle=arc;jumpSize=13;html=1;strokeColor=default;align=center;verticalAlign=middle;fontFamily=Helvetica;fontSize=12;fontColor=default;labelBackgroundColor=default;endArrow=none;endFill=0;" edge="1" parent="1" source="Uaf2S9VRrsXDN28cyn4M-143" target="Uaf2S9VRrsXDN28cyn4M-27">
                    <mxGeometry relative="1" as="geometry"/>
                </mxCell>
                <mxCell id="Uaf2S9VRrsXDN28cyn4M-143" value="col" style="ellipse;whiteSpace=wrap;html=1;align=center;fontStyle=0" vertex="1" parent="1">
                    <mxGeometry x="340" y="240" width="100" height="40" as="geometry"/>
                </mxCell>
                <mxCell id="HF7piyMDNax-OQEe1KZA-3" style="edgeStyle=orthogonalEdgeStyle;shape=connector;rounded=1;jumpStyle=arc;jumpSize=13;html=1;strokeColor=default;align=center;verticalAlign=middle;fontFamily=Helvetica;fontSize=12;fontColor=default;labelBackgroundColor=default;endArrow=none;endFill=0;" edge="1" parent="1" source="Uaf2S9VRrsXDN28cyn4M-144" target="Uaf2S9VRrsXDN28cyn4M-27">
                    <mxGeometry relative="1" as="geometry"/>
                </mxCell>
                <mxCell id="Uaf2S9VRrsXDN28cyn4M-144" value="code" style="ellipse;whiteSpace=wrap;html=1;align=center;fontStyle=0" vertex="1" parent="1">
                    <mxGeometry x="430" y="130" width="100" height="40" as="geometry"/>
                </mxCell>
                <mxCell id="Uaf2S9VRrsXDN28cyn4M-145" value="room_id" style="ellipse;whiteSpace=wrap;html=1;align=center;fontStyle=0" vertex="1" parent="1">
                    <mxGeometry x="460" y="250" width="100" height="40" as="geometry"/>
                </mxCell>
                <mxCell id="HF7piyMDNax-OQEe1KZA-6" style="edgeStyle=orthogonalEdgeStyle;shape=connector;rounded=1;jumpStyle=arc;jumpSize=13;html=1;strokeColor=default;align=center;verticalAlign=middle;fontFamily=Helvetica;fontSize=12;fontColor=default;labelBackgroundColor=default;endArrow=none;endFill=0;" edge="1" parent="1" source="Uaf2S9VRrsXDN28cyn4M-147" target="Uaf2S9VRrsXDN28cyn4M-27">
                    <mxGeometry relative="1" as="geometry"/>
                </mxCell>
                <mxCell id="Uaf2S9VRrsXDN28cyn4M-147" value="price" style="ellipse;whiteSpace=wrap;html=1;align=center;fontStyle=0" vertex="1" parent="1">
                    <mxGeometry x="220" y="240" width="100" height="40" as="geometry"/>
                </mxCell>
                <mxCell id="Uaf2S9VRrsXDN28cyn4M-148" style="edgeStyle=orthogonalEdgeStyle;shape=connector;rounded=1;jumpStyle=arc;jumpSize=13;html=1;entryX=0.25;entryY=0;entryDx=0;entryDy=0;strokeColor=default;align=center;verticalAlign=middle;fontFamily=Helvetica;fontSize=12;fontColor=default;labelBackgroundColor=default;endArrow=none;endFill=0;" edge="1" parent="1" source="Uaf2S9VRrsXDN28cyn4M-149" target="Uaf2S9VRrsXDN28cyn4M-19">
                    <mxGeometry relative="1" as="geometry"/>
                </mxCell>
                <mxCell id="Uaf2S9VRrsXDN28cyn4M-149" value="&lt;span&gt;id&lt;/span&gt;" style="ellipse;whiteSpace=wrap;html=1;align=center;fontStyle=4;fillColor=#d5e8d4;strokeColor=#82b366;" vertex="1" parent="1">
                    <mxGeometry x="-150" y="-20" width="100" height="40" as="geometry"/>
                </mxCell>
                <mxCell id="Uaf2S9VRrsXDN28cyn4M-150" style="edgeStyle=orthogonalEdgeStyle;shape=connector;rounded=1;jumpStyle=arc;jumpSize=13;html=1;strokeColor=default;align=center;verticalAlign=middle;fontFamily=Helvetica;fontSize=12;fontColor=default;labelBackgroundColor=default;endArrow=none;endFill=0;" edge="1" parent="1" source="Uaf2S9VRrsXDN28cyn4M-151" target="Uaf2S9VRrsXDN28cyn4M-19">
                    <mxGeometry relative="1" as="geometry">
                        <Array as="points">
                            <mxPoint x="10" y="90"/>
                            <mxPoint x="-80" y="90"/>
                        </Array>
                    </mxGeometry>
                </mxCell>
                <mxCell id="Uaf2S9VRrsXDN28cyn4M-151" value="room_id" style="ellipse;whiteSpace=wrap;html=1;align=center;fontStyle=0" vertex="1" parent="1">
                    <mxGeometry x="-30" y="-20" width="100" height="40" as="geometry"/>
                </mxCell>
                <mxCell id="Uaf2S9VRrsXDN28cyn4M-152" style="edgeStyle=orthogonalEdgeStyle;shape=connector;rounded=1;jumpStyle=arc;jumpSize=13;html=1;strokeColor=default;align=center;verticalAlign=middle;fontFamily=Helvetica;fontSize=12;fontColor=default;labelBackgroundColor=default;endArrow=none;endFill=0;" edge="1" parent="1" source="Uaf2S9VRrsXDN28cyn4M-153" target="Uaf2S9VRrsXDN28cyn4M-19">
                    <mxGeometry relative="1" as="geometry">
                        <Array as="points">
                            <mxPoint x="80" y="100"/>
                        </Array>
                    </mxGeometry>
                </mxCell>
                <mxCell id="Uaf2S9VRrsXDN28cyn4M-153" value="end_time" style="ellipse;whiteSpace=wrap;html=1;align=center;fontStyle=0" vertex="1" parent="1">
                    <mxGeometry x="20" y="40" width="100" height="40" as="geometry"/>
                </mxCell>
                <mxCell id="Uaf2S9VRrsXDN28cyn4M-154" style="edgeStyle=orthogonalEdgeStyle;shape=connector;rounded=1;jumpStyle=arc;jumpSize=13;html=1;strokeColor=default;align=center;verticalAlign=middle;fontFamily=Helvetica;fontSize=12;fontColor=default;labelBackgroundColor=default;endArrow=none;endFill=0;" edge="1" parent="1" source="Uaf2S9VRrsXDN28cyn4M-155" target="Uaf2S9VRrsXDN28cyn4M-19">
                    <mxGeometry relative="1" as="geometry">
                        <Array as="points">
                            <mxPoint x="-210" y="30"/>
                            <mxPoint x="-110" y="30"/>
                        </Array>
                    </mxGeometry>
                </mxCell>
                <mxCell id="Uaf2S9VRrsXDN28cyn4M-155" value="media_id" style="ellipse;whiteSpace=wrap;html=1;align=center;fontStyle=0" vertex="1" parent="1">
                    <mxGeometry x="-260" y="-20" width="100" height="40" as="geometry"/>
                </mxCell>
                <mxCell id="Uaf2S9VRrsXDN28cyn4M-156" style="edgeStyle=orthogonalEdgeStyle;shape=connector;rounded=1;jumpStyle=arc;jumpSize=13;html=1;strokeColor=default;align=center;verticalAlign=middle;fontFamily=Helvetica;fontSize=12;fontColor=default;labelBackgroundColor=default;endArrow=none;endFill=0;" edge="1" parent="1" source="Uaf2S9VRrsXDN28cyn4M-157" target="Uaf2S9VRrsXDN28cyn4M-19">
                    <mxGeometry relative="1" as="geometry">
                        <Array as="points">
                            <mxPoint x="-40" y="80"/>
                            <mxPoint x="-90" y="80"/>
                        </Array>
                    </mxGeometry>
                </mxCell>
                <mxCell id="Uaf2S9VRrsXDN28cyn4M-157" value="start_time" style="ellipse;whiteSpace=wrap;html=1;align=center;fontStyle=0" vertex="1" parent="1">
                    <mxGeometry x="-90" y="30" width="100" height="40" as="geometry"/>
                </mxCell>
                <mxCell id="Uaf2S9VRrsXDN28cyn4M-158" style="edgeStyle=orthogonalEdgeStyle;shape=connector;rounded=1;jumpStyle=arc;jumpSize=13;html=1;strokeColor=default;align=center;verticalAlign=middle;fontFamily=Helvetica;fontSize=12;fontColor=default;labelBackgroundColor=default;endArrow=none;endFill=0;" edge="1" parent="1" source="Uaf2S9VRrsXDN28cyn4M-159" target="Uaf2S9VRrsXDN28cyn4M-19">
                    <mxGeometry relative="1" as="geometry">
                        <Array as="points">
                            <mxPoint x="-160" y="90"/>
                            <mxPoint x="-120" y="90"/>
                        </Array>
                    </mxGeometry>
                </mxCell>
                <mxCell id="Uaf2S9VRrsXDN28cyn4M-159" value="date" style="ellipse;whiteSpace=wrap;html=1;align=center;fontStyle=0" vertex="1" parent="1">
                    <mxGeometry x="-220" y="40" width="100" height="40" as="geometry"/>
                </mxCell>
                <mxCell id="Uaf2S9VRrsXDN28cyn4M-160" value="&lt;span&gt;id&lt;/span&gt;" style="ellipse;whiteSpace=wrap;html=1;align=center;fontStyle=4;fillColor=#d5e8d4;strokeColor=#82b366;" vertex="1" parent="1">
                    <mxGeometry x="80" y="1470" width="100" height="40" as="geometry"/>
                </mxCell>
                <mxCell id="Uaf2S9VRrsXDN28cyn4M-161" value="admin_id" style="ellipse;whiteSpace=wrap;html=1;align=center;fontStyle=0" vertex="1" parent="1">
                    <mxGeometry x="200" y="1470" width="100" height="40" as="geometry"/>
                </mxCell>
                <mxCell id="Uaf2S9VRrsXDN28cyn4M-162" value="subject" style="ellipse;whiteSpace=wrap;html=1;align=center;fontStyle=0" vertex="1" parent="1">
                    <mxGeometry x="260" y="1520" width="100" height="40" as="geometry"/>
                </mxCell>
                <mxCell id="Uaf2S9VRrsXDN28cyn4M-163" value="phone" style="ellipse;whiteSpace=wrap;html=1;align=center;fontStyle=0" vertex="1" parent="1">
                    <mxGeometry x="140" y="1520" width="100" height="40" as="geometry"/>
                </mxCell>
                <mxCell id="Uaf2S9VRrsXDN28cyn4M-164" value="email" style="ellipse;whiteSpace=wrap;html=1;align=center;fontStyle=0" vertex="1" parent="1">
                    <mxGeometry x="20" y="1520" width="100" height="40" as="geometry"/>
                </mxCell>
                <mxCell id="Uaf2S9VRrsXDN28cyn4M-165" value="name" style="ellipse;whiteSpace=wrap;html=1;align=center;fontStyle=0" vertex="1" parent="1">
                    <mxGeometry x="320" y="1470" width="100" height="40" as="geometry"/>
                </mxCell>
                <mxCell id="Uaf2S9VRrsXDN28cyn4M-166" value="message" style="ellipse;whiteSpace=wrap;html=1;align=center;fontStyle=0" vertex="1" parent="1">
                    <mxGeometry x="380" y="1520" width="100" height="40" as="geometry"/>
                </mxCell>
                <mxCell id="Uaf2S9VRrsXDN28cyn4M-167" value="status" style="ellipse;whiteSpace=wrap;html=1;align=center;fontStyle=0" vertex="1" parent="1">
                    <mxGeometry x="435" y="1470" width="100" height="40" as="geometry"/>
                </mxCell>
                <mxCell id="Uaf2S9VRrsXDN28cyn4M-168" value="send_at" style="ellipse;whiteSpace=wrap;html=1;align=center;fontStyle=0" vertex="1" parent="1">
                    <mxGeometry x="500" y="1520" width="100" height="40" as="geometry"/>
                </mxCell>
                <mxCell id="Uaf2S9VRrsXDN28cyn4M-169" value="&lt;span&gt;id&lt;/span&gt;" style="ellipse;whiteSpace=wrap;html=1;align=center;fontStyle=4;fillColor=#d5e8d4;strokeColor=#82b366;" vertex="1" parent="1">
                    <mxGeometry x="435" y="1100" width="100" height="40" as="geometry"/>
                </mxCell>
                <mxCell id="Uaf2S9VRrsXDN28cyn4M-170" value="created_at" style="ellipse;whiteSpace=wrap;html=1;align=center;fontStyle=0" vertex="1" parent="1">
                    <mxGeometry x="615" y="1180" width="100" height="40" as="geometry"/>
                </mxCell>
                <mxCell id="Uaf2S9VRrsXDN28cyn4M-171" value="status" style="ellipse;whiteSpace=wrap;html=1;align=center;fontStyle=0" vertex="1" parent="1">
                    <mxGeometry x="615" y="1120" width="100" height="40" as="geometry"/>
                </mxCell>
                <mxCell id="Uaf2S9VRrsXDN28cyn4M-172" value="total_price" style="ellipse;whiteSpace=wrap;html=1;align=center;fontStyle=0" vertex="1" parent="1">
                    <mxGeometry x="495" y="1190" width="100" height="40" as="geometry"/>
                </mxCell>
                <mxCell id="Uaf2S9VRrsXDN28cyn4M-173" value="order_code" style="ellipse;whiteSpace=wrap;html=1;align=center;fontStyle=0" vertex="1" parent="1">
                    <mxGeometry x="495" y="1140" width="100" height="40" as="geometry"/>
                </mxCell>
                <mxCell id="Uaf2S9VRrsXDN28cyn4M-174" value="&lt;span&gt;id&lt;/span&gt;" style="ellipse;whiteSpace=wrap;html=1;align=center;fontStyle=4;fillColor=#d5e8d4;strokeColor=#82b366;" vertex="1" parent="1">
                    <mxGeometry x="375" y="440" width="100" height="40" as="geometry"/>
                </mxCell>
                <mxCell id="Uaf2S9VRrsXDN28cyn4M-175" value="created_at" style="ellipse;whiteSpace=wrap;html=1;align=center;fontStyle=0" vertex="1" parent="1">
                    <mxGeometry x="290" y="600" width="100" height="40" as="geometry"/>
                </mxCell>
                <mxCell id="Uaf2S9VRrsXDN28cyn4M-176" value="status" style="ellipse;whiteSpace=wrap;html=1;align=center;fontStyle=0" vertex="1" parent="1">
                    <mxGeometry x="420" y="580" width="100" height="40" as="geometry"/>
                </mxCell>
                <mxCell id="Uaf2S9VRrsXDN28cyn4M-177" value="total_price" style="ellipse;whiteSpace=wrap;html=1;align=center;fontStyle=0" vertex="1" parent="1">
                    <mxGeometry x="380" y="650" width="100" height="40" as="geometry"/>
                </mxCell>
                <mxCell id="Uaf2S9VRrsXDN28cyn4M-178" value="order_code" style="ellipse;whiteSpace=wrap;html=1;align=center;fontStyle=0" vertex="1" parent="1">
                    <mxGeometry x="440" y="510" width="100" height="40" as="geometry"/>
                </mxCell>
                <mxCell id="Uaf2S9VRrsXDN28cyn4M-179" value="order_code" style="ellipse;whiteSpace=wrap;html=1;align=center;fontStyle=0" vertex="1" parent="1">
                    <mxGeometry x="-410" y="370" width="100" height="40" as="geometry"/>
                </mxCell>
                <mxCell id="Uaf2S9VRrsXDN28cyn4M-180" style="edgeStyle=orthogonalEdgeStyle;shape=connector;rounded=1;jumpStyle=arc;jumpSize=13;html=1;strokeColor=default;align=center;verticalAlign=middle;fontFamily=Helvetica;fontSize=12;fontColor=default;labelBackgroundColor=default;endArrow=none;endFill=0;" edge="1" parent="1" source="Uaf2S9VRrsXDN28cyn4M-181" target="Uaf2S9VRrsXDN28cyn4M-50">
                    <mxGeometry relative="1" as="geometry">
                        <Array as="points">
                            <mxPoint x="-150" y="450"/>
                            <mxPoint x="-150" y="390"/>
                        </Array>
                    </mxGeometry>
                </mxCell>
                <mxCell id="Uaf2S9VRrsXDN28cyn4M-181" value="seat_id" style="ellipse;whiteSpace=wrap;html=1;align=center;fontStyle=0" vertex="1" parent="1">
                    <mxGeometry x="-402.5" y="430" width="100" height="40" as="geometry"/>
                </mxCell>
                <mxCell id="Uaf2S9VRrsXDN28cyn4M-182" value="product_id" style="ellipse;whiteSpace=wrap;html=1;align=center;fontStyle=0" vertex="1" parent="1">
                    <mxGeometry x="-290" y="460" width="100" height="40" as="geometry"/>
                </mxCell>
                <mxCell id="Uaf2S9VRrsXDN28cyn4M-183" value="showtime_id" style="ellipse;whiteSpace=wrap;html=1;align=center;fontStyle=0" vertex="1" parent="1">
                    <mxGeometry x="-290" y="400" width="100" height="40" as="geometry"/>
                </mxCell>
                <mxCell id="Uaf2S9VRrsXDN28cyn4M-184" style="edgeStyle=orthogonalEdgeStyle;shape=connector;rounded=1;jumpStyle=arc;jumpSize=13;html=1;strokeColor=default;align=center;verticalAlign=middle;fontFamily=Helvetica;fontSize=12;fontColor=default;labelBackgroundColor=default;endArrow=none;endFill=0;" edge="1" parent="1" source="Uaf2S9VRrsXDN28cyn4M-185" target="Uaf2S9VRrsXDN28cyn4M-50">
                    <mxGeometry relative="1" as="geometry">
                        <Array as="points">
                            <mxPoint x="-150" y="570"/>
                            <mxPoint x="-150" y="390"/>
                        </Array>
                    </mxGeometry>
                </mxCell>
                <mxCell id="Uaf2S9VRrsXDN28cyn4M-185" value="time" style="ellipse;whiteSpace=wrap;html=1;align=center;fontStyle=0" vertex="1" parent="1">
                    <mxGeometry x="-400" y="550" width="100" height="40" as="geometry"/>
                </mxCell>
                <mxCell id="Uaf2S9VRrsXDN28cyn4M-186" style="edgeStyle=orthogonalEdgeStyle;shape=connector;rounded=1;jumpStyle=arc;jumpSize=13;html=1;strokeColor=default;align=center;verticalAlign=middle;fontFamily=Helvetica;fontSize=12;fontColor=default;labelBackgroundColor=default;endArrow=none;endFill=0;" edge="1" parent="1" source="Uaf2S9VRrsXDN28cyn4M-187" target="Uaf2S9VRrsXDN28cyn4M-50">
                    <mxGeometry relative="1" as="geometry">
                        <Array as="points">
                            <mxPoint x="-150" y="510"/>
                            <mxPoint x="-150" y="390"/>
                        </Array>
                    </mxGeometry>
                </mxCell>
                <mxCell id="Uaf2S9VRrsXDN28cyn4M-187" value="quantity" style="ellipse;whiteSpace=wrap;html=1;align=center;fontStyle=0" vertex="1" parent="1">
                    <mxGeometry x="-400" y="490" width="100" height="40" as="geometry"/>
                </mxCell>
                <mxCell id="Uaf2S9VRrsXDN28cyn4M-188" value="status" style="ellipse;whiteSpace=wrap;html=1;align=center;fontStyle=0" vertex="1" parent="1">
                    <mxGeometry x="-290" y="520" width="100" height="40" as="geometry"/>
                </mxCell>
                <mxCell id="Uaf2S9VRrsXDN28cyn4M-189" value="&lt;span&gt;id&lt;/span&gt;" style="ellipse;whiteSpace=wrap;html=1;align=center;fontStyle=4;fillColor=#d5e8d4;strokeColor=#82b366;" vertex="1" parent="1">
                    <mxGeometry x="-290" y="340" width="100" height="40" as="geometry"/>
                </mxCell>
                <mxCell id="Uaf2S9VRrsXDN28cyn4M-190" value="&lt;span&gt;order_code&lt;/span&gt;" style="ellipse;whiteSpace=wrap;html=1;align=center;fontStyle=4;fillColor=#d5e8d4;strokeColor=#82b366;" vertex="1" parent="1">
                    <mxGeometry x="120" y="930" width="100" height="40" as="geometry"/>
                </mxCell>
                <mxCell id="Uaf2S9VRrsXDN28cyn4M-191" value="name" style="ellipse;whiteSpace=wrap;html=1;align=center;fontStyle=0" vertex="1" parent="1">
                    <mxGeometry x="-30" y="930" width="100" height="40" as="geometry"/>
                </mxCell>
                <mxCell id="Uaf2S9VRrsXDN28cyn4M-192" value="user_id" style="ellipse;whiteSpace=wrap;html=1;align=center;fontStyle=0" vertex="1" parent="1">
                    <mxGeometry x="-30" y="780" width="100" height="40" as="geometry"/>
                </mxCell>
                <mxCell id="Uaf2S9VRrsXDN28cyn4M-193" value="email" style="ellipse;whiteSpace=wrap;html=1;align=center;fontStyle=0" vertex="1" parent="1">
                    <mxGeometry x="-70" y="880" width="100" height="40" as="geometry"/>
                </mxCell>
                <mxCell id="Uaf2S9VRrsXDN28cyn4M-194" value="total_price" style="ellipse;whiteSpace=wrap;html=1;align=center;fontStyle=0" vertex="1" parent="1">
                    <mxGeometry x="-65.03" y="830" width="100" height="40" as="geometry"/>
                </mxCell>
                <mxCell id="Uaf2S9VRrsXDN28cyn4M-195" value="status" style="ellipse;whiteSpace=wrap;html=1;align=center;fontStyle=0" vertex="1" parent="1">
                    <mxGeometry x="130" y="810" width="100" height="40" as="geometry"/>
                </mxCell>
                <mxCell id="Uaf2S9VRrsXDN28cyn4M-196" value="created_at" style="ellipse;whiteSpace=wrap;html=1;align=center;fontStyle=0" vertex="1" parent="1">
                    <mxGeometry x="150" y="880" width="100" height="40" as="geometry"/>
                </mxCell>
            </root>
        </mxGraphModel>
    </diagram>
</mxfile>